<svg width="73" height="84" viewBox="0 0 73 84" fill="none" xmlns="http://www.w3.org/2000/svg">
<path d="M39.2419 65.3141C38.5877 66.1 37.8462 66.7549 36.9739 67.2351C35.84 67.8463 34.6624 68.1083 33.3539 68.1083C32.9614 68.1083 32.5689 68.1519 32.22 68.0646C31.7402 67.9773 31.2168 67.8463 30.7371 67.6717C28.5563 66.9295 27.0298 65.4451 26.0267 63.4368C25.6778 62.6946 25.4161 61.9524 25.2416 61.1228C24.9799 60.1187 25.0235 59.0709 25.0671 58.023C25.0671 57.9357 25.1108 57.8921 25.1108 57.8047C25.1108 57.6738 25.1544 57.5428 25.1544 57.4118C25.1544 57.3682 25.198 57.3245 25.198 57.2372C25.5905 54.312 27.5096 50.863 31.3913 49.9898C31.8274 49.9025 32.3072 49.8588 32.7433 49.7715C33.0922 49.7715 33.4412 49.7715 33.7901 49.7715C35.9272 49.9025 37.6718 50.863 39.0674 52.4783C39.1111 52.522 39.1547 52.6093 39.2419 52.653C39.2855 52.653 39.2855 52.6966 39.3291 52.6966C39.3291 52.6966 39.3291 52.653 39.3727 52.653C39.3727 51.8671 39.3728 51.0813 39.4164 50.2517C40.3759 50.2517 41.3354 50.2517 42.2949 50.2517C42.3822 50.47 42.3822 67.0168 42.3385 67.5844C41.379 67.5844 40.4195 67.5844 39.4164 67.5844C39.4164 66.7985 39.4164 66.0563 39.4164 65.3141C39.4164 65.2704 39.4164 65.2704 39.3727 65.2268C39.2855 65.2704 39.2419 65.3141 39.2419 65.3141ZM33.7901 52.5657C33.7028 52.5657 33.6592 52.5657 33.572 52.5657C32.6561 52.6093 31.7402 52.784 30.9551 53.3079C29.1669 54.443 28.2946 56.102 28.0766 58.154C28.0766 58.2413 28.0766 58.3287 28.0329 58.4596C28.0329 58.7216 28.0329 58.9399 28.0329 59.2018C28.0329 59.2892 28.0329 59.4201 28.0766 59.5075C28.1638 59.9877 28.2074 60.468 28.2946 60.9045C28.6436 62.258 29.2978 63.4368 30.4317 64.3099C31.2168 64.9212 32.1327 65.2268 33.0922 65.4014C33.1359 65.4014 33.1795 65.4014 33.2231 65.4014C33.5284 65.4014 33.8773 65.4014 34.1826 65.4014C34.2262 65.4014 34.2262 65.4014 34.2698 65.4014C34.4443 65.3578 34.5751 65.3578 34.7496 65.3141C36.1453 65.0522 37.2792 64.3973 38.1515 63.2621C38.9802 62.127 39.3728 60.8609 39.46 59.4638C39.46 59.4201 39.5036 59.4201 39.5036 59.3765C39.5036 59.0709 39.5036 58.7216 39.5036 58.416C39.5036 58.3287 39.46 58.285 39.46 58.1977C39.4164 58.023 39.3727 57.8484 39.3727 57.6738C39.3727 57.1935 39.2419 56.8006 39.0674 56.364C38.4568 54.705 37.4101 53.5262 35.7091 52.9149C35.0985 52.653 34.4443 52.6093 33.7901 52.5657Z" fill="white"/>
<path d="M0.20717 69.5046C0.20717 69.3737 0.250784 69.2864 0.250784 69.1554C0.294399 68.8934 0.294399 68.5878 0.338013 68.3259C0.381628 67.8893 0.425243 67.4527 0.468857 67.0161C0.512472 66.6231 0.556087 66.2302 0.599701 65.8373C1.12308 62.039 1.99537 58.3716 3.21658 54.7479C6.2696 45.7105 11.1108 37.7645 17.7839 30.9101C19.7029 28.9454 21.7528 27.1117 23.8899 25.409C23.9771 25.3654 24.0208 25.3217 24.108 25.2344C24.0208 25.4527 23.9335 25.671 23.8463 25.8893C23.3229 27.1554 22.7996 28.4215 22.2762 29.6876C22.1889 29.9059 22.1453 30.0805 21.9709 30.2552C20.4007 31.6523 18.9615 33.1367 17.5658 34.7084C13.3788 39.4672 9.97685 44.7063 7.4472 50.513C5.70261 54.5296 4.39417 58.6335 3.5655 62.9121C3.43465 63.6107 3.26019 64.3092 3.17296 65.0078C3.04212 65.8809 2.95489 66.7541 2.82405 67.671C2.78043 68.0202 2.73682 68.4132 2.73682 68.7624C2.73682 68.8061 2.73682 68.8498 2.6932 68.9371C2.6932 69.1554 2.64959 69.33 2.64959 69.5483C2.64959 69.6356 2.64959 69.6793 2.60597 69.7666C2.60597 69.8976 2.60597 69.9849 2.60597 70.1159C2.60597 70.1595 2.60597 70.2032 2.60597 70.2468C2.60597 70.3342 2.60597 70.4215 2.60597 70.5088C2.60597 70.5525 2.60597 70.5525 2.56236 70.5961C2.56236 70.6834 2.56236 70.7708 2.56236 70.8581C2.56236 71.12 2.56236 71.4256 2.51874 71.6876C2.51874 71.8186 2.51874 71.9932 2.47513 72.1242C2.47513 73.6086 2.47513 75.0493 2.47513 76.5338C2.03898 76.5338 1.60284 76.5774 1.21031 76.5774C1.07946 76.5774 0.905004 76.5774 0.77416 76.6211C0.556087 76.6211 0.294399 76.6211 0.032711 76.6211C-0.0109037 75.1367 -0.0109037 73.6086 0.032711 72.1242C0.032711 71.9932 0.032711 71.8186 0.0763256 71.6876C0.0763256 71.6439 0.0763256 71.6003 0.0763256 71.6003C0.0763256 71.5566 0.0763256 71.5566 0.0763256 71.513C0.0763256 71.251 0.11994 70.9454 0.11994 70.6834C0.11994 70.6398 0.11994 70.5961 0.163555 70.5525C0.163555 70.5088 0.163555 70.4651 0.163555 70.4215C0.163555 70.1595 0.20717 69.9412 0.20717 69.6793C0.20717 69.592 0.20717 69.5483 0.20717 69.5046Z" fill="white"/>
<path d="M21.9708 30.2994C22.1453 30.1684 22.1889 29.9501 22.2761 29.7318C22.7995 28.4657 23.3229 27.1996 23.8462 25.9335C23.9335 25.7152 24.0207 25.4969 24.1079 25.2786C24.3696 24.7547 24.6313 24.1871 24.893 23.6632C26.1142 21.1746 27.4663 18.7734 28.9492 16.4595C30.1704 14.5821 31.4352 12.7484 32.7872 10.9584C33.7031 9.77963 34.6627 8.68815 35.6222 7.55301C36.5381 6.46154 37.5412 5.41372 38.5444 4.40956C39.2422 3.71102 39.8964 3.01247 40.6379 2.35759C41.4666 1.57173 42.3388 0.785863 43.2111 0.043659C43.2111 0.043659 43.2548 0.043659 43.342 0C43.6037 0.261954 43.8217 0.567568 44.0834 0.873181C43.9526 1.00416 43.8654 1.09148 43.7781 1.17879C43.2548 1.61538 42.7314 2.05198 42.2516 2.48857C40.9432 3.75468 39.5911 5.02079 38.3263 6.33056C37.454 7.2474 36.6253 8.2079 35.7966 9.1684C34.7499 10.3909 33.7468 11.657 32.7872 12.9231C31.4788 14.6694 30.3012 16.4595 29.1672 18.2931C28.2077 19.8649 27.3354 21.4366 26.5067 23.052C26.4631 23.1393 26.2887 23.2266 26.4631 23.4012C26.2887 23.5322 26.1578 23.7069 26.0706 23.9252C25.4164 25.3222 24.8058 26.7193 24.1515 28.1164C24.1515 28.1601 24.1515 28.2037 24.1515 28.2474C23.9335 28.7277 23.7154 29.2079 23.5409 29.7318C23.0176 31.1289 22.4942 32.526 22.058 33.9667C21.3166 36.1934 20.706 38.42 20.2698 40.6902C19.9645 42.262 19.6592 43.8337 19.3975 45.4054C19.2667 46.1913 19.1795 47.0208 19.0922 47.8503C19.005 48.6798 18.9178 49.5094 18.8306 50.3389C18.7869 50.7755 18.7869 51.2121 18.7433 51.605C18.6997 52.3035 18.6997 53.0021 18.6561 53.7006C18.6125 55.185 18.6125 56.7131 18.6125 58.1975C18.6125 59.1143 18.6997 60.0312 18.7433 60.9917C18.7869 61.8212 18.8742 62.6507 18.9614 63.4366C19.0922 64.4844 19.2231 65.5322 19.3539 66.58C19.6592 68.763 20.0954 70.9459 20.5751 73.0852C20.9677 74.7006 21.4038 76.2724 21.8836 77.8441C22.4942 79.8524 23.2356 81.817 24.0207 83.7817C24.0643 83.8254 24.0643 83.9127 24.0643 84C23.6282 84 23.2356 84 22.7995 84C22.7123 83.7817 22.5814 83.5198 22.4942 83.2578C21.9708 81.8171 21.4038 80.3326 20.9241 78.8919C20.4007 77.1892 19.8773 75.4428 19.4412 73.6965C19.0922 72.2994 18.7869 70.8586 18.5253 69.4179C18.3508 68.4574 18.2199 67.5405 18.0891 66.58C17.9583 65.7505 17.871 64.921 17.7402 64.0915C17.653 63.4803 17.653 62.869 17.5657 62.2141C17.4785 61.341 17.4349 60.5114 17.3913 59.6383C17.3913 59.5946 17.3913 59.5509 17.3913 59.5509C17.3477 58.1975 17.3477 56.8441 17.3477 55.5343C17.3477 54.6611 17.3913 53.7879 17.4349 52.9148C17.4785 52.1726 17.5221 51.3867 17.5657 50.6445C17.653 49.684 17.6966 48.7672 17.8274 47.8067C18.0455 46.1913 18.3072 44.5759 18.5689 42.9605C18.9178 40.8212 19.4412 38.7256 20.0081 36.6299C20.5315 34.7089 21.1421 32.7879 21.84 30.9106C21.9272 30.6487 22.1017 30.474 21.9708 30.2994Z" fill="white"/>
<path d="M66.763 65.3571C67.1555 65.3571 67.5481 65.3571 67.9406 65.3571C67.9842 65.3571 68.0278 65.3571 68.1151 65.3134C69.4671 65.2261 70.6447 64.6585 71.6478 63.7853C72.0404 63.4361 72.3893 63.0431 72.7382 62.6502C72.8254 62.5629 72.869 62.4756 72.9999 62.3446C72.9999 62.5192 72.9999 62.6066 72.9999 62.6939C72.9999 63.829 72.9999 64.9641 72.9999 66.0556C72.9999 66.2739 72.9127 66.4049 72.7382 66.4922C70.9936 67.6273 69.1182 68.1949 67.0247 68.1076C65.4546 68.0639 64.0153 67.6273 62.6632 66.8415C61.3548 66.0993 60.3516 65.0515 59.5666 63.7853C58.9996 62.8685 58.6507 61.8207 58.4326 60.7729C58.389 60.5109 58.389 60.249 58.3454 59.987C58.3454 59.8997 58.3018 59.856 58.3018 59.7687C58.3018 59.5941 58.3018 59.4194 58.3018 59.2011C58.389 59.0702 58.389 58.9392 58.3018 58.7646C58.3018 58.5899 58.3018 58.4153 58.3018 58.197C58.3018 58.1097 58.3454 58.066 58.3454 57.9787C58.4326 56.6689 58.8687 55.4465 59.523 54.3113C60.9622 51.8664 63.143 50.4693 65.8907 49.9454C66.2396 49.8581 66.5885 49.8581 66.9375 49.8145C67.2864 49.8145 67.6353 49.8145 68.0278 49.8145C69.7724 49.9454 71.3861 50.4693 72.8254 51.5172C72.8254 52.8269 72.8254 54.1367 72.8254 55.4028C72.7382 55.3155 72.651 55.2718 72.5637 55.1845C72.0404 54.5733 71.4734 54.0057 70.8192 53.5691C70.0341 53.0452 69.2054 52.696 68.2459 52.6086C68.0278 52.6086 67.7661 52.565 67.5481 52.5213C67.4608 52.5213 67.4172 52.5213 67.33 52.5213C66.5885 52.565 65.8907 52.6523 65.2365 52.9142C63.2302 53.7438 62.009 55.2718 61.4856 57.3675C61.3984 57.7167 61.3548 58.1097 61.3112 58.4589C61.3112 58.5899 61.3112 58.7209 61.2675 58.8082C61.2675 58.8519 61.2675 58.9392 61.2675 58.9829C61.2675 59.1138 61.2676 59.2885 61.3112 59.4194C61.4856 61.4278 62.2707 63.0868 63.928 64.3093C64.7131 64.8768 65.5854 65.1824 66.5449 65.2698C66.6758 65.3571 66.7194 65.3571 66.763 65.3571Z" fill="white"/>
<path d="M24.1952 28.2906C24.1952 28.2469 24.1516 28.2032 24.1952 28.1596C24.8494 26.7625 25.46 25.3654 26.1142 23.9683C26.2014 23.75 26.3323 23.5754 26.5067 23.4444C28.2949 22.222 30.0831 21.0432 31.9586 19.9953C37.4976 16.8956 43.342 14.7126 49.5353 13.4028C50.4512 13.2282 51.4107 13.0536 52.3266 12.8789C53.1553 12.7479 53.984 12.617 54.8126 12.5297C55.1616 12.486 55.5105 12.4423 55.8158 12.4423C55.903 12.4423 55.9466 12.3987 56.0338 12.3987C56.2083 12.3987 56.3391 12.355 56.5136 12.355C56.6008 12.355 56.6445 12.3114 56.7317 12.3114C56.9498 12.3114 57.1678 12.2677 57.3859 12.2677C57.4295 12.2677 57.4731 12.2677 57.5604 12.224C57.822 12.224 58.0401 12.1804 58.3018 12.1804C58.3454 12.1804 58.3454 12.1804 58.389 12.1804C58.4763 12.1804 58.5199 12.1367 58.6071 12.1367C58.738 12.1367 58.8252 12.1367 58.956 12.1367C58.9996 12.1367 59.0433 12.1367 59.0869 12.1367C59.2613 12.1367 59.4358 12.1367 59.6102 12.1367C59.7847 12.1367 59.9592 12.1367 60.1336 12.1367C60.1336 12.224 60.1336 12.2677 60.1336 12.355C60.1336 12.5297 60.1336 12.7043 60.1772 12.8789C60.1772 13.2719 60.2209 13.7084 60.2209 14.1014C60.2209 14.145 60.2209 14.145 60.2209 14.1887C60.2209 14.2324 60.2209 14.276 60.2209 14.3197C60.2209 14.407 60.2209 14.4506 60.2209 14.538H60.1772C60.0464 14.538 59.8719 14.538 59.7411 14.5816C59.3922 14.5816 59.0433 14.6253 58.6943 14.6253C58.6071 14.6253 58.5199 14.6253 58.4763 14.6689C58.389 14.6689 58.3018 14.6689 58.2146 14.6689C58.171 14.6689 58.1274 14.6689 58.0837 14.6689C57.9529 14.6689 57.8657 14.6689 57.7348 14.6689C57.6476 14.6689 57.5604 14.6689 57.5167 14.7126C57.2987 14.7126 57.1242 14.7563 56.9061 14.7563C56.8189 14.7563 56.7753 14.7563 56.6881 14.7999C55.9466 14.8872 55.1616 14.9746 54.4201 15.1055C53.417 15.2365 52.4138 15.3675 51.4543 15.5421C46.3514 16.5026 41.4666 18.0743 36.7562 20.301C32.3947 22.3966 28.3386 24.9725 24.5877 28.0286C24.4132 28.1159 24.326 28.2032 24.1952 28.2906Z" fill="white"/>
<path d="M53.8095 52.565C52.5883 52.6086 51.7596 53.2199 51.2798 54.3113C50.9745 54.9226 50.8001 55.6211 50.7128 56.3197C50.6692 56.4943 50.6692 56.6689 50.6256 56.8436C50.6256 56.8872 50.6256 56.9309 50.6256 56.9745C50.6256 57.0619 50.6256 57.1055 50.6256 57.1928C50.6256 57.2802 50.6256 57.3238 50.582 57.4111C50.582 57.5858 50.582 57.7167 50.582 57.8914C50.582 57.9787 50.582 58.0224 50.582 58.1097C50.582 61.2968 50.582 64.4402 50.582 67.6273C49.5789 67.6273 48.6193 67.6273 47.6162 67.6273C47.6162 61.8643 47.6162 56.1014 47.6162 50.3384C47.8343 50.251 49.7533 50.251 50.582 50.2947C50.582 50.6003 50.582 50.9059 50.582 51.2115C50.582 51.5172 50.582 51.8228 50.582 52.172C50.7129 52.0411 50.7565 51.9974 50.8437 51.9101C51.149 51.5608 51.4543 51.1679 51.8032 50.8623C52.4138 50.251 53.1989 49.9018 54.1148 49.8145C54.3765 49.8145 54.6382 49.8145 54.8999 49.8145C55.7285 49.8581 56.47 50.2074 57.1678 50.6003C56.6881 51.5172 56.2519 52.3903 55.7721 53.3072C55.2488 52.9142 54.7254 52.5213 54.0276 52.5213C53.9403 52.565 53.8531 52.565 53.8095 52.565Z" fill="white"/>
<path d="M72.8691 55.4472C72.8691 54.1374 72.8691 52.8276 72.8691 51.5615C72.9128 51.6488 72.9564 51.6925 72.9564 51.7798C72.9564 52.9586 72.9564 54.0937 72.9564 55.2725C72.9564 55.3162 72.9128 55.3599 72.8691 55.4472Z" fill="white"/>
<path d="M58.3457 58.7656C58.4329 58.8966 58.4329 59.0276 58.3457 59.2022C58.3457 59.0712 58.3457 58.9403 58.3457 58.7656Z" fill="white"/>
<path d="M60.2214 12.8794C60.2214 12.7047 60.2213 12.5301 60.1777 12.3555C60.1777 12.5738 60.2214 12.7047 60.2214 12.8794Z" fill="white"/>
<path d="M60.1777 12.1813C60.0032 12.1813 59.8288 12.1813 59.6543 12.1813C59.8288 12.094 60.0032 12.0503 60.1777 12.1813Z" fill="white"/>
<path d="M61.3981 59.5069C61.3981 59.3759 61.3981 59.2013 61.3545 59.0703C61.3545 59.2013 61.3981 59.3323 61.3981 59.5069Z" fill="white"/>
<path d="M59.7412 14.6257C59.8721 14.6257 60.0465 14.6257 60.1774 14.582C60.0465 14.582 59.8721 14.582 59.7412 14.6257Z" fill="white"/>
<path d="M61.3545 58.8522C61.3545 58.7212 61.3545 58.5902 61.3981 58.5029C61.3981 58.6339 61.3545 58.7212 61.3545 58.8522Z" fill="white"/>
<path d="M56.6885 14.8444C56.7757 14.8444 56.8193 14.8444 56.9065 14.8008C56.8193 14.8008 56.7321 14.8008 56.6885 14.8444Z" fill="white"/>
<path d="M58.6507 12.2246C58.5635 12.2246 58.5198 12.2683 58.4326 12.2683V12.2246C58.4762 12.2246 58.5635 12.2246 58.6507 12.2246Z" fill="white"/>
<path d="M57.5166 14.7565C57.6038 14.7565 57.6911 14.7565 57.7347 14.7129C57.6474 14.7129 57.6038 14.7565 57.5166 14.7565Z" fill="white"/>
<path d="M58.4766 14.6696C58.5638 14.6696 58.651 14.6696 58.6946 14.626C58.651 14.6696 58.5638 14.6696 58.4766 14.6696Z" fill="white"/>
<path d="M58.3887 59.7695C58.3887 59.8568 58.4323 59.9005 58.4323 59.9878C58.3887 59.9005 58.3887 59.8132 58.3887 59.7695Z" fill="white"/>
<path d="M56.7757 12.3555C56.6885 12.3555 56.6448 12.3991 56.5576 12.3991C56.6012 12.3555 56.6885 12.3555 56.7757 12.3555Z" fill="white"/>
<path d="M56.0774 12.3984C55.9902 12.3984 55.9466 12.4421 55.8594 12.4421C55.903 12.4421 55.9902 12.4421 56.0774 12.3984Z" fill="white"/>
<path d="M60.2207 14.5816C60.2207 14.4943 60.2207 14.4506 60.2207 14.3633C60.3079 14.4069 60.3515 14.4943 60.2207 14.5816Z" fill="white"/>
<path d="M50.582 57.4117C50.582 57.3243 50.582 57.2807 50.6256 57.1934C50.582 57.237 50.582 57.3243 50.582 57.4117Z" fill="white"/>
<path d="M25.0671 57.8486C25.0671 57.936 25.0234 57.9796 25.0234 58.0669C25.0671 58.0233 25.0671 57.936 25.0671 57.8486Z" fill="white"/>
<path d="M58.3893 57.9795C58.3893 58.0668 58.3457 58.1105 58.3457 58.1978C58.3893 58.1541 58.3893 58.0668 58.3893 57.9795Z" fill="white"/>
<path d="M39.3291 52.6963C39.3291 52.6963 39.3291 52.74 39.2855 52.74C39.2419 52.74 39.2419 52.6963 39.1982 52.6963C39.2855 52.6963 39.2855 52.6963 39.3291 52.6963Z" fill="white"/>
<path d="M25.1549 57.3242C25.1549 57.3679 25.1113 57.4115 25.1113 57.4989C25.1113 57.4115 25.1549 57.3679 25.1549 57.3242Z" fill="white"/>
<path d="M68.1149 65.3574C68.0713 65.3574 68.0277 65.3574 67.9404 65.4011C67.984 65.3574 68.0713 65.3574 68.1149 65.3574Z" fill="white"/>
<path d="M66.7633 65.3581C66.7197 65.3581 66.6761 65.3581 66.5889 65.3145C66.6761 65.3581 66.7197 65.3581 66.7633 65.3581Z" fill="white"/>
<path d="M39.2422 65.3142C39.2858 65.3142 39.2858 65.2705 39.3294 65.2705C39.3294 65.3142 39.3294 65.3142 39.373 65.3578C39.2858 65.3142 39.2422 65.3142 39.2422 65.3142Z" fill="white"/>
<path d="M57.6041 12.2686C57.5605 12.2686 57.5169 12.2686 57.4297 12.3122C57.4733 12.3122 57.5605 12.2686 57.6041 12.2686Z" fill="white"/>
<path d="M58.4329 12.1807V12.2243C58.3893 12.2243 58.3893 12.2243 58.3457 12.2243C58.3457 12.2243 58.3893 12.2243 58.4329 12.1807Z" fill="white"/>
<path d="M28.0332 59.2021C28.0332 59.2895 28.0332 59.4204 28.0768 59.5078C28.0768 59.3768 28.0332 59.2895 28.0332 59.2021Z" fill="white"/>
<path d="M28.0768 58.1543C28.0768 58.2416 28.0768 58.3289 28.0332 58.4599C28.0332 58.3289 28.0768 58.2416 28.0768 58.1543Z" fill="white"/>
<path d="M39.4606 58.4156C39.4606 58.3282 39.417 58.2846 39.417 58.1973C39.4606 58.2846 39.4606 58.3719 39.4606 58.4156Z" fill="white"/>
<path d="M33.0928 65.4012C33.1364 65.4012 33.18 65.4012 33.2236 65.4012C33.18 65.3576 33.1364 65.4012 33.0928 65.4012Z" fill="white"/>
<path d="M39.417 59.4633C39.417 59.4196 39.4606 59.4196 39.4606 59.376C39.4606 59.4196 39.4606 59.4633 39.417 59.4633Z" fill="white"/>
</svg>
