<svg width="148" height="84" viewBox="0 0 148 84" fill="none" xmlns="http://www.w3.org/2000/svg">
<path d="M14.8 55.4002C14.4 54.0002 14 52.5002 13.7 51.1002C13.4 50.0002 13 49.8002 11.9 50.2002C11.2 50.4002 10.5 50.5002 9.8 50.8002C9.5 50.9002 9.2 51.2002 9 51.5002C8.5 52.1002 8.1 52.3002 7.2 52.1002C5.7 51.8002 4 51.9002 2.4 51.9002C1.6 51.9002 0.8 51.9002 0 52.0002C0 51.6002 0 51.2002 0 50.8002C0.7 50.6002 1.4 50.5002 2 50.3002C3.3 50.0002 4.7 49.8002 6 49.5002C6.3 49.4002 6.7 49.2002 7 49.0002C7.4 49.0002 7.8 48.9002 8.1 48.9002C9.5 48.8002 11 48.7002 12.6 48.6002C13.3 47.8002 13.4 46.2002 12.7 45.4002C12.7 44.2002 12.7 43.1002 12.6 41.9002C12.8 38.8002 13.1 35.6002 13.3 32.5002C13.9 30.4002 14.4 28.4002 15 26.3002C15.1 26.0002 15.3 25.7002 15.4 25.4002C16.1 23.7002 16.8 22.1002 17.6 20.4002C18.2 19.5002 18.8 18.7002 19.3 17.8002C19.7 17.1002 20.1 16.4002 20.5 15.6002C21.3 15.0002 21.2 14.5002 20.4 14.1002C19.9 13.9002 19.4 13.7002 18.9 13.6002C19.4 13.3002 19.9 13.4002 20.4 13.3002C21.3 13.2002 22.1 13.2002 23 13.1002C24.3 11.8002 25.5 10.4002 26.8 9.1002C27.3 8.7002 27.7 8.3002 28.2 7.9002C28.3 7.8002 28.4 7.7002 28.4 7.7002C28.8 7.6002 29.2 7.6002 29.5 7.4002C30.9 6.6002 32.2 5.7002 33.6 4.9002C34.7 4.4002 35.8 3.9002 36.8 3.4002C37.4 3.1002 38.1 2.8002 38.7 2.5002C38.7 2.4002 38.7 2.4002 38.7 2.3002C39.5 2.1002 40.4 2.0002 41.2 1.8002C41.8 1.7002 42.4 1.7002 43 1.6002C44.5 1.3002 46.1 1.0002 47.6 0.600195C47.8 0.500195 48.1 0.300195 48.3 0.200195C50 0.200195 51.7 0.200195 53.5 0.200195C53.8 0.300195 54.1 0.500195 54.4 0.600195C56.9 1.0002 59.5 1.5002 62.1 2.1002C63 2.8002 64 3.2002 65.2 3.0002C65.8 3.2002 66.5 3.5002 67.1 3.7002C67.2 3.8002 67.2 4.0002 67.3 4.1002C69.2 5.3002 71.2 6.4002 73.1 7.5002C73.4 7.7002 73.9 7.7002 74.3 7.9002C74.9 7.6002 75.2 7.7002 75.1 8.4002C75.2 8.60019 75.2 9.0002 75.4 9.1002C77.2 10.2002 78.9 11.3002 80.3 13.0002C80.4 13.1002 80.6 13.1002 80.7 13.1002C81.4 14.0002 82.1 14.9002 82.8 15.8002C83.3 16.4002 83.8 16.9002 84.3 17.4002C83.2 17.9002 82.1 18.4002 80.9 18.9002C80.6 18.6002 80.3 18.4002 79.9 18.1002C79.9 18.0002 79.8 17.9002 79.8 17.9002C79.8 17.8002 79.7 17.8002 79.7 17.7002C79.5 17.5002 79.4 17.2002 79.2 17.0002C79.1 16.9002 79 16.8002 78.9 16.8002C78.8 16.7002 78.8 16.7002 78.7 16.6002C78.6 16.5002 78.6 16.5002 78.5 16.4002C77.9 15.8002 77.3 15.1002 76.7 14.5002C76.7 14.4002 76.7 14.3002 76.7 14.3002C76.7 14.1002 76.8 13.7002 76.7 13.6002C75.7 13.0002 74.6 12.5002 73.6 12.0002C73.4 11.8002 73.1 11.7002 72.9 11.5002C72.6 11.1002 72.3 10.6002 71.9 10.3002C71.8 10.2002 71.3 10.5002 71 10.6002C69.8 11.2002 68.5 11.7002 67.3 12.2002C66.2 12.7002 65 13.1002 63.9 13.6002C62.4 13.9002 60.9 14.3002 59.4 14.7002C59.2 14.7002 59.2 15.1002 59.1 15.2002C59 15.3002 58.8 15.4002 58.7 15.5002C57.8 15.6002 56.9 15.7002 56 15.8002C55.1 16.0002 54.3 16.4002 53.4 16.4002C49.9 16.5002 46.4 16.6002 42.9 16.7002C42.3 16.7002 41.7 16.9002 41.1 16.9002C39.8 16.9002 38.4 17.3002 37.1 16.6002C35.6 20.3002 35.5 24.2002 35.4 28.0002C35.4 30.0002 35.4 31.9002 35.4 33.9002C35.5 33.9002 35.5 33.9002 35.6 33.9002C35.5 34.8002 35.3 35.8002 35.3 36.7002C35.3 37.9002 35.4 39.1002 35.4 40.2002C35.3 40.6002 35.3 41.0002 35.2 41.3002C35.3 41.7002 35.3 42.1002 35.4 42.5002C35.4 42.7002 35.4 42.8002 35.4 43.0002C35 43.7002 35.5 43.7002 35.9 43.7002C36.8 43.7002 37.7 43.6002 38.6 43.6002C38.7 44.1002 38.7 44.6002 38.8 45.2002C39.2 45.0002 39.5 44.9002 39.8 44.7002C41.3 44.6002 42.7 43.8002 44.3 44.3002C44.8 44.4002 45.4 44.5002 46 44.4002C47.1 44.3002 48.2 44.1002 49.3 44.0002C50.7 43.8002 52.2 43.5002 53.6 43.2002C54.8 43.1002 56 43.1002 57.2 43.0002C56.7 43.3002 56.2 43.7002 55.8 44.0002C55.8 44.1002 55.8 44.1002 55.7 44.1002C55.5 44.1002 55.3 44.0002 55.1 44.0002C54.9 44.0002 54.7 43.9002 54.6 43.9002C52.8 44.4002 51.1 45.0002 49.3 45.5002C48.4 45.7002 47.6 45.9002 46.7 46.1002C46.1 46.1002 45.5 45.9002 45 46.0002C42.5 46.8002 40 47.0002 37.5 47.0002C37.2 47.0002 36.9 47.2002 36.7 47.4002C36.2 48.1002 36.8 50.9002 37.5 51.5002C37.6 52.4002 37.7 53.4002 37.9 54.3002C38 54.8002 38.2 55.3002 37.4 55.5002C36.6 55.7002 36.7 56.2002 36.9 56.8002C37.2 57.7002 37.5 58.6002 37.7 59.4002C38.2 61.2002 38.7 63.0002 39.1 64.8002C39.6 66.0002 40 67.2002 40.5 68.4002C40.8 69.0002 41.3 69.5002 41.6 70.0002C41.6 70.2002 41.7 70.3002 41.7 70.5002C41.7 70.5002 41.7 70.6002 41.6 70.7002C41.6 71.0002 41.6 71.4002 41.6 71.7002C41.1 71.3002 40.7 70.9002 40.2 70.5002C38.9 69.5002 38.7 68.0002 38.3 66.6002C38.2 66.3002 38.1 65.9002 38 65.6002C36.8 63.6002 35.9 61.5002 35.7 59.2002C35.7 58.9002 35.3 58.6002 35 58.3002C34.8 57.6002 34.7 56.9002 34.5 56.2002C34.2 54.8002 33.9 53.4002 33.6 52.0002C33.5 51.5002 33.4 51.1002 33.3 50.6002C33.3 50.4002 33.3 50.1002 33.3 49.9002C33.3 49.8002 33.3 49.7002 33.3 49.7002C33.2 49.4002 33.1 49.1002 33.1 48.8002C33.1 48.7002 33.1 48.6002 33.1 48.6002C33 48.5002 33 48.5002 32.9 48.4002C32.6 48.4002 32.2 48.4002 31.9 48.4002C31.5 48.4002 31.1 48.4002 30.6 48.4002C29.8 48.4002 29.1 48.4002 28.3 48.5002C26.7 48.7002 25.1 49.0002 23.5 49.3002C23.1 49.4002 22.8 49.6002 22.4 49.6002C21 49.6002 19.7 49.4002 18.3 49.4002C17.6 49.4002 16.8 49.6002 16.1 49.7002C16.1 49.6002 16.1 49.5002 16 49.4002C15.5 49.7002 15 50.1002 14.5 50.4002C14.7 51.3002 15 52.1002 15.2 53.0002C15.4 53.9002 15.7 54.8002 15.9 55.6002C15.9 56.0002 15.9 56.4002 16 56.7002C16.5 57.9002 17 59.1002 17.6 60.3002C17.7 60.6002 18 60.7002 18.3 60.9002C18.5 61.7002 18.7 62.5002 18.9 63.3002C18.9 63.4002 18.9 63.4002 18.9 63.5002C18.3 62.9002 17.7 62.3002 17.2 61.6002C16.8 61.0002 16.6 60.3002 16.2 59.6002C16 58.8002 15.8 57.9002 15.4 57.2002C15.6 56.2002 15.1 55.8002 14.8 55.4002ZM18 22.1002C17.9 22.3002 17.8 22.4002 17.8 22.6002C17.3 23.5002 16.7 24.3002 16.4 25.3002C15.8 26.9002 15.5 28.6002 15 30.2002C15 30.3002 15 30.5002 15 30.6002H14.9C14.8 30.8002 14.7 31.1002 14.6 31.3002C14.4 32.5002 14.1 33.8002 13.9 35.0002C13.9 35.6002 13.9 36.2002 13.8 36.9002C13 38.5002 13.3 40.2002 13.6 41.8002C13.8 43.4002 13.9 45.0002 14.1 46.6002C14.1 46.9002 14.1 47.7002 14.9 47.2002C16.3 47.0002 17.8 46.9002 19.2 46.7002C19.4 46.7002 19.6 46.8002 19.9 46.8002C21.3 46.5002 22.8 46.3002 24.2 45.9002C24.7 45.8002 25.1 45.4002 25.6 45.1002C26.9 45.0002 28.3 45.0002 29.6 44.9002C30.6 44.9002 31.6 44.8002 32.6 44.7002C32.8 44.4002 33.1 44.1002 33.1 43.9002C33 41.7002 32.8 39.5002 32.6 37.3002C32.5 36.5002 32.4 35.7002 32.4 34.9002C32.4 34.5002 32.4 34.1002 32.4 33.7002C32.4 31.1002 32.4 28.4002 32.4 25.8002C32.4 25.6002 32.6 25.4002 32.6 25.1002C32.9 23.7002 33.2 22.4002 33.5 21.0002C33.8 19.7002 34.1 18.5002 34.4 17.2002C34.6 16.3002 34.3 15.8002 33.3 15.8002C32.8 15.3002 30.4 15.0002 29.5 15.4002C29.1 15.3002 28.7 15.2002 28.2 15.3002C27.7 15.3002 27.2 15.4002 26.8 15.5002C26.3 15.6002 25.8 15.8002 25.3 15.9002C24.7 15.6002 24 15.3002 23.4 15.0002C23.1 15.1002 22.8 15.1002 22.6 15.2002C21.3 16.1002 20.4 17.2002 20.1 18.8002C20 18.9002 19.8 19.1002 19.7 19.2002C19.3 19.8002 18.9 20.4002 18.5 21.1002C18.3 21.4002 18.1 21.8002 18 22.1002ZM25.8 12.2002C25 12.2002 25.1 12.6002 25.3 13.1002C25.8 13.3002 26.2 13.5002 26.7 13.5002C29.1 13.7002 31.5 14.3002 34 13.8002C34.2 13.7002 34.5 13.8002 34.7 13.9002C35.9 14.2002 36.5 13.4002 36.2 12.2002C36.6 11.4002 36.9 10.5002 37.4 9.7002C37.9 8.7002 38.6 7.8002 39.1 6.8002C39.2 6.6002 38.9 6.2002 38.8 5.9002C39.3 5.4002 39.8 5.0002 40.2 4.5002C40.1 4.3002 40 4.2002 39.9 4.0002C39 4.5002 38.1 5.1002 37.1 5.6002C36.7 5.8002 36.3 5.9002 35.9 6.1002C34.8 6.6002 33.7 7.0002 32.6 7.5002C32.4 7.5002 32.1 7.4002 32 7.5002C31 8.3002 30.1 9.1002 29.1 9.8002C28.6 10.0002 28.1 10.2002 27.7 10.5002C26.9 11.1002 26.4 11.7002 25.8 12.2002C25.7 12.2002 25.8 12.2002 25.8 12.2002ZM61.4 12.9002C62.5 12.4002 63.6 12.0002 64.7 11.5002C65 11.4002 65.4 11.3002 65.7 11.2002C67.1 11.5002 68 10.6002 69 9.8002C69.1 9.7002 69.3 9.6002 69.4 9.5002C70.5 9.2002 69.9 8.60019 69.5 8.2002C69 7.8002 68.4 7.7002 67.8 7.4002C67.7 7.3002 67.6 7.2002 67.6 7.2002C67.4 7.0002 67.1 6.7002 66.9 6.5002C66.8 6.4002 66.8 6.1002 66.7 6.1002C64.9 5.4002 63 4.8002 61.2 4.2002C59.1 3.7002 57 3.3002 54.7 4.2002C55.1 4.4002 55.4 4.6002 55.7 4.9002C56.1 5.2002 56.4 5.5002 56.8 5.9002C57.1 6.6002 57.4 7.3002 57.7 8.0002C57.3 7.9002 57 7.7002 56.6 7.6002C56.3 7.3002 56.1 7.1002 55.8 6.8002C55.7 6.7002 55.7 6.7002 55.6 6.6002C55 6.2002 54.5 5.8002 53.9 5.4002C53.1 3.9002 50.4 3.1002 48.5 3.7002C48.1 3.7002 47.6 3.6002 47.2 3.7002C46.1 4.0002 45.1 4.3002 44 4.6002C43.5 4.9002 43 5.1002 42.6 5.5002C41 6.8002 40 8.5002 39.2 10.3002C38.7 11.2002 38.2 12.1002 37.8 13.0002C37.7 13.1002 38.1 13.6002 38.4 13.7002C38.9 13.8002 39.4 13.8002 39.9 13.8002C41 13.7002 42.1 13.7002 43.2 13.6002C43.4 13.7002 43.5 13.8002 43.7 13.8002C43.9 13.8002 44.1 13.9002 44.3 13.9002C45.4 13.7002 46.6 14.6002 47.5 13.4002C48.5 13.2002 49.4 13.1002 50.4 12.8002C51 12.6002 51.4 12.6002 51.7 13.3002C51.8 13.5002 52.3 13.6002 52.6 13.8002C53.4 13.7002 54.3 13.3002 55.1 13.4002C57 13.6002 58.9 13.8002 60.8 13.1002C60.9 13.0002 61.1 12.9002 61.4 12.9002Z" fill="white"/>
<path d="M147.8 59.6004C146.1 59.6004 144.4 59.7004 142.7 59.7004C142.3 59.7004 141.9 59.3004 141.4 59.0004C141.8 58.7004 142.2 58.2004 142.6 58.2004C144.7 57.9004 145.1 57.4004 144.6 55.4004C143.9 52.6004 143.2 49.8004 142.4 47.0004C141.8 44.9004 141.7 44.8004 139.6 44.8004C137.4 44.8004 135.3 44.8004 133.1 44.8004C132.3 44.8004 131.7 45.1004 131.6 45.8004C130.7 49.2004 129.9 52.7004 129.1 56.1004C128.9 57.0004 129.6 57.6004 130.5 57.9004C131.1 58.1004 131.8 58.0004 132.3 58.2004C132.6 58.3004 132.9 58.8004 133.1 59.1004C132.8 59.3004 132.4 59.7004 132.1 59.7004C130.5 59.7004 128.8 59.6004 127.2 59.5004C126.2 59.5004 125.3 59.6004 124.3 59.6004C124 59.6004 123.5 59.3004 123.5 59.1004C123.5 58.8004 123.8 58.2004 124 58.2004C125.8 57.9004 126.2 56.4004 126.6 55.0004C129 45.9004 131.5 36.9004 134 27.8004C134.9 24.6004 135.7 21.5004 136.6 18.3004C136.8 17.8004 137.4 17.4004 137.8 16.9004C138.1 17.4004 138.7 17.8004 138.8 18.3004C141.6 28.2004 144.4 38.2004 147.2 48.2004C147.4 48.8004 147.7 49.4004 147.9 50.0004C147.8 53.2004 147.8 56.4004 147.8 59.6004ZM136.8 43.1004C137.9 43.1004 139 43.1004 140.1 43.1004C141 43.1004 141.2 42.7004 141 41.9004C140.2 39.2004 139.5 36.4004 138.7 33.7004C138.3 32.0004 137.9 30.4004 137.4 28.7004C137.3 28.3004 136.9 28.0004 136.6 27.7004C136.4 28.0004 136 28.3004 135.9 28.7004C134.8 33.2004 133.7 37.6004 132.5 42.1004C132.3 42.8004 132.5 43.2004 133.3 43.2004C134.5 43.1004 135.6 43.1004 136.8 43.1004Z" fill="white"/>
<path d="M53.2 83.2998C53 83.0998 52.9 82.9998 52.7 82.7998C52.6 82.4998 52.5 82.1998 52.5 81.8998C54.1 82.3998 55.7 82.7998 57.4 82.0998C58.5 82.4998 59.3 81.8998 60 81.1998C60.1 81.0998 60.2 80.9998 60.2 80.9998C60.6 80.7998 61 80.4998 61.4 80.2998C62 80.2998 62.7 80.2998 63.3 80.2998C63.4 80.3998 63.4 80.4998 63.5 80.5998C61.9 81.4998 60.4 82.4998 58.8 83.3998C56.9 83.2998 55.1 83.2998 53.2 83.2998Z" fill="white"/>
<path d="M80.9002 18.7999C82.0002 18.2999 83.1002 17.7999 84.3002 17.2999C87.5002 16.5999 90.6002 16.7999 93.6002 17.8999C95.5002 18.5999 95.7002 18.8999 95.7002 20.8999C95.7002 23.0999 95.7002 25.3999 95.7002 27.5999C95.7002 27.9999 95.4002 28.6999 95.1002 28.7999C94.3002 28.9999 94.3002 28.2999 94.1002 27.6999C93.4002 25.6999 92.8002 23.4999 91.8002 21.5999C90.4002 18.8999 87.8002 17.9999 85.2002 18.8999C84.9002 18.9999 84.5002 19.1999 84.2002 19.2999C83.5002 19.8999 82.9002 20.3999 82.2002 20.9999C81.2002 22.2999 80.8002 23.7999 80.9002 25.3999C81.1002 28.4999 82.6002 30.8999 85.0002 32.6999C86.0002 33.3999 87.0002 34.0999 88.0002 34.7999V34.8999C88.4002 36.2999 89.5002 36.8999 90.7002 36.3999C93.0002 37.8999 95.2002 39.3999 96.7002 41.6999C100.1 46.9999 98.7002 57.5999 89.5002 59.8999C89.1002 59.9999 88.8002 60.1999 88.5002 60.3999C87.4002 60.3999 86.2002 60.3999 85.1002 60.3999C83.0002 59.9999 80.8002 59.6999 78.7002 59.1999C77.8002 58.9999 77.0002 58.3999 76.9002 57.3999C76.8002 54.1999 76.7002 50.9999 76.7002 47.7999C76.7002 47.2999 76.8002 46.6999 77.6002 46.6999C78.4002 46.6999 78.4002 47.1999 78.5002 47.7999C79.3002 50.1999 80.0002 52.6999 81.1002 54.9999C82.0002 56.8999 83.5002 58.4999 86.0002 58.3999C86.9002 58.3999 87.7002 58.3999 88.6002 58.2999C90.8002 57.8999 92.3002 56.3999 93.2002 54.4999C95.1002 50.3999 94.7002 46.5999 91.6002 43.0999C91.4002 42.8999 91.1002 42.6999 90.9002 42.3999C90.7002 42.1999 90.5002 42.0999 90.2002 41.8999C89.9002 41.5999 89.5002 41.2999 89.2002 40.9999C88.6002 40.4999 88.0002 39.9999 87.3002 39.5999C85.7002 38.4999 84.1002 37.4999 82.5002 36.3999C80.4002 34.8999 78.5002 33.1999 77.6002 30.6999C75.9002 26.1999 76.8002 22.3999 80.3002 19.0999C80.4002 19.2999 80.7002 19.0999 80.9002 18.7999Z" fill="white"/>
<path d="M114.9 55.2002C115.1 57.2002 116.3 58.1002 118.2 58.2002C118.8 58.2002 119.9 58.1002 119.8 59.1002C119.7 60.2002 118.7 59.8002 118 59.8002C114.3 59.8002 110.7 59.8002 107 59.8002C106.6 59.8002 105.9 59.5002 105.8 59.1002C105.6 58.3002 106.3 58.2002 106.9 58.1002C107.2 58.0002 107.6 58.0002 107.9 58.0002C109.9 57.8002 110 57.7002 110.5 55.8002C110.6 55.5002 110.9 55.1002 110.9 54.8002C110.9 43.6002 110.9 32.4002 110.9 21.2002C110.9 20.9002 110.6 20.6002 110.5 20.3002C108.3 19.3002 104.8 19.6002 103.4 21.7002C102.5 23.1002 101.8 24.6002 101.1 26.1002C100.7 26.9002 100.5 27.7002 100.1 28.5002C99.9996 28.8002 99.4996 29.0002 99.1996 29.2002C98.9996 28.9002 98.5996 28.5002 98.5996 28.2002C98.5996 26.9002 98.6996 25.5002 98.8996 24.2002C99.1996 22.0002 99.5996 19.7002 100.1 17.5002C100.2 17.0002 100.6 16.6002 100.9 16.2002C101.3 16.5002 101.7 16.7002 102 17.1002C102.4 17.8002 103 18.0002 103.7 18.0002C110.1 18.0002 116.5 18.0002 122.8 18.0002C123.9 18.0002 124.9 17.7002 125.5 16.7002C125.7 16.4002 126.2 16.2002 126.6 16.3002C126.8 16.3002 127.2 16.9002 127.1 17.2002C126.9 20.8002 126.6 24.4002 126.3 28.1002C126.3 28.5002 125.8 28.8002 125.5 29.2002C125.2 28.8002 124.8 28.5002 124.7 28.0002C124.3 26.7002 124.2 25.4002 123.8 24.1002C122.9 21.0002 121.2 19.7002 118 19.7002C117.5 19.7002 116.9 19.7002 116.4 19.7002C115.4 19.7002 114.8 20.0002 114.9 21.1002C114.8 21.4002 114.5 21.7002 114.5 22.0002C114.5 32.7002 114.5 43.4002 114.5 54.2002C114.5 54.5002 114.7 54.9002 114.9 55.2002Z" fill="white"/>
<path d="M84.7998 60.6006C85.8998 60.6006 87.0998 60.6006 88.1998 60.6006C87.7998 61.5006 87.4998 62.3006 87.0998 63.2006C86.9998 63.4006 86.4998 63.4006 86.3998 63.5006C85.7998 64.4006 85.2998 65.2006 84.7998 66.0006C84.5998 66.3006 84.3998 66.6006 84.1998 66.8006C83.6998 67.4006 83.1998 68.2006 82.4998 68.6006C81.7998 69.0006 81.6998 69.3006 81.9998 69.9006C82.5998 70.1006 83.1998 70.3006 83.9998 70.6006C82.7998 70.7006 81.7998 70.7006 80.8998 70.8006C79.8998 70.9006 78.7998 71.9006 78.6998 72.9006C77.9998 73.4006 77.2998 73.9006 76.4998 74.4006C75.0998 75.4006 73.6998 76.4006 72.2998 77.4006C71.8998 77.3006 71.5998 77.2006 71.2998 77.1006C71.7998 76.5006 72.2998 76.0006 72.7998 75.5006C72.8998 75.4006 72.9998 75.4006 73.0998 75.3006C73.2998 75.1006 73.4998 75.0006 73.7998 74.8006C73.9998 74.7006 74.0998 74.6006 74.2998 74.5006C75.1998 73.7006 75.9998 72.9006 76.8998 72.2006C77.0998 72.0006 77.3998 71.7006 77.5998 71.5006C77.6998 71.5006 77.7998 71.4006 77.8998 71.4006C77.7998 71.4006 77.7998 71.3006 77.6998 71.3006C77.2998 71.2006 76.7998 71.0006 76.3998 71.0006C73.5998 71.1006 70.8998 71.3006 68.0998 71.5006C67.6998 71.5006 67.3998 71.5006 66.9998 71.5006C66.4998 71.1006 66.0998 71.2006 65.7998 71.8006C65.6998 71.8006 65.5998 71.8006 65.5998 71.7006C65.2998 71.7006 64.9998 71.7006 64.6998 71.7006C64.5998 71.7006 64.4998 71.7006 64.4998 71.8006C63.6998 71.8006 62.9998 71.8006 62.1998 71.7006C60.4998 71.8006 58.6998 71.8006 56.9998 71.9006C56.0998 72.0006 55.2998 72.1006 54.3998 72.2006C53.0998 72.5006 51.6998 72.8006 50.3998 73.1006C48.3998 73.4006 46.3998 73.7006 44.3998 74.0006C44.0998 75.1006 44.8998 75.7006 45.4998 76.4006C45.4998 76.7006 45.3998 77.0006 45.3998 77.2006C44.9998 77.0006 44.6998 76.8006 44.2998 76.6006C44.0998 76.4006 43.9998 76.1006 43.7998 75.9006C43.2998 75.5006 42.8998 75.1006 42.3998 74.8006C42.1998 74.7006 41.8998 74.7006 41.6998 74.7006C40.9998 74.9006 40.2998 75.0006 39.6998 75.3006C38.5998 75.8006 37.4998 76.5006 36.2998 77.1006C36.0998 77.2006 35.9998 77.3006 35.7998 77.4006C35.5998 77.6006 35.1998 78.0006 35.0998 77.9006C34.0998 77.5006 33.1998 78.0006 32.2998 78.4006L32.1998 78.5006C31.8998 78.6006 31.5998 78.6006 31.2998 78.7006C30.6998 78.9006 30.1998 79.0006 29.5998 79.2006C29.1998 79.1006 28.7998 79.0006 28.2998 78.8006C28.3998 78.6006 28.4998 78.4006 28.5998 78.2006C29.6998 77.6006 30.7998 76.9006 31.8998 76.3006C32.6998 75.9006 33.4998 75.5006 34.3998 75.2006C36.0998 75.6006 37.3998 74.3006 38.8998 73.8006C39.5998 73.6006 40.1998 72.8006 40.7998 72.2006C40.9998 72.0006 41.2998 71.7006 41.4998 71.5006C41.6998 71.7006 41.9998 71.8006 42.1998 72.0006C42.9998 72.5006 43.5998 72.4006 44.2998 71.8006C44.7998 71.4006 45.4998 71.1006 46.1998 70.9006C47.0998 70.6006 48.0998 70.4006 49.0998 70.2006C49.5998 70.1006 50.0998 70.1006 50.5998 70.0006C52.4998 69.9006 54.3998 70.3006 56.0998 69.0006C56.8998 68.4006 58.1998 68.4006 58.9998 68.2006C59.2998 68.9006 59.3998 69.3006 59.6998 69.6006C59.7998 69.7006 60.2998 69.5006 60.5998 69.5006C62.0998 69.6006 63.6998 69.8006 65.1998 69.9006C66.0998 70.0006 67.0998 70.3006 67.8998 69.5006C68.0998 69.6006 68.1998 69.7006 68.3998 69.7006C68.8998 69.9006 69.4998 70.1006 69.9998 70.1006C70.9998 70.1006 72.0998 69.6006 72.8998 69.9006C74.3998 70.5006 75.6998 69.6006 76.9998 69.7006C78.3998 69.9006 79.7998 69.8006 80.2998 68.1006C80.3998 68.0006 80.3998 67.9006 80.4998 67.8006C81.6998 67.4006 82.8998 65.8006 82.8998 64.5006C83.5998 63.1006 84.1998 61.8006 84.7998 60.6006Z" fill="white"/>
<path d="M82.0996 21.1004C82.7996 20.5004 83.3996 20.0004 84.0996 19.4004C84.4996 19.8004 84.9996 20.2004 85.2996 20.7004C85.6996 21.3004 86.0996 21.9004 86.4996 22.5004C86.4996 22.7004 86.4996 22.9004 86.4996 23.1004C87.2996 25.4004 88.1996 27.7004 88.9996 30.1004C90.2996 32.0004 90.4996 34.1004 90.3996 36.3004C89.5996 35.9004 88.6996 35.5004 87.8996 35.1004V35.0004C87.3996 32.7004 86.7996 30.4004 86.2996 28.0004C86.2996 27.7004 86.3996 27.5004 86.1996 27.3004C85.5996 26.2004 84.9996 25.1004 84.2996 24.0004C84.1996 23.8004 83.8996 23.8004 83.6996 23.6004C83.1996 22.7004 82.6996 21.9004 82.0996 21.1004Z" fill="white"/>
<path d="M110.5 20.2002C110.6 20.5002 110.9 20.8002 110.9 21.1002C110.9 32.3002 110.9 43.5002 110.9 54.7002C110.9 55.0002 110.6 55.4002 110.5 55.7002C110.5 54.1002 110.5 52.4002 110.5 50.8002C110.5 40.6002 110.5 30.4002 110.5 20.2002Z" fill="white"/>
<path d="M114.9 55.2002C114.8 54.9002 114.5 54.6002 114.5 54.3002C114.5 43.6002 114.5 32.9002 114.5 22.1002C114.5 21.8002 114.8 21.5002 114.9 21.2002C114.9 23.7002 114.9 26.1002 114.9 28.6002C114.9 37.4002 114.9 46.3002 114.9 55.2002Z" fill="white"/>
<path d="M72.8998 75.2998C72.3998 75.7998 71.9998 76.2998 71.3998 76.8998C71.6998 76.9998 72.0998 77.0998 72.3998 77.1998C72.3998 77.2998 72.3998 77.2998 72.3998 77.3998C71.3998 77.8998 70.2998 78.1998 69.3998 78.8998C68.0998 79.8998 66.5998 80.0998 65.1998 80.4998C64.6998 80.5998 64.0998 80.4998 63.4998 80.5998C63.3998 80.4998 63.3998 80.3998 63.2998 80.2998C63.4998 80.0998 63.5998 79.9998 63.7998 79.7998C64.4998 79.5998 65.2998 79.4998 65.8998 79.1998C68.1998 77.9998 70.4998 76.5998 72.8998 75.2998Z" fill="white"/>
<path d="M78.7998 72.7002C78.8998 71.7002 79.9998 70.7002 80.9998 70.6002C81.9998 70.5002 82.8998 70.5002 84.0998 70.4002C83.2998 70.1002 82.6998 69.9002 82.0998 69.7002C83.1998 69.9002 84.2998 70.1002 85.3998 70.3002C85.3998 70.4002 85.3998 70.4002 85.3998 70.5002C85.0998 70.6002 84.7998 70.8002 84.4998 70.8002C83.9998 70.9002 83.4998 70.9002 82.9998 70.8002C81.4998 70.6002 80.1998 70.9002 79.3998 72.3002C79.2998 72.5002 78.9998 72.6002 78.7998 72.7002Z" fill="white"/>
<path d="M74.2 7.9002C73.8 7.8002 73.4 7.7002 73 7.5002C71.1 6.4002 69.1 5.2002 67.2 4.1002C67.1 4.0002 67.1 3.8002 67 3.7002C67.2 3.7002 67.3 3.7002 67.5 3.7002C69.9 4.9002 72.3 6.0002 74.2 7.9002Z" fill="white"/>
<path d="M80.6 13.1004C80.5 13.1004 80.3 13.1004 80.2 13.0004C78.8 11.4004 77.1 10.3004 75.3 9.10039C75.1 9.00039 75.1 8.60039 75 8.40039C77.1 9.70039 79.4 10.8004 80.6 13.1004Z" fill="white"/>
<path d="M89.1001 30.0004C88.3001 27.7004 87.4001 25.4004 86.6001 23.0004C86.5001 22.8004 86.6001 22.6004 86.6001 22.4004C87.9001 24.9004 88.9001 27.3004 89.1001 30.0004Z" fill="white"/>
<path d="M72.4004 77.4002C72.4004 77.3002 72.4004 77.3002 72.4004 77.2002C73.8004 76.2002 75.2004 75.2002 76.6004 74.2002C75.7004 75.9002 73.9004 76.5002 72.4004 77.4002Z" fill="white"/>
<path d="M86.6002 22.5C86.2002 21.9 85.9002 21.3 85.4002 20.7C85.0002 20.2 84.6002 19.8 84.2002 19.4C84.5002 19.3 84.9002 19.1 85.2002 19C85.6002 20.2 86.1002 21.3 86.6002 22.5Z" fill="white"/>
<path d="M87.9004 35C88.7004 35.4 89.6004 35.8 90.4004 36.2C90.4004 36.3 90.5004 36.4 90.5004 36.5C89.4004 37.1 88.3004 36.4 87.9004 35Z" fill="white"/>
<path d="M64.6 2.6C64.8 2.7 65 2.9 65.1 3C63.9 3.2 63 2.7 62 2.1C62.2 2.1 62.5 2 62.7 2C62.8 2 63 2.1 63.1 2.1C63.3 2.2 63.4 2.2 63.6 2.3C63.6 2.3 63.7 2.4 63.8 2.4C63.9 2.4 64 2.5 64.1 2.5C64.4 2.6 64.5 2.6 64.6 2.6Z" fill="white"/>
<path d="M63.7998 2.30059C63.5998 2.20059 63.4998 2.20059 63.2998 2.10059C63.3998 2.20059 63.5998 2.30059 63.7998 2.30059Z" fill="white"/>
<path d="M64.2004 2.50039C64.1004 2.50039 64.0004 2.40039 63.9004 2.40039C64.0004 2.40039 64.1004 2.50039 64.2004 2.50039Z" fill="white"/>
<path d="M17.5002 20.2002C16.8002 21.9002 16.1002 23.6002 15.3002 25.2002C15.2002 25.5002 15.0002 25.8002 14.9002 26.1002C14.3002 28.2002 13.8002 30.2002 13.2002 32.3002C13.2002 32.0002 13.2002 31.7002 13.2002 31.4002C13.7002 29.2002 14.1002 27.0002 14.9002 24.9002C15.6002 23.3002 16.7002 21.8002 17.5002 20.2002Z" fill="white"/>
<path d="M22.9002 12.9C22.0002 13 21.2002 13.1 20.3002 13.1C19.8002 13.1 19.3002 13.1 18.8002 13.4C19.3002 13.6 19.8002 13.7 20.3002 13.9C21.2002 14.3 21.3002 14.8 20.4002 15.4C20.4002 14.5 20.0002 14.2 19.1002 14C18.4002 13.9 17.9002 13.3 17.2002 12.9C17.3002 12.8 17.3002 12.6 17.4002 12.5C19.2002 12.6 20.9002 12.7 22.7002 12.8C22.7002 12.9 22.8002 12.9 22.9002 12.9C22.8002 12.9 22.9002 12.9 22.9002 12.9Z" fill="white"/>
<path d="M13.3003 31.5C13.3003 31.8 13.3003 32.1 13.3003 32.4C13.1003 35.5 12.8003 38.7 12.6003 41.8C12.5003 40.8 12.3003 39.7 12.4003 38.7C12.6003 36.3 13.0003 33.9 13.3003 31.5Z" fill="white"/>
<path d="M12.6 45.2998C13.3 46.0998 13.2 47.6998 12.5 48.4998C10.9 48.5998 9.5 48.6998 8 48.7998C9.5 48.3998 11.1 48.0998 12.7 47.6998C12.7 46.9998 12.7 46.0998 12.6 45.2998Z" fill="white"/>
<path d="M33.4998 4.6998C32.0998 5.4998 30.7998 6.3998 29.3998 7.1998C29.0998 7.3998 28.6998 7.3998 28.2998 7.4998C29.9998 6.3998 31.6998 5.3998 33.3998 4.2998C33.3998 4.4998 33.4998 4.5998 33.4998 4.6998Z" fill="white"/>
<path d="M22.9002 12.9004C22.9002 12.9004 22.8002 12.9004 22.9002 12.9004C22.8002 12.9004 22.7002 12.9004 22.7002 12.9004C24.0002 11.6004 25.3002 10.2004 26.7002 8.90039C25.4002 10.3004 24.2002 11.6004 22.9002 12.9004Z" fill="white"/>
<path d="M33.5 4.6998C33.5 4.5998 33.5 4.4998 33.5 4.2998C34.7 3.7998 35.9 3.1998 37 2.6998C37.1 2.6998 37.2 2.5998 37.3 2.5998C37.4 2.5998 37.4 2.5998 37.5 2.4998C37.9 2.3998 38.3 2.2998 38.7 2.2998C38.1 2.5998 37.4 2.8998 36.8 3.1998C35.6 3.6998 34.6 4.1998 33.5 4.6998Z" fill="white"/>
<path d="M7 48.9004C6.7 49.1004 6.4 49.3004 6 49.4004C4.7 49.7004 3.3 49.9004 2 50.2004C3.6 49.8004 5.3 49.3004 7 48.9004Z" fill="white"/>
<path d="M44.5002 0.600391C45.5002 0.500391 46.6002 0.500391 47.6002 0.400391C46.1002 0.700391 44.5002 1.10039 43.0002 1.40039C42.4002 1.50039 41.8002 1.50039 41.2002 1.60039C41.5002 1.50039 41.7002 1.30039 42.0002 1.20039C42.1002 1.20039 42.1002 1.20039 42.2002 1.20039C42.8002 1.10039 43.5002 0.900391 44.1002 0.800391C44.2002 0.700391 44.3002 0.700391 44.5002 0.600391Z" fill="white"/>
<path d="M41.8996 1.2002C41.5996 1.3002 41.3996 1.5002 41.0996 1.6002C40.2996 1.8002 39.3996 1.9002 38.5996 2.1002C39.6996 1.8002 40.7996 1.5002 41.8996 1.2002Z" fill="white"/>
<path d="M28.1002 7.7002C27.6002 8.1002 27.2002 8.5002 26.7002 8.9002C27.1002 8.5002 27.6002 8.1002 28.1002 7.7002Z" fill="white"/>
<path d="M44.1002 0.700195C43.5002 0.800195 42.8002 1.0002 42.2002 1.1002C42.8002 1.0002 43.4002 0.900195 44.1002 0.700195Z" fill="white"/>
<path d="M38.6004 2.30059C38.2004 2.40059 37.8004 2.50059 37.4004 2.50059C37.8004 2.40059 38.2004 2.20059 38.6004 2.10059C38.6004 2.20059 38.6004 2.20059 38.6004 2.30059Z" fill="white"/>
<path d="M28.2996 7.5C28.1996 7.6 28.0996 7.7 28.0996 7.7C28.0996 7.7 28.1996 7.6 28.2996 7.5Z" fill="white"/>
<path d="M37.2004 2.60059C37.1004 2.60059 37.0004 2.70059 36.9004 2.70059C37.1004 2.70059 37.1004 2.60059 37.2004 2.60059Z" fill="white"/>
<path d="M19.1996 63.1004C19.1996 63.0004 19.1996 63.0004 19.1996 62.9004C19.4996 63.2004 19.9996 63.4004 20.1996 63.7004C20.8996 64.6004 21.3996 65.6004 22.1996 66.4004C24.2996 68.6004 26.3996 70.7004 28.4996 72.9004C27.9996 72.6004 27.3996 72.4004 26.8996 72.0004C26.2996 71.6004 26.2996 71.9004 26.2996 72.4004C23.5996 70.0004 21.2996 67.2004 19.3996 64.2004C19.0996 64.0004 19.1996 63.5004 19.1996 63.1004Z" fill="white"/>
<path d="M52.5 82.0006C52.6 82.3006 52.7 82.6006 52.7 82.9006C51.7 82.7006 50.7 82.5006 49.7 82.3006C49.4 81.8006 49 81.3006 48.7 80.8006C48.5 80.6006 48.3 80.5006 48 80.3006C47.8 79.9006 47.7 79.5006 47.5 79.1006C47.8 79.2006 48.1 79.2006 48.5 79.3006C48.6 79.4006 48.6 79.4006 48.7 79.5006C48.9 79.6006 49 79.7006 49.2 79.8006C49.4 80.0006 49.7 80.1006 49.9 80.3006C50.1 80.5006 50.4 80.6006 50.6 80.8006C50.6 80.7006 50.7 80.5006 50.7 80.4006C51 80.4006 51.2 80.4006 51.5 80.4006C51.6 80.4006 51.6 80.4006 51.7 80.4006C51.8 80.4006 51.8 80.5006 51.9 80.5006C52.1 80.6006 52.3 80.8006 52.5 80.9006C52.5 81.0006 52.5 81.2006 52.5 81.3006C52.2 81.3006 52 81.3006 51.4 81.2006C51.9 81.5006 52.2 81.7006 52.5 82.0006Z" fill="white"/>
<path d="M26.2002 72.5004C26.2002 72.0004 26.3002 71.7004 26.8002 72.1004C27.3002 72.5004 27.9002 72.7004 28.4002 73.0004C29.1002 73.6004 29.9002 74.2004 30.6002 74.9004C30.5002 75.1004 30.4002 75.4004 30.3002 75.6004C29.0002 74.5004 27.6002 73.5004 26.2002 72.5004Z" fill="white"/>
<path d="M47.5002 79.0998C47.7002 79.4998 47.8002 79.8998 48.0002 80.2998C46.7002 79.0998 45.5002 77.7998 44.2002 76.5998C44.5002 76.7998 44.8002 76.8998 45.3002 77.1998C45.3002 76.8998 45.4002 76.6998 45.4002 76.3998L45.5002 76.2998C45.6002 76.2998 45.6002 76.2998 45.7002 76.2998C45.8002 76.3998 45.8002 76.4998 45.9002 76.5998C46.0002 76.6998 46.0002 76.7998 46.1002 76.8998C46.4002 77.3998 46.8002 77.7998 47.1002 78.2998C46.9002 78.2998 46.8002 78.2998 46.6002 78.2998C46.6002 78.2998 46.5002 78.2998 46.5002 78.1998C46.5002 78.1998 46.6002 78.1998 46.6002 78.2998C46.8002 78.4998 46.9002 78.5998 47.1002 78.7998C47.2002 78.7998 47.4002 78.8998 47.5002 79.0998Z" fill="white"/>
<path d="M28.8004 78.2C28.7004 78.4 28.6004 78.6 28.5004 78.8C28.9004 78.9 29.4004 79 29.8004 79.2C28.9004 80.4 27.6004 79.6 26.4004 80C26.9004 79 27.9004 78.5 28.8004 78C28.8004 78 28.8004 78.1 28.8004 78.2Z" fill="white"/>
<path d="M28.7998 78.2004C28.7998 78.1004 28.7998 78.0004 28.7998 78.0004C29.4998 77.5004 30.2998 77.1004 31.0998 76.5004C30.7998 76.2004 30.5998 75.9004 30.3998 75.6004C30.4998 75.4004 30.5998 75.1004 30.6998 74.9004C31.1998 75.4004 31.5998 75.8004 32.0998 76.3004C30.9998 76.9004 29.8998 77.5004 28.7998 78.2004Z" fill="white"/>
<path d="M32.2998 78.3C33.1998 77.9 33.9998 77.4 35.0998 77.8C35.1998 77.9 35.5998 77.4 35.7998 77.3C35.9998 77.2 36.0998 77.1 36.2998 77C36.1998 78.2 35.8998 78.4 34.7998 78.3C33.9998 78.2 33.0998 78.3 32.2998 78.3Z" fill="white"/>
<path d="M14.7998 55.4004C15.0998 55.8004 15.5998 56.3004 15.7998 56.8004C16.0998 57.6004 16.2998 58.4004 16.5998 59.2004C15.9998 57.9004 15.3998 56.7004 14.7998 55.4004Z" fill="white"/>
<path d="M31.4004 78.6004C31.7004 78.5004 32.0004 78.5004 32.3004 78.4004C32.0004 78.5004 31.7004 78.5004 31.4004 78.6004Z" fill="white"/>
<path d="M43.7998 75.7998C43.9998 75.9998 44.0998 76.2998 44.2998 76.4998C44.0998 76.2998 43.8998 76.0998 43.7998 75.7998Z" fill="white"/>
<path d="M48 80.2998C48.2 80.4998 48.4 80.5998 48.7 80.7998C48.5 80.5998 48.3 80.3998 48 80.2998Z" fill="white"/>
<path d="M55.6002 43.8003C54.7002 47.6003 53.8002 51.3003 52.9002 55.1003C52.4002 57.5003 52.8002 58.0003 55.1002 58.4003C55.7002 58.5003 56.8002 58.4003 56.6002 59.4003C56.5002 60.4003 55.5002 60.0003 54.9002 60.1003C52.6002 60.1003 50.3002 60.1003 48.0002 60.1003C47.7002 60.1003 47.1002 59.8003 47.0002 59.6003C46.9002 59.3003 47.3002 58.7003 47.5002 58.6003C49.1002 58.3003 49.6002 57.1003 50.0002 55.7003C51.0002 52.1003 52.1002 48.5003 53.1002 44.9003C53.7002 44.5003 54.3002 44.1003 54.9002 43.8003C55.2002 43.7003 55.4002 43.8003 55.6002 43.8003Z" fill="white"/>
<path d="M36.5998 19.5002C36.4998 19.6002 36.3998 19.8002 36.2998 19.9002C36.1998 21.3002 36.1998 22.7002 36.0998 24.2002C36.0998 24.3002 36.0998 24.3002 36.0998 24.4002C35.9998 24.8002 35.9998 25.2002 35.8998 25.6002C35.8998 26.2002 35.8998 26.8002 35.7998 27.5002C35.6998 27.7002 35.6998 27.8002 35.5998 28.0002C35.5998 29.8002 35.5998 31.6002 35.5998 33.4002C35.5998 33.5002 35.4998 33.6002 35.4998 33.6002C35.3998 33.6002 35.3998 33.6002 35.2998 33.6002C35.2998 31.6002 35.2998 29.7002 35.2998 27.7002C35.2998 23.8002 35.4998 20.0002 36.9998 16.3002C38.2998 17.1002 39.6998 16.6002 40.9998 16.6002C41.5998 16.6002 42.1998 16.4002 42.7998 16.4002C46.2998 16.3002 49.7998 16.3002 53.2998 16.1002C54.1998 16.1002 54.9998 15.7002 55.8998 15.5002C56.7998 15.3002 57.6998 15.3002 58.5998 15.2002C55.3998 16.4002 52.0998 16.6002 48.7998 16.6002C46.5998 16.6002 44.2998 16.8002 42.0998 16.9002C41.4998 16.9002 40.7998 17.2002 40.1998 17.3002C39.7998 17.3002 39.3998 17.4002 38.9998 17.4002C38.7998 17.4002 38.6998 17.4002 38.4998 17.3002C38.3998 17.3002 38.2998 17.3002 38.1998 17.3002C38.0998 17.3002 38.0998 17.3002 37.9998 17.4002C37.7998 17.2002 37.5998 17.1002 37.1998 16.7002C36.9998 17.5002 36.8998 18.0002 36.7998 18.6002C36.7998 18.7002 36.7998 18.9002 36.6998 19.0002C36.6998 19.2002 36.5998 19.3002 36.5998 19.5002Z" fill="white"/>
<path d="M53.5998 42.9004C53.4998 42.6004 53.3998 42.3004 53.2998 42.0004C53.5998 41.9004 53.8998 41.7004 54.1998 41.5004C54.9998 41.3004 55.6998 41.1004 56.4998 40.9004C56.6998 41.0004 56.8998 41.1004 57.0998 41.3004C57.1998 41.4004 57.2998 41.6004 57.3998 41.7004C57.1998 41.8004 56.9998 41.8004 56.7998 41.9004C56.7998 42.0004 56.7998 42.0004 56.8998 42.1004C57.0998 42.0004 57.2998 41.9004 57.4998 41.9004C58.3998 41.9004 58.9998 40.8004 59.9998 41.4004C59.5998 41.6004 59.1998 41.9004 58.7998 42.1004C58.2998 42.4004 57.6998 42.6004 57.1998 42.8004C55.9998 42.8004 54.7998 42.8004 53.5998 42.9004Z" fill="white"/>
<path d="M46.5996 45.7998C43.6996 46.5998 40.7996 47.2998 37.6996 47.1998C36.8996 47.1998 36.4996 47.3998 36.7996 48.2998C37.0996 49.1998 37.1996 50.1998 37.3996 51.1998C36.6996 50.5998 36.0996 47.7998 36.5996 47.0998C36.6996 46.8998 37.0996 46.6998 37.3996 46.6998C39.9996 46.6998 42.4996 46.4998 44.8996 45.6998C45.3996 45.4998 46.0996 45.6998 46.5996 45.7998Z" fill="white"/>
<path d="M13.5 41.7002C13.7 40.9002 13.8 40.2002 13.9 39.4002C14 38.8002 14 38.3002 14.1 37.7002C14.2 37.7002 14.3 37.7002 14.4 37.7002C14.4 38.4002 14.4 39.1002 14.4 39.9002C14.4 40.0002 14.3 40.2002 14.3 40.3002C14.3 40.9002 14.3 41.4002 14.3 42.0002C14.3 42.2002 14.3 42.3002 14.3 42.5002C14.4 43.2002 14.4 43.9002 14.5 44.7002C14.6 45.5002 14.7 46.4002 14.7 47.2002C13.9 47.7002 13.9 46.9002 13.9 46.6002C13.8 44.9002 13.7 43.3002 13.5 41.7002Z" fill="white"/>
<path d="M35.6002 12.7002C35.6002 12.5002 35.5002 12.4002 35.5002 12.2002C35.7002 12.2002 35.9002 12.2002 36.1002 12.2002C36.5002 13.4002 35.9002 14.2002 34.6002 13.9002C34.4002 13.9002 34.1002 13.8002 33.9002 13.8002C31.5002 14.4002 29.1002 13.8002 26.6002 13.5002C26.1002 13.5002 25.7002 13.2002 25.2002 13.1002C25.3002 13.1002 25.3002 13.1002 25.4002 13.1002C26.7002 13.2002 27.9002 13.4002 29.2002 13.5002C30.3002 13.5002 31.5002 13.4002 32.7002 13.4002C33.4002 13.4002 34.1002 13.5002 34.8002 13.4002C35.1002 13.3002 35.4002 12.9002 35.6002 12.7002C35.7002 12.7002 35.7002 12.6002 35.7002 12.6002C35.7002 12.6002 35.6002 12.6002 35.6002 12.7002Z" fill="white"/>
<path d="M32.3005 33.8002C32.2005 33.6002 31.9005 33.4002 31.9005 33.2002C31.8005 31.8002 31.4005 30.3002 31.9005 28.9002C32.1005 28.3002 31.9005 27.6002 31.9005 27.0002C31.9005 26.6002 31.8005 26.1002 32.0005 25.7002C32.5005 24.2002 33.0005 22.7002 33.5005 21.2002C33.2005 22.6002 32.9005 23.9002 32.6005 25.3002C32.5005 25.5002 32.4005 25.7002 32.4005 26.0002C32.3005 28.5002 32.3005 31.1002 32.3005 33.8002Z" fill="white"/>
<path d="M59.9996 9.90039C60.0996 10.2004 60.0996 10.5004 60.1996 10.8004C59.7996 10.8004 59.4996 10.8004 59.0996 10.8004C58.2996 9.70039 57.3996 8.60039 56.5996 7.60039C56.8996 7.70039 57.2996 7.80039 57.5996 8.00039C57.6996 8.10039 57.7996 8.20039 57.7996 8.20039C57.7996 8.30039 57.8996 8.40039 57.8996 8.50039C57.8996 8.50039 57.9996 8.50039 57.9996 8.40039C57.9996 8.40039 57.8996 8.30039 57.8996 8.20039C57.7996 8.10039 57.6996 8.00039 57.6996 8.00039C57.3996 7.30039 57.0996 6.60039 56.7996 5.90039C57.2996 6.50039 57.7996 7.20039 58.2996 7.80039C58.6996 8.20039 59.1996 8.60039 59.5996 9.00039C59.6996 9.10039 59.6996 9.30039 59.7996 9.40039C59.7996 9.50039 59.7996 9.60039 59.8996 9.70039C59.8996 9.70039 59.8996 9.80039 59.9996 9.90039Z" fill="white"/>
<path d="M32.5 44.8004C32.5 43.9004 32.5 43.0004 32.4 42.1004C32.3 39.8004 32.1 37.6004 32 35.3004C32 35.2004 32.2 35.0004 32.3 34.9004C32.4 35.7004 32.5 36.5004 32.5 37.3004C32.7 39.5004 32.9 41.7004 33 43.9004C33 44.2004 32.7 44.5004 32.5 44.8004Z" fill="white"/>
<path d="M23.6002 49.1998C23.4002 49.2998 23.1002 49.6998 22.9002 49.5998C21.1002 49.3998 19.4002 48.8998 17.6002 49.5998C17.3002 49.6998 16.8002 49.5998 16.3002 49.4998C16.0002 50.4998 15.4002 50.3998 14.7002 49.8998C15.2002 49.4998 15.7002 49.1998 16.2002 48.8998C16.2002 48.9998 16.2002 49.0998 16.3002 49.1998C17.0002 49.0998 17.8002 48.8998 18.5002 48.8998C19.9002 48.8998 21.2002 49.0998 22.6002 49.0998C23.0002 49.0998 23.3002 48.8998 23.7002 48.7998C23.6002 48.9998 23.6002 49.0998 23.6002 49.1998Z" fill="white"/>
<path d="M35.4 59.5004C35.4 59.4004 35.3 59.2004 35.3 59.1004C35.2 58.9004 35.2 58.8004 35.1 58.6004C35.1 58.4004 35 58.3004 35 58.1004C35 58.0004 35.1 58.0004 35.1 57.9004C35.3 58.2004 35.7 58.5004 35.8 58.8004C36 61.1004 36.9 63.2004 38.1 65.2004C38.3 65.5004 38.3 65.9004 38.4 66.2004C38.3 66.2004 38.1 66.1004 38 66.1004C37.8 65.9004 37.7 65.6004 37.5 65.4004C37.5 65.3004 37.4 65.3004 37.4 65.2004C37.3 65.1004 37.3 65.1004 37.2 65.0004C37.1 64.9004 37.1 64.8004 37 64.7004C36.8 64.3004 36.7 63.9004 36.5 63.5004C36.5 63.4004 36.5 63.4004 36.5 63.3004C36.4 63.1004 36.4 63.0004 36.3 62.8004C36.3 62.7004 36.3 62.6004 36.3 62.6004C36.2 62.4004 36.2 62.3004 36.1 62.1004C36.1 62.0004 36 61.8004 36 61.7004C36 61.6004 35.9 61.5004 35.9 61.5004C35.8 61.3004 35.8 61.2004 35.7 61.0004C35.7 60.6004 35.6 60.2004 35.6 59.9004C35.5 59.7004 35.4 59.6004 35.4 59.5004Z" fill="white"/>
<path d="M39.2002 10.4004C38.9002 11.3004 38.5002 12.2004 38.2002 13.2004C39.9002 13.2004 41.5002 13.2004 43.1002 13.2004C43.1002 13.3004 43.1002 13.5004 43.1002 13.6004C42.0002 13.7004 40.9002 13.8004 39.8002 13.8004C39.3002 13.8004 38.8002 13.9004 38.3002 13.7004C38.1002 13.6004 37.7002 13.1004 37.7002 13.0004C38.2002 12.1004 38.7002 11.2004 39.2002 10.4004Z" fill="white"/>
<path d="M35.3004 42.7002C35.6004 42.8002 35.9004 43.1002 36.2004 43.1002C37.5004 43.1002 38.7004 43.0002 40.2004 42.9002C39.7004 43.5002 39.4004 43.9002 39.1004 44.2002C39.3004 44.3002 39.5004 44.4002 39.7004 44.4002C39.4004 44.5002 39.1004 44.7002 38.7004 44.9002C38.6004 44.3002 38.5004 43.8002 38.5004 43.3002C37.6004 43.4002 36.7004 43.4002 35.8004 43.4002C35.4004 43.4002 34.9004 43.4002 35.3004 42.7002Z" fill="white"/>
<path d="M16.4 26.3C16.4 26.4 16.3 26.6 16.3 26.7C16 27.6 15.7 28.4 15.4 29.3C15.3 29.6 15.1 29.8 15 30.1C15.5 28.4 15.8 26.8 16.4 25.2C16.7 24.3 17.3 23.4 17.8 22.5H17.9C17.9 22.7 17.8 22.9 17.8 23.1C17.7 23.2 17.7 23.3 17.6 23.4C17.6 23.4 17.5 23.5 17.5 23.6C17.3 24 17.2 24.4 17 24.8C16.9 25 16.9 25.2 16.8 25.3C16.7 25.5 16.7 25.6 16.6 25.8C16.6 25.9 16.5 25.9 16.5 26C16.5 26.1 16.5 26.2 16.4 26.3Z" fill="white"/>
<path d="M19.2002 46.7006C20.6002 46.3006 22.0002 45.9006 23.3002 45.5006C24.0002 45.3006 24.7002 45.2006 25.5002 45.1006C25.0002 45.4006 24.6002 45.7006 24.1002 45.9006C22.7002 46.3006 21.3002 46.5006 19.8002 46.8006C19.6002 46.9006 19.4002 46.8006 19.2002 46.7006Z" fill="white"/>
<path d="M47.2998 13.2007C48.5998 12.9007 49.7998 12.6007 51.0998 12.3007C51.8998 12.1007 52.4998 12.4007 52.1998 13.4007C52.1998 13.5007 52.2998 13.7007 52.3998 13.8007C52.0998 13.7007 51.5998 13.6007 51.4998 13.3007C51.2998 12.6007 50.7998 12.6007 50.1998 12.8007C49.1998 13.0007 48.2998 13.2007 47.2998 13.4007C47.3998 13.3007 47.3998 13.2007 47.2998 13.2007Z" fill="white"/>
<path d="M63.9 13.4004C63.6 13.5004 63.3 13.7004 63.1 13.9004C62.8 14.2004 62.5 14.5004 62.2 14.8004C61.3 14.9004 60.2 14.9004 59 15.0004C59.1 14.8004 59.2 14.5004 59.3 14.5004C60.9 14.1004 62.4 13.7004 63.9 13.4004Z" fill="white"/>
<path d="M23.5996 49.2004C23.5996 49.1004 23.5996 48.9004 23.5996 48.8004C25.1996 48.5004 26.7996 48.3004 28.3996 48.0004C29.1996 47.9004 29.8996 47.9004 30.6996 47.9004C30.6996 48.0004 30.5996 48.0004 30.5996 48.1004C30.3996 48.1004 30.0996 48.2004 29.8996 48.2004C29.3996 48.3004 28.8996 48.4004 28.4996 48.5004C28.2996 48.5004 27.9996 48.5004 27.7996 48.6004C27.5996 48.6004 27.4996 48.6004 27.2996 48.6004C26.1996 49.4004 24.8996 49.2004 23.5996 49.2004Z" fill="white"/>
<path d="M65.8996 6.3002C64.5996 5.8002 63.2996 5.3002 62.0996 4.8002C61.7996 4.7002 61.4996 4.4002 61.0996 4.2002C62.8996 4.8002 64.7996 5.5002 66.5996 6.1002C66.6996 6.1002 66.6996 6.4002 66.7996 6.5002C66.4996 6.5002 66.1996 6.4002 65.8996 6.3002Z" fill="white"/>
<path d="M61.4002 42.3002C60.0002 42.7002 58.5002 43.1002 57.1002 43.4002C56.7002 43.5002 56.2002 43.6002 55.7002 43.7002C56.2002 43.4002 56.7002 43.0002 57.1002 42.7002C58.4002 42.5002 59.8002 42.4002 61.1002 42.2002C61.2002 42.2002 61.3002 42.2002 61.4002 42.3002Z" fill="white"/>
<path d="M38.4004 55.9002C38.3004 56.1002 38.2004 56.3002 38.1004 56.5002C37.9004 56.1002 37.6004 55.6002 37.4004 55.2002C38.2004 55.0002 37.9004 54.5002 37.9004 54.0002C37.8004 53.1002 37.6004 52.1002 37.5004 51.2002C37.8004 52.7002 38.1004 54.3002 38.4004 55.9002Z" fill="white"/>
<path d="M16.0996 55.2002C16.8996 57.0002 17.6996 58.8002 18.4996 60.5002C18.2996 60.3002 17.8996 60.1002 17.7996 59.9002C17.1996 58.7002 16.6996 57.5002 16.1996 56.3002C16.0996 56.0002 16.0996 55.6002 16.0996 55.2002Z" fill="white"/>
<path d="M29.8998 15.6998C29.4998 15.7998 28.9998 15.8998 28.5998 15.7998C27.7998 15.5998 27.1998 15.4998 26.4998 16.2998C26.1998 16.5998 25.3998 16.9998 25.2998 15.8998C25.7998 15.6998 26.2998 15.5998 26.7998 15.4998C27.2998 15.3998 27.7998 15.2998 28.1998 15.2998C28.5998 15.2998 28.9998 15.3998 29.4998 15.3998C29.5998 15.5998 29.6998 15.5998 29.8998 15.6998Z" fill="white"/>
<path d="M54.9996 43.7C54.3996 44.1 53.7996 44.5 53.1996 44.8C52.4996 44.1 51.7996 44.8 50.9996 44.9C50.3996 45 49.7996 45.1 49.0996 45.2C50.8996 44.6 52.5996 44.1 54.3996 43.6C54.6996 43.5 54.8996 43.6 54.9996 43.7Z" fill="white"/>
<path d="M49.2 3.8003C47.5 4.1003 45.8 4.4003 44 4.7003C45.1 4.4003 46.1 4.1003 47.2 3.8003C47.6 3.7003 48 3.8003 48.5 3.8003C48.7 3.8003 49 3.8003 49.2 3.8003Z" fill="white"/>
<path d="M37.7002 59.1006C37.8002 59.2006 38.0002 59.3006 38.1002 59.4006C38.4002 60.5006 38.8002 61.6006 39.1002 62.7006C39.2002 63.0006 39.2002 63.3006 39.2002 63.6006C39.1002 63.9006 39.1002 64.2006 39.0002 64.5006C38.7002 62.7006 38.2002 60.9006 37.7002 59.1006Z" fill="white"/>
<path d="M23.3996 15C22.5996 15.8 21.7996 16.7 20.9996 17.5C20.6996 17.9 20.3996 18.3 20.0996 18.8C20.3996 17.2 21.2996 16.1 22.5996 15.2C22.7996 15.1 23.0996 15.1 23.3996 15Z" fill="white"/>
<path d="M49.2 3.8C49 3.8 48.7 3.8 48.5 3.8C50.4 3.1 53.1 4 53.9 5.5C53.4 5.2 52.9 4.9 52.4 4.7C51.4 4.3 50.3 4.1 49.2 3.8Z" fill="white"/>
<path d="M32.5 7.5005C31.5 8.5005 30.4 9.6005 29 10.1005C29 10.0005 29 9.9005 29 9.8005C30 9.0005 30.9 8.2005 31.9 7.5005C32 7.4005 32.3 7.5005 32.5 7.5005Z" fill="white"/>
<path d="M66.0996 10.2998C66.2996 10.2998 66.4996 10.3998 66.7996 10.3998C66.3996 10.6998 65.9996 10.9998 65.6996 11.1998C65.3996 11.2998 64.9996 11.3998 64.6996 11.4998C64.1996 11.5998 63.5996 11.6998 63.0996 11.6998C63.0996 11.5998 63.0996 11.4998 63.0996 11.4998C63.0996 11.3998 63.1996 11.3998 63.1996 11.2998C63.5996 11.0998 64.0996 10.8998 64.4996 10.6998C64.6996 10.6998 64.7996 10.5998 64.9996 10.5998C65.0996 10.5998 65.0996 10.5998 65.1996 10.5998C65.3996 10.4998 65.5996 10.4998 65.6996 10.3998C65.7996 10.2998 65.8996 10.2998 66.0996 10.2998Z" fill="white"/>
<path d="M59.0996 10.7998C59.4996 10.7998 59.7996 10.7998 60.1996 10.7998C60.1996 10.8998 60.2996 10.9998 60.2996 10.9998C60.2996 11.0998 60.3996 11.1998 60.3996 11.1998C60.5996 11.4998 60.6996 11.7998 60.8996 12.1998C60.8996 12.2998 60.8996 12.2998 60.9996 12.3998C61.0996 12.4998 61.2996 12.6998 61.3996 12.7998C61.1996 12.8998 60.8996 12.9998 60.6996 12.9998C60.0996 12.2998 59.5996 11.5998 59.0996 10.7998Z" fill="white"/>
<path d="M75.8996 13.6998C75.0996 13.0998 74.2996 12.3998 73.5996 11.7998C74.5996 12.2998 75.6996 12.8998 76.6996 13.3998C76.7996 13.4998 76.6996 13.8998 76.6996 14.0998C76.3996 13.8998 76.1996 13.7998 75.8996 13.6998Z" fill="white"/>
<path d="M29.9 15.7003C29.8 15.6003 29.6 15.6003 29.5 15.5003C30.4 15.2003 32.8 15.4003 33.3 15.9003C32.1 15.9003 31 15.8003 29.9 15.7003Z" fill="white"/>
<path d="M29.0002 9.90039C29.0002 10.0004 29.0002 10.1004 29.0002 10.2004C28.4002 10.5004 27.8002 10.8004 27.3002 11.1004C26.8002 11.4004 26.3002 11.9004 25.7002 12.3004C26.3002 11.7004 26.9002 11.1004 27.5002 10.6004C28.0002 10.3004 28.5002 10.1004 29.0002 9.90039Z" fill="white"/>
<path d="M13.6999 36.9004C13.5999 38.5004 13.5999 40.2004 13.4999 41.8004C13.1999 40.1004 12.8999 38.5004 13.6999 36.9004Z" fill="white"/>
<path d="M78.5002 16.1998C77.9002 15.5998 77.3002 14.8998 76.7002 14.2998C77.3002 14.8998 77.9002 15.5998 78.5002 16.1998Z" fill="white"/>
<path d="M14.4998 32.3998C14.2998 33.2998 13.9998 34.0998 13.7998 34.9998C13.9998 33.7998 14.2998 32.4998 14.4998 31.2998C14.4998 31.4998 14.4998 31.7998 14.4998 31.9998C14.4998 32.0998 14.4998 32.1998 14.4998 32.3998Z" fill="white"/>
<path d="M40.6998 71.4002C40.5998 71.0002 40.4998 70.6002 40.2998 70.2002C40.7998 70.6002 41.1998 71.0002 41.6998 71.4002C41.4998 71.6002 41.1998 71.9002 40.9998 72.1002H40.8998C40.8998 72.0002 40.7998 71.9002 40.7998 71.9002C40.6998 71.7002 40.6998 71.5002 40.6998 71.4002Z" fill="white"/>
<path d="M72.9 11.3002C72.3 11.0002 71.6 10.7002 71 10.4002C71.3 10.3002 71.8 10.0002 71.9 10.1002C72.3 10.4002 72.6 10.8002 72.9 11.3002Z" fill="white"/>
<path d="M19.6998 19.2998C19.6998 19.3998 19.5998 19.5998 19.5998 19.6998C19.3998 19.8998 19.2998 20.1998 19.0998 20.3998C18.9998 20.4998 18.9998 20.5998 18.8998 20.5998C18.7998 20.7998 18.6998 20.8998 18.5998 21.0998C18.4998 21.0998 18.4998 21.0998 18.3998 21.0998L18.2998 20.9998C18.8998 20.4998 19.2998 19.8998 19.6998 19.2998Z" fill="white"/>
<path d="M41.9002 70.3998C42.1002 70.7998 42.2002 71.1998 42.4002 71.4998C42.4002 71.5998 42.4002 71.6998 42.4002 71.7998C42.2002 71.5998 41.9002 71.4998 41.7002 71.2998C41.7002 70.9998 41.7002 70.5998 41.7002 70.2998C41.8002 70.3998 41.9002 70.3998 41.9002 70.3998Z" fill="white"/>
<path d="M65.2002 3C65.8002 3.2 66.5002 3.5 67.1002 3.7C66.4002 3.5 65.8002 3.3 65.2002 3Z" fill="white"/>
<path d="M34.5996 56.2998C34.5996 56.0998 34.5996 55.9998 34.5996 55.7998C34.7996 56.4998 34.8996 57.1998 35.0996 57.8998C34.9996 57.8998 34.9996 57.7998 34.8996 57.7998C34.8996 57.5998 34.7996 57.3998 34.7996 57.1998C34.7996 57.0998 34.6996 56.9998 34.6996 56.8998C34.5996 56.7998 34.5996 56.5998 34.5996 56.2998Z" fill="white"/>
<path d="M14.9 30.5C14.9 30.7 14.9 30.8 14.9 31C14.8 31.3 14.6 31.6 14.5 31.9C14.5 31.7 14.5 31.4 14.5 31.2C14.6 31 14.7 30.7 14.8 30.5H14.9Z" fill="white"/>
<path d="M25.5001 13.1004C25.4001 13.1004 25.4001 13.1004 25.3001 13.1004C25.1001 12.6004 25.0001 12.1004 25.8001 12.2004C25.7001 12.5004 25.6001 12.8004 25.5001 13.1004Z" fill="white"/>
<path d="M75.9004 13.7002C76.2004 13.8002 76.4004 14.0002 76.7004 14.1002C76.7004 14.2002 76.7004 14.3002 76.7004 14.3002C76.4004 14.1002 76.2004 13.9002 75.9004 13.7002Z" fill="white"/>
<path d="M33.4002 49.3004C33.3002 49.0004 33.2002 48.7004 33.2002 48.4004C33.3002 48.7004 33.3002 49.0004 33.4002 49.3004Z" fill="white"/>
<path d="M36.9998 5.60059C36.5998 5.80059 36.1998 5.90059 35.7998 6.10059C36.1998 6.00059 36.5998 5.80059 36.9998 5.60059Z" fill="white"/>
<path d="M18.3 21.8006C18.3 21.9006 18.3 22.0006 18.2 22.0006C18.1 22.0006 18.1 22.0006 18 22.0006C18.2 21.7006 18.3 21.4006 18.5 21.1006L18.6 21.2006C18.6 21.3006 18.6 21.3006 18.6 21.4006C18.6 21.5006 18.5 21.6006 18.5 21.6006C18.4 21.7006 18.3 21.8006 18.3 21.8006Z" fill="white"/>
<path d="M73.6004 11.7998C73.4004 11.5998 73.1004 11.4998 72.9004 11.2998C73.1004 11.3998 73.4004 11.5998 73.6004 11.7998Z" fill="white"/>
<path d="M35.0996 41.1006C35.1996 41.5006 35.1996 41.9006 35.2996 42.3006C35.1996 41.8006 35.1996 41.4006 35.0996 41.1006Z" fill="white"/>
<path d="M79.7002 17.6004C79.5002 17.4004 79.4002 17.1004 79.2002 16.9004C79.4002 17.2004 79.5002 17.4004 79.7002 17.6004Z" fill="white"/>
<path d="M17.7002 22.5C17.8002 22.3 17.9002 22.2 17.9002 22C17.9002 22.3 17.9002 22.4 17.7002 22.5Z" fill="white"/>
<path d="M43.0996 13.6006C43.2996 13.7006 43.3996 13.8006 43.5996 13.8006C43.3996 13.7006 43.2996 13.7006 43.0996 13.6006Z" fill="white"/>
<path d="M78.9002 16.7C78.8002 16.6 78.8002 16.6 78.7002 16.5C78.8002 16.6 78.9002 16.6 78.9002 16.7Z" fill="white"/>
<path d="M79.8002 17.9002C79.8002 17.8002 79.7002 17.8002 79.7002 17.7002C79.7002 17.7002 79.8002 17.8002 79.8002 17.9002Z" fill="white"/>
<path d="M55.7 6.80059C55.6 6.70059 55.6 6.70059 55.5 6.60059C55.6 6.60059 55.7 6.70059 55.7 6.80059Z" fill="white"/>
<path d="M33.2 48.1004C33.1 48.0004 33.1 48.0004 33 47.9004C33.1 48.0004 33.1 48.1004 33.2 48.1004Z" fill="white"/>
<path d="M41.9002 70.4006C41.8002 70.4006 41.8002 70.4006 41.7002 70.3006C41.7002 70.2006 41.7002 70.2006 41.8002 70.1006C41.8002 70.2006 41.9002 70.3006 41.9002 70.4006Z" fill="white"/>
<path d="M78.7 16.4998C78.6 16.3998 78.6 16.3998 78.5 16.2998C78.6 16.2998 78.6 16.3998 78.7 16.4998Z" fill="white"/>
<path d="M63.8004 79.8004C63.6004 80.0004 63.5004 80.1004 63.3004 80.3004C62.7004 80.3004 62.0004 80.3004 61.4004 80.3004C61.9004 79.8004 62.4004 79.4004 62.8004 78.9004C62.9004 78.8004 63.0004 78.8004 63.0004 78.7004C63.1004 78.6004 63.1004 78.5004 63.2004 78.5004C63.4004 78.3004 63.7004 78.0004 63.9004 77.8004C64.0004 77.7004 64.0004 77.7004 64.1004 77.6004C64.2004 77.5004 64.2004 77.5004 64.3004 77.4004C64.5004 77.2004 64.7004 76.9004 64.8004 76.7004C65.1004 76.0004 65.4004 75.3004 65.7004 74.6004C65.7004 74.5004 65.8004 74.5004 65.8004 74.4004C66.0004 74.1004 66.2004 73.8004 66.3004 73.4004C66.5004 73.7004 66.7004 74.0004 66.9004 74.4004C65.9004 76.1004 64.9004 77.9004 63.8004 79.8004Z" fill="white"/>
<path d="M57.4002 82.1C57.3002 82 57.2002 81.9 57.2002 81.9C57.4002 81.8 57.5002 81.6 57.7002 81.5C58.6002 82 59.2002 81.4 59.9002 81C60.0002 81 60.0002 81 60.1002 81C60.1002 81.1 60.1002 81.1 60.1002 81.2C59.3002 81.9 58.5002 82.5 57.4002 82.1Z" fill="white"/>
<path d="M61.4002 80.2998C61.0002 80.4998 60.6002 80.7998 60.2002 80.9998C60.2002 80.8998 60.2002 80.8998 60.2002 80.7998C60.4002 80.6998 60.7002 80.4998 60.9002 80.3998C61.1002 80.2998 61.2002 80.2998 61.4002 80.2998Z" fill="white"/>
<path d="M60 81.2004C60 81.1004 60 81.1004 60 81.0004V80.9004H60.1H60.2C60.1 81.1004 60.1 81.1004 60 81.2004Z" fill="white"/>
<path d="M89.6004 54.0006C89.5004 54.3006 89.6004 54.7006 89.4004 55.0006C88.5004 56.1006 88.7004 57.4006 88.5004 58.6006C87.6004 58.6006 86.8004 58.6006 85.9004 58.7006C86.1004 58.3006 86.2004 57.9006 86.4004 57.5006C87.3004 56.8006 87.5004 56.0006 87.1004 55.4006C87.1004 55.3006 87.2004 55.2006 87.2004 55.1006C87.5004 54.4006 88.0004 53.8006 88.2004 53.1006C89.0004 49.8006 89.7004 46.4006 89.7004 42.9006C89.7004 42.6006 90.0004 42.4006 90.2004 42.1006C90.4004 42.3006 90.6004 42.4006 90.9004 42.6006C90.9004 44.0006 90.9004 45.4006 90.9004 46.9006C90.9004 47.0006 90.9004 47.2006 90.9004 47.3006C90.7004 47.5006 90.4004 47.6006 90.4004 47.8006C90.2004 49.7006 90.4004 51.6006 89.5004 53.3006C89.4004 53.6006 89.5004 53.8006 89.6004 54.0006Z" fill="white"/>
<path d="M90.0996 42.2C89.8996 42.5 89.5996 42.7 89.5996 43C89.5996 46.5 88.8996 49.8 88.0996 53.2C87.8996 53.9 87.4996 54.5 87.0996 55.2C87.6996 52.6 88.2996 50.1 88.6996 47.5C88.9996 45.5 88.8996 43.5 88.9996 41.5C89.3996 41.6 89.6996 41.9 90.0996 42.2Z" fill="white"/>
<path d="M90.7998 47.0002C90.7998 45.6002 90.7998 44.2002 90.7998 42.7002C90.9998 42.9002 91.2998 43.1002 91.4998 43.4002C91.2998 44.2002 91.1998 44.9002 90.9998 45.7002C90.8998 46.1002 90.7998 46.5002 90.7998 47.0002Z" fill="white"/>
<path d="M90.7 42.7002C90.5 42.5002 90.3 42.4002 90 42.2002C90.3 42.4002 90.5 42.5002 90.7 42.7002Z" fill="white"/>
<path d="M42.4004 71.8004C42.4004 71.7004 42.4004 71.6004 42.4004 71.5004C43.0004 71.3004 43.7004 71.2004 44.3004 71.0004C45.1004 70.8004 46.0004 70.4004 46.8004 70.2004C47.2004 70.1004 47.6004 70.1004 47.9004 69.9004C49.0004 69.2004 50.3004 69.2004 51.5004 69.3004C52.7004 69.3004 53.9004 69.6004 55.1004 68.7004C56.1004 68.0004 57.4004 67.9004 58.6004 67.7004C59.3004 67.6004 60.1004 68.0004 61.1004 68.2004C60.6004 68.5004 60.3004 68.6004 59.9004 68.9004C60.2004 69.1004 60.4004 69.2004 60.6004 69.3004C60.3004 69.3004 59.9004 69.5004 59.7004 69.4004C59.4004 69.1004 59.3004 68.7004 59.0004 68.0004C58.2004 68.2004 56.9004 68.2004 56.1004 68.8004C54.4004 70.1004 52.5004 69.7004 50.6004 69.8004C50.1004 69.8004 49.6004 69.9004 49.1004 70.0004C48.1004 70.2004 47.2004 70.4004 46.2004 70.7004C45.5004 70.9004 44.8004 71.2004 44.3004 71.6004C43.8004 72.2004 43.2004 72.3004 42.4004 71.8004Z" fill="white"/>
<path d="M50.4001 73.1001C49.7001 73.4001 49.0001 73.5001 48.4001 73.9001C47.2001 74.6001 45.8001 73.8001 44.5001 74.4001C44.9001 75.0001 45.2001 75.5001 45.6001 76.1001C45.6001 76.2001 45.6001 76.2001 45.6001 76.3001L45.5001 76.4001C44.9001 75.7001 44.1001 75.1001 44.4001 74.0001C46.4001 73.6001 48.4001 73.3001 50.4001 73.1001C50.4001 73.0001 50.4001 73.1001 50.4001 73.1001Z" fill="white"/>
<path d="M40.8996 72.1006C40.8996 72.1006 40.9996 72.1006 40.8996 72.1006C40.3996 72.7006 39.7996 73.5006 39.0996 73.7006C37.5996 74.2006 36.3996 75.5006 34.5996 75.1006C34.9996 74.9006 35.3996 74.6006 35.7996 74.4006C36.3996 74.2006 37.0996 74.0006 37.6996 73.8006C37.7996 73.8006 37.7996 73.8006 37.8996 73.7006C38.8996 73.1006 39.8996 72.6006 40.8996 72.1006Z" fill="white"/>
<path d="M68.1004 71.3998C67.7004 72.2998 67.4004 73.2998 67.0004 74.1998C66.8004 73.8998 66.6004 73.5998 66.4004 73.1998C66.6004 72.5998 66.8004 71.8998 67.0004 71.2998C67.4004 71.3998 67.8004 71.3998 68.1004 71.3998Z" fill="white"/>
<path d="M68.9 68.8006C68.8 69.0006 68.6 69.3006 68.5 69.5006C68.3 69.4006 68.2 69.3006 68 69.3006C68.3 68.2006 68.6 67.2006 69 66.1006C69.1 66.1006 69.2 66.2006 69.4 66.2006C69.1 67.0006 69 67.9006 68.9 68.8006Z" fill="white"/>
<path d="M61.8 72.0006C60.3 72.0006 58.7 72.0006 57.2 72.1006C57.1 72.0006 57 71.9006 57 71.8006C58.7 71.7006 60.5 71.7006 62.2 71.6006C62 71.8006 61.9 71.9006 61.8 72.0006Z" fill="white"/>
<path d="M50.4004 73.1006C50.4004 73.1006 50.4004 73.0006 50.4004 73.1006C51.8004 72.7006 53.1004 72.4006 54.4004 72.1006C54.2004 72.2006 54.0004 72.4006 53.9004 72.5006C52.7004 72.7006 51.5004 72.9006 50.4004 73.1006Z" fill="white"/>
<path d="M80.5996 67.5998C81.3996 66.4998 82.1996 65.3998 82.9996 64.2998C82.9996 65.5998 81.7996 67.1998 80.5996 67.5998Z" fill="white"/>
<path d="M74.2002 74.4006C75.1002 73.6006 75.9002 72.8006 76.8002 72.1006C76.0002 72.8006 75.1002 73.6006 74.2002 74.4006Z" fill="white"/>
<path d="M76.9004 71.9998C77.1004 71.7998 77.4004 71.4998 77.6004 71.2998C77.3004 71.5998 77.1004 71.7998 76.9004 71.9998Z" fill="white"/>
<path d="M73.2002 75.1006C73.4002 74.9006 73.6002 74.8006 73.9002 74.6006C73.6002 74.8006 73.4002 74.9006 73.2002 75.1006Z" fill="white"/>
<path d="M73.7998 74.5998C73.9998 74.4998 74.0998 74.3998 74.2998 74.2998C74.0998 74.3998 73.9998 74.4998 73.7998 74.5998Z" fill="white"/>
<path d="M77.5996 71.3006C77.6996 71.2006 77.6996 71.2006 77.7996 71.1006C77.8996 71.1006 77.8996 71.2006 77.9996 71.2006C77.7996 71.3006 77.6996 71.3006 77.5996 71.3006Z" fill="white"/>
<path d="M80.4004 67.8C80.5004 67.7 80.5004 67.6 80.6004 67.5C80.6004 67.7 80.5004 67.7 80.4004 67.8Z" fill="white"/>
<path d="M72.9004 75.3006C73.0004 75.2006 73.1004 75.2006 73.2004 75.1006C73.0004 75.2006 73.0004 75.3006 72.9004 75.3006Z" fill="white"/>
<path d="M86.2998 27.9004C85.4998 26.4004 84.5998 24.9004 83.7998 23.4004C83.9998 23.5004 84.2998 23.6004 84.3998 23.8004C85.0998 24.9004 85.6998 26.0004 86.2998 27.1004C86.2998 27.4004 86.2998 27.7004 86.2998 27.9004Z" fill="white"/>
<path d="M54.1 81.2002C54.1 81.2002 54.2 81.3002 54.3 81.2002C55.4 81.3002 56.5 81.3002 57.7 81.4002C57.5 81.5002 57.4 81.7002 57.2 81.8002C55.6 81.9002 54 81.9002 52.5 81.1002C52.5 81.0002 52.5 80.8002 52.5 80.7002C53.1 80.9002 53.6 81.1002 54.1 81.2002Z" fill="white"/>
<path d="M50.8002 80.3004C50.1002 79.7004 49.4002 79.0004 48.7002 78.4004C49.0002 78.6004 49.3002 78.7004 49.6002 78.9004C49.7002 79.0004 49.8002 79.0004 49.9002 79.1004C50.0002 79.2004 50.1002 79.2004 50.1002 79.3004C50.2002 79.3004 50.2002 79.4004 50.3002 79.4004C50.4002 79.5004 50.5002 79.5004 50.6002 79.6004C50.9002 79.8004 51.2002 79.9004 51.5002 80.1004C51.5002 80.2004 51.5002 80.2004 51.5002 80.3004C51.3002 80.3004 51.1002 80.3004 50.8002 80.3004Z" fill="white"/>
<path d="M47.6 78.6006C47.9 78.8006 48.2 79.1006 48.5 79.3006C48.2 79.2006 47.9 79.2006 47.5 79.1006C47.6 78.9006 47.6 78.8006 47.6 78.6006Z" fill="white"/>
<path d="M49.2002 79.7998C49.4002 79.9998 49.7002 80.0998 49.9002 80.2998C49.7002 80.0998 49.4002 79.8998 49.2002 79.7998Z" fill="white"/>
<path d="M49.9004 80.2998C50.1004 80.4998 50.4004 80.5998 50.6004 80.7998C50.4004 80.5998 50.1004 80.3998 49.9004 80.2998Z" fill="white"/>
<path d="M48.7002 79.5C48.9002 79.6 49.0002 79.7 49.2002 79.8C49.0002 79.7 48.9002 79.6 48.7002 79.5Z" fill="white"/>
<path d="M51.6001 80.3006C51.6001 80.2006 51.5001 80.2006 51.6001 80.1006C51.7001 80.2006 51.8001 80.2006 51.9001 80.3006C51.7001 80.2006 51.6001 80.3006 51.6001 80.3006Z" fill="white"/>
<path d="M46.5996 78.2002C46.7996 78.2002 46.8996 78.2002 47.0996 78.2002C47.0996 78.4002 47.0996 78.5002 47.0996 78.7002C46.8996 78.5002 46.7996 78.3002 46.5996 78.2002Z" fill="white"/>
<path d="M47.5996 78.6006C47.5996 78.8006 47.5996 78.9006 47.5996 79.1006C47.3996 78.9006 47.2996 78.8006 47.0996 78.6006C47.1996 78.6006 47.3996 78.6006 47.5996 78.6006Z" fill="white"/>
<path d="M45.5 76.2C45.5 76.1 45.5 76.1 45.5 76C45.6 76.1 45.6 76.1 45.7 76.2C45.6 76.2 45.6 76.2 45.5 76.2Z" fill="white"/>
<path d="M45.7002 76.2998C45.8002 76.3998 45.8002 76.4998 45.9002 76.5998C45.8002 76.3998 45.8002 76.2998 45.7002 76.2998Z" fill="white"/>
<path d="M45.9004 76.5C46.0004 76.6 46.0004 76.7 46.1004 76.8C46.1004 76.7 46.0004 76.6 45.9004 76.5Z" fill="white"/>
<path d="M46.6 78.2006C46.6 78.2006 46.5 78.2006 46.5 78.1006C46.5 78.1006 46.6 78.1006 46.6 78.2006Z" fill="white"/>
<path d="M56.3996 40.8998C55.5996 41.0998 54.8996 41.2998 54.0996 41.4998C55.9996 33.9998 57.9996 26.4998 59.8996 18.9998C60.0996 18.2998 60.0996 17.2998 61.0996 17.2998C62.0996 17.2998 62.0996 18.3998 62.2996 19.0998C64.1996 25.9998 66.0996 32.7998 68.0996 39.6998C66.7996 39.9998 65.4996 40.2998 64.1996 40.5998C64.0996 40.5998 63.9996 40.4998 63.8996 40.3998C62.8996 36.5998 61.8996 32.7998 60.7996 28.9998C60.6996 28.5998 60.2996 28.2998 59.9996 27.8998C59.7996 28.2998 59.3996 28.5998 59.2996 28.9998C58.4996 32.8998 57.3996 36.8998 56.3996 40.8998Z" fill="white"/>
<path d="M68.6004 40.9004C70.0004 45.9004 71.3004 50.8004 72.7004 55.8004C73.1004 57.2004 73.7004 58.4004 75.4004 58.7004C75.7004 58.8004 76.0004 59.3004 76.3004 59.6004C75.9004 59.7004 75.6004 60.0004 75.2004 60.0004C72.8004 60.0004 70.4004 59.9004 68.0004 59.9004C67.3004 59.9004 66.6004 60.1004 65.9004 60.0004C65.6004 60.0004 65.3004 59.5004 65.0004 59.3004C65.3004 59.0004 65.5004 58.7004 65.9004 58.5004C66.1004 58.4004 66.4004 58.4004 66.6004 58.4004C68.4004 58.3004 68.8004 57.7004 68.3004 55.9004C67.5004 52.7004 66.6004 49.6004 65.7004 46.4004C65.3004 44.9004 64.9004 43.4004 64.4004 41.9004C65.8004 41.5004 67.2004 41.2004 68.6004 40.9004Z" fill="white"/>
<path d="M68.6004 40.9006C67.2004 41.2006 65.8004 41.5006 64.5004 41.8006C64.1004 41.8006 63.7004 41.8006 63.3004 41.8006C62.8004 41.8006 62.4004 41.8006 61.9004 41.8006C62.5004 41.6006 63.2004 41.4006 63.8004 41.2006C63.6004 41.1006 63.5004 41.0006 63.3004 40.8006C63.5004 40.6006 63.8004 40.5006 64.0004 40.3006C64.1004 40.4006 64.2004 40.5006 64.3004 40.5006C65.6004 40.2006 66.9004 39.9006 68.2004 39.6006C68.8004 39.6006 69.5004 39.6006 70.4004 39.6006C69.7004 40.1006 69.1004 40.5006 68.6004 40.9006Z" fill="white"/>
<path d="M63.3002 40.7998C63.4002 40.8998 63.6002 40.9998 63.8002 41.1998C63.2002 41.3998 62.5002 41.5998 61.9002 41.7998C61.9002 41.8998 61.9002 41.8998 61.9002 41.9998C61.8002 42.0998 61.6002 42.1998 61.5002 42.2998H61.4002C61.3002 42.2998 61.3002 42.2998 61.2002 42.2998C59.9002 42.4998 58.5002 42.5998 57.2002 42.7998C57.7002 42.5998 58.3002 42.2998 58.8002 42.0998C59.2002 41.8998 59.6002 41.6998 60.0002 41.3998C61.1002 41.1998 62.2002 40.9998 63.3002 40.7998Z" fill="white"/>
<path d="M86.9998 55.4004C87.4998 56.0004 87.1998 56.8004 86.2998 57.5004C86.5998 56.8004 86.7998 56.1004 86.9998 55.4004Z" fill="white"/>
<path d="M36.0996 24.2004C36.1996 22.8004 36.1996 21.4004 36.2996 19.9004C36.1996 21.3004 36.0996 22.8004 36.0996 24.2004Z" fill="white"/>
<path d="M38.9004 17.3998C39.3004 17.3998 39.7004 17.2998 40.1004 17.2998C39.7004 17.3998 39.3004 17.3998 38.9004 17.3998Z" fill="white"/>
<path d="M61.9004 41.9998C61.9004 41.8998 61.9004 41.8998 61.9004 41.7998C62.4004 41.7998 62.8004 41.7998 63.3004 41.7998C62.8004 41.7998 62.3004 41.8998 61.9004 41.9998Z" fill="white"/>
<path d="M35.7998 25.6004C35.8998 25.2004 35.8998 24.8004 35.9998 24.4004C35.9998 24.8004 35.8998 25.2004 35.7998 25.6004Z" fill="white"/>
<path d="M35.5996 27.9004C35.6996 27.7004 35.6996 27.6004 35.7996 27.4004C35.6996 27.6004 35.6996 27.8004 35.5996 27.9004Z" fill="white"/>
<path d="M38.8998 58.7002C38.8998 58.8002 38.8998 58.8002 38.8998 58.7002C38.8998 58.8002 38.8998 58.8002 38.7998 58.8002C38.7998 58.8002 38.7998 58.8002 38.8998 58.7002C38.7998 58.8002 38.8998 58.7002 38.8998 58.7002Z" fill="white"/>
<path d="M36.5996 19.5C36.6996 19.3 36.6996 19.2 36.7996 19C36.6996 19.2 36.5996 19.3 36.5996 19.5Z" fill="white"/>
<path d="M14.7 44.6004C14.6 43.9004 14.6 43.2004 14.5 42.4004C14.5 43.2004 14.6 43.9004 14.7 44.6004Z" fill="white"/>
<path d="M19.0996 20.4002C19.2996 20.2002 19.3996 19.9002 19.5996 19.7002C19.4996 19.9002 19.2996 20.2002 19.0996 20.4002Z" fill="white"/>
<path d="M16.5996 25.7998C16.6996 25.5998 16.6996 25.4998 16.7996 25.2998C16.6996 25.4998 16.6996 25.6998 16.5996 25.7998Z" fill="white"/>
<path d="M19 20.7C19.1 20.6 19.1 20.5 19.2 20.5C19.1 20.5 19 20.6 19 20.7Z" fill="white"/>
<path d="M17.5 23.5002C17.6 23.4002 17.6 23.3002 17.7 23.2002C17.7 23.3002 17.6 23.4002 17.5 23.5002Z" fill="white"/>
<path d="M18.2998 21.8006C18.3998 21.7006 18.3998 21.6006 18.4998 21.6006C18.3998 21.7006 18.2998 21.8006 18.2998 21.8006Z" fill="white"/>
<path d="M18.5 21.4002C18.5 21.3002 18.5 21.3002 18.5 21.2002C18.6 21.2002 18.6 21.2002 18.7 21.2002C18.6 21.2002 18.6 21.3002 18.5 21.4002Z" fill="white"/>
<path d="M16.4004 26.3C16.4004 26.2 16.5004 26.1 16.5004 26C16.5004 26.1 16.5004 26.2 16.4004 26.3Z" fill="white"/>
<path d="M37.5 65.4004C37.7 65.6004 37.8 65.9004 38 66.1004C37.8 65.9004 37.6 65.7004 37.5 65.4004Z" fill="white"/>
<path d="M35.7002 61C35.8002 61.2 35.8002 61.3 35.9002 61.5C35.8002 61.3 35.7002 61.2 35.7002 61Z" fill="white"/>
<path d="M35.0996 58.7002C35.1996 58.9002 35.1996 59.0002 35.2996 59.2002C35.1996 59.0002 35.1996 58.8002 35.0996 58.7002Z" fill="white"/>
<path d="M36.0996 62.2002C36.1996 62.4002 36.1996 62.5002 36.2996 62.7002C36.1996 62.5002 36.0996 62.3002 36.0996 62.2002Z" fill="white"/>
<path d="M36.2998 62.9004C36.3998 63.1004 36.3998 63.2004 36.4998 63.4004C36.3998 63.2004 36.3998 63.1004 36.2998 62.9004Z" fill="white"/>
<path d="M35.7998 61.5C35.7998 61.6 35.8998 61.7 35.8998 61.7C35.8998 61.6 35.8998 61.6 35.7998 61.5Z" fill="white"/>
<path d="M35.4004 59.5C35.4004 59.6 35.5004 59.7 35.5004 59.8C35.5004 59.7 35.4004 59.6 35.4004 59.5Z" fill="white"/>
<path d="M34.9004 57.9004C35.0004 57.9004 35.0004 58.0004 35.1004 58.0004C35.1004 58.1004 35.1004 58.1004 35.0004 58.2004C35.0004 58.1004 34.9004 58.0004 34.9004 57.9004Z" fill="white"/>
<path d="M34.7002 57C34.7002 57.1 34.8002 57.2 34.8002 57.3C34.7002 57.2 34.7002 57.1 34.7002 57Z" fill="white"/>
<path d="M37.2002 65C37.3002 65.1 37.3002 65.1 37.4002 65.2C37.3002 65.2 37.3002 65.1 37.2002 65Z" fill="white"/>
<path d="M37 64.7998C37.1 64.8998 37.1 64.9998 37.2 65.0998C37.1 64.8998 37.1 64.7998 37 64.7998Z" fill="white"/>
<path d="M60.9004 12.2998C60.7004 11.9998 60.6004 11.6998 60.4004 11.2998C60.6004 11.5998 60.7004 11.8998 60.9004 12.2998Z" fill="white"/>
<path d="M66.7998 9.40039C66.5998 9.60039 66.4998 9.90039 66.2998 10.1004C66.4998 9.90039 66.5998 9.60039 66.7998 9.40039Z" fill="white"/>
<path d="M59.7996 9.4C59.6996 9.3 59.6996 9.1 59.5996 9C59.5996 9.1 59.6996 9.2 59.7996 9.4Z" fill="white"/>
<path d="M66.9998 8.90039C66.8998 9.10039 66.7998 9.20039 66.7998 9.40039C66.8998 9.20039 66.9998 9.10039 66.9998 8.90039Z" fill="white"/>
<path d="M65.7002 10.4004C65.5002 10.5004 65.3002 10.5004 65.2002 10.6004C65.3002 10.5004 65.5002 10.4004 65.7002 10.4004Z" fill="white"/>
<path d="M65 10.6006C64.8 10.6006 64.7 10.7006 64.5 10.7006C64.6 10.7006 64.8 10.6006 65 10.6006Z" fill="white"/>
<path d="M60.3998 11.3006C60.3998 11.2006 60.2998 11.1006 60.2998 11.1006C60.2998 11.1006 60.3998 11.2006 60.3998 11.3006Z" fill="white"/>
<path d="M63.1 11.2998C63.1 11.3998 63 11.3998 63 11.4998C63 11.3998 63.1 11.3998 63.1 11.2998Z" fill="white"/>
<path d="M60.0004 9.90059C60.0004 9.80059 59.9004 9.70059 59.9004 9.60059C59.9004 9.70059 59.9004 9.80059 60.0004 9.90059Z" fill="white"/>
<path d="M57.4998 41.8006C57.2998 41.9006 57.0998 42.0006 56.8998 42.0006C56.8998 41.9006 56.8998 41.9006 56.7998 41.8006C56.9998 41.7006 57.1998 41.7006 57.3998 41.6006C57.3998 41.8006 57.3998 41.8006 57.4998 41.8006Z" fill="white"/>
<path d="M35.5996 12.7006L35.6996 12.6006L35.5996 12.7006Z" fill="white"/>
<path d="M57.9004 8.2002C58.0004 8.3002 58.0004 8.4002 58.1004 8.5002C58.1004 8.5002 58.0004 8.5002 58.0004 8.6002C57.9004 8.4002 57.9004 8.3002 57.9004 8.2002Z" fill="white"/>
<path d="M57.5996 8C57.6996 8.1 57.7996 8.2 57.7996 8.2C57.7996 8.1 57.6996 8.1 57.5996 8Z" fill="white"/>
<path d="M64.2002 77.4002C64.3002 77.3002 64.3002 77.3002 64.4002 77.2002C64.3002 77.3002 64.3002 77.3002 64.2002 77.4002Z" fill="white"/>
<path d="M64 77.7C64.1 77.6 64.1 77.6 64.2 77.5C64.1 77.5 64 77.6 64 77.7Z" fill="white"/>
<path d="M63 78.6004C63.1 78.5004 63.1 78.4004 63.2 78.4004C63.2 78.5004 63.1 78.6004 63 78.6004Z" fill="white"/>
<path d="M60 80.9002C60.1 80.8002 60.2 80.8002 60.3 80.7002C60.3 80.8002 60.3 80.8002 60.3 80.9002H60.2H60Z" fill="white"/>
<path d="M89.6004 54C89.5004 53.8 89.4004 53.6 89.4004 53.5C90.2004 51.7 90.1004 49.8 90.3004 48C90.3004 47.8 90.6004 47.7 90.8004 47.5C90.6004 49.6 90.8004 51.9 89.6004 54Z" fill="white"/>
<path d="M51.4996 80.1006C51.1996 79.9006 50.8996 79.8006 50.5996 79.6006C50.8996 79.7006 51.1996 79.9006 51.4996 80.1006Z" fill="white"/>
<path d="M47.7998 77.6998C47.5998 77.5998 47.4998 77.3998 47.2998 77.2998C47.4998 77.3998 47.5998 77.4998 47.7998 77.6998Z" fill="white"/>
<path d="M49.8996 79.1004C49.7996 79.0004 49.6996 79.0004 49.5996 78.9004C49.6996 79.0004 49.7996 79.0004 49.8996 79.1004Z" fill="white"/>
<path d="M50.1004 79.3006C50.0004 79.2006 49.9004 79.2006 49.9004 79.1006C50.0004 79.2006 50.1004 79.2006 50.1004 79.3006Z" fill="white"/>
<path d="M50.5998 79.6004C50.4998 79.5004 50.3998 79.5004 50.2998 79.4004C50.3998 79.4004 50.4998 79.5004 50.5998 79.6004Z" fill="white"/>
<path d="M47.9998 77.9002C47.8998 77.8002 47.7998 77.7002 47.7998 77.7002C47.8998 77.8002 47.9998 77.8002 47.9998 77.9002Z" fill="white"/>
<path d="M48.2996 78.2C48.1996 78.1 48.0996 78 48.0996 78C48.0996 78 48.1996 78.1 48.2996 78.2Z" fill="white"/>
</svg>
