<svg width="129" height="83" viewBox="0 0 129 83" fill="none" xmlns="http://www.w3.org/2000/svg">
<path d="M6.61538 33.2727C6.9829 33.2727 7.53419 33.2727 7.90171 33.2727C16.5385 33.2727 25.1752 33.2727 33.6282 33.2727C34.1795 33.2727 34.547 33.2727 35.0983 33.0899C35.282 33.0899 35.6496 32.7243 35.6496 32.5414C35.6496 32.3586 35.282 31.993 35.0983 31.993C34.7308 31.8102 34.3632 31.8102 33.812 31.8102C24.9914 31.8102 15.9872 31.8102 7.16667 31.8102C4.96154 31.8102 3.30769 31.0789 2.02137 29.4335C1.28632 28.7022 0.735043 27.7881 0 26.874C13.5983 26.874 27.0128 26.874 40.4273 26.874C41.3461 31.0789 43.3675 34.7353 46.4914 37.8432C49.6154 40.7683 53.2906 42.9622 57.1496 44.6075C56.047 48.4468 52.0043 51.3719 47.7778 51.3719C44.6538 51.3719 41.5299 51.3719 38.2222 51.3719C34.3632 51.3719 30.5043 51.3719 26.6453 51.3719C22.9701 51.3719 20.765 49.3609 18.9273 46.2529C19.4786 46.2529 19.8461 46.2529 20.2137 46.2529C27.0128 46.2529 33.812 46.2529 40.6111 46.2529C41.3461 46.2529 42.0812 46.4357 42.2649 45.5216C42.2649 45.3388 41.1624 44.9732 40.6111 44.9732C33.812 44.9732 27.1966 44.9732 20.3974 44.9732C16.7222 44.9732 14.5171 42.7793 12.6795 39.8542C13.2308 39.8542 13.782 39.8542 14.1496 39.8542C21.8675 39.8542 29.7692 39.8542 37.4872 39.8542C38.2222 39.8542 39.141 40.037 39.141 39.1229C39.141 38.9401 38.0385 38.5745 37.4872 38.5745C29.5855 38.5745 21.5 38.5745 13.5983 38.5745C10.2906 38.3917 7.53419 36.1978 6.61538 33.2727Z" fill="white"/>
<path d="M110.073 46.2529C108.786 49.178 105.846 51.3719 102.906 51.3719C95.7393 51.3719 88.3889 51.3719 81.2222 51.3719C77.1795 51.3719 72.953 48.2639 72.0342 44.6075C75.8932 42.9622 79.5684 40.7683 82.6923 37.8432C85.8162 34.7353 87.8376 31.0789 88.7564 26.874C102.171 26.874 115.585 26.874 129 26.874C128.265 29.4335 125.141 31.8102 122.752 31.8102C113.748 31.8102 104.744 31.8102 95.7393 31.8102C95.0043 31.8102 93.7179 31.4445 93.7179 32.5414C93.7179 33.6384 95.0043 33.4555 95.7393 33.4555C104.192 33.4555 112.829 33.4555 121.282 33.4555C121.65 33.4555 122.201 33.4555 122.568 33.4555C121.833 36.1978 118.893 38.5745 116.32 38.5745C108.235 38.5745 100.15 38.5745 92.0641 38.5745C91.3291 38.5745 90.4102 38.3917 90.4102 39.3058C90.4102 39.4886 91.5128 39.8542 92.0641 39.8542C99.782 39.8542 107.684 39.8542 115.402 39.8542C115.769 39.8542 116.137 39.8542 116.504 39.8542C115.585 42.2309 112.278 45.156 109.154 44.9732C102.355 44.7904 95.5555 44.9732 88.7564 44.9732C88.2051 44.9732 87.2863 44.7904 87.1026 45.7045C87.1026 45.8873 88.2051 46.4357 88.7564 46.4357C95.5555 46.4357 102.355 46.4357 109.154 46.4357C109.338 46.2529 109.705 46.2529 110.073 46.2529Z" fill="white"/>
<path d="M110.441 82.8173C107.684 82.8173 105.111 82.8173 102.355 82.8173C102.171 81.9032 101.988 80.8062 101.988 79.7093C99.2311 79.7093 96.6585 79.7093 93.9021 79.7093C93.7183 79.7093 93.3508 80.2578 93.167 80.4406C92.6158 82.4516 91.5132 83.0001 89.4918 82.8173C87.6542 82.6344 85.6329 82.8173 83.4277 82.8173C83.6115 82.4516 83.6115 82.086 83.7953 81.9032C87.838 73.6763 91.8807 65.6322 95.9235 57.4053C96.291 56.674 96.6585 56.4912 97.3935 56.4912C99.7824 56.4912 102.355 56.4912 104.928 56.4912C106.949 65.2666 108.787 74.0419 110.441 82.8173ZM99.7824 64.7181C98.3123 68.0089 97.026 71.1168 95.7397 74.2247C97.5773 74.2247 99.2311 74.2247 101.069 74.2247C100.701 71.1168 100.15 68.0089 99.7824 64.7181Z" fill="white"/>
<path d="M53.6582 56.4912C55.4958 65.2666 57.1497 74.0419 58.9873 82.8173C56.2309 82.8173 53.6582 82.8173 51.0855 82.8173C50.9018 81.9032 50.718 80.8062 50.5343 79.7093C49.4317 79.7093 48.1454 79.7093 47.0428 79.7093C46.3078 79.7093 45.5727 79.8921 44.8377 79.7093C42.8163 79.3437 41.53 80.075 40.9787 82.086C40.9787 82.4516 40.4274 82.8173 40.0599 82.8173C37.4873 82.8173 34.9146 82.8173 32.1582 82.8173C32.342 82.4516 32.5257 82.086 32.7095 81.7203C36.7522 73.6763 40.6112 65.4494 44.6539 57.4053C45.0214 56.674 45.389 56.4912 46.124 56.4912C48.6967 56.674 51.0855 56.4912 53.6582 56.4912ZM48.3291 65.0837H48.1454C46.8591 68.1917 45.5727 71.1168 44.2864 74.2247C46.124 74.2247 47.7779 74.2247 49.6155 74.2247C49.2479 71.1168 48.6967 68.1917 48.3291 65.0837Z" fill="white"/>
<path d="M86.7351 56.4912C86.3676 58.8679 85.8163 60.8789 85.4488 63.2555C83.0599 63.2555 80.8547 63.2555 78.2821 63.2555C77.3633 69.8371 76.2607 76.4186 75.3419 83.0001C72.4018 83.0001 69.6453 83.0001 66.8889 83.0001C67.8077 76.4186 68.9103 69.8371 69.8291 63.2555C67.2565 63.2555 64.8676 63.2555 62.2949 63.2555C62.6624 61.0617 63.03 59.0507 63.3975 57.2225C63.5812 56.4912 63.9488 56.674 64.5001 56.674C67.9915 56.674 71.2992 56.674 74.7906 56.674C78.2821 56.674 81.7735 56.674 85.265 56.674C85.8163 56.4912 86.1838 56.4912 86.7351 56.4912Z" fill="white"/>
<path d="M27.0127 82.8171C24.0726 82.8171 21.3161 82.8171 18.376 82.8171C20.2136 74.0417 21.8674 65.2664 23.705 56.6738C26.6452 56.6738 29.4016 56.6738 32.3418 56.6738C30.5042 65.4492 28.6666 74.0417 27.0127 82.8171Z" fill="white"/>
<path d="M55.4954 31.2623C53.8415 32.3592 52.1877 33.4562 50.3501 34.5531C47.0424 31.628 44.6535 26.3262 44.4697 21.0244C47.4099 21.0244 50.3501 21.0244 53.1065 21.0244C53.8415 24.3152 54.5766 27.7887 55.4954 31.2623Z" fill="white"/>
<path d="M78.8338 34.5523C76.9962 33.4554 75.3423 32.3585 73.6885 31.2615C74.4235 27.788 75.3423 24.4972 76.0774 20.8408C78.8338 20.8408 81.7739 20.8408 84.7141 20.8408C84.5304 26.1426 82.509 30.7131 78.8338 34.5523Z" fill="white"/>
<path d="M52.9229 19.3783C50.1665 19.3783 47.2263 19.3783 44.2861 19.3783C44.6537 14.0765 46.4913 9.506 50.1665 5.84961C52.0041 6.94653 53.8417 8.04345 55.3118 9.14036C54.5767 12.4311 53.8417 15.7219 52.9229 19.3783Z" fill="white"/>
<path d="M76.0774 19.1966C75.3423 15.7231 74.4235 12.4323 73.6885 8.95872C75.1586 8.04463 76.9962 6.94771 78.8338 5.66797C82.509 9.32436 84.5304 13.8949 84.8979 19.1966C81.7739 19.1966 78.8338 19.1966 76.0774 19.1966Z" fill="white"/>
<path d="M74.2396 20.842C74.2396 24.3156 73.5046 27.4235 72.0345 30.3486C69.8294 29.8002 67.6242 29.4345 65.2354 28.8861C65.2354 26.3266 65.2354 23.5843 65.2354 20.6592C68.3593 20.842 71.2995 20.842 74.2396 20.842Z" fill="white"/>
<path d="M74.2396 19.1963C71.1157 19.1963 68.3593 19.1963 65.2354 19.1963C65.2354 16.454 65.2354 13.7117 65.2354 10.9694C67.4405 10.4209 69.6456 10.0553 72.0345 9.50684C73.5046 12.6148 74.2396 15.7227 74.2396 19.1963Z" fill="white"/>
<path d="M63.765 11.1518C63.765 13.8941 63.765 16.6364 63.765 19.3787C60.8248 19.3787 57.8847 19.3787 54.7607 19.3787C54.7607 15.9051 55.4958 12.7972 56.9659 9.87207C59.3548 10.2377 61.5599 10.6033 63.765 11.1518Z" fill="white"/>
<path d="M54.9443 20.8408C58.0683 20.8408 60.8247 20.8408 63.9486 20.8408C63.9486 23.5831 63.9486 26.3254 63.9486 29.0677C61.7435 29.4333 59.5384 29.9818 57.1495 30.3474C55.6794 27.6052 54.9443 24.3144 54.9443 20.8408Z" fill="white"/>
<path d="M62.1114 0C60.09 2.55948 58.0687 5.11895 56.0473 7.86125C54.5772 6.94715 53.1071 6.03305 51.2695 4.75331C54.5772 2.01102 58.2524 0.548459 62.1114 0Z" fill="white"/>
<path d="M66.8887 0C70.7476 0.548459 74.4229 2.01102 77.7306 4.75331C76.0767 5.85023 74.4229 6.94715 72.9528 7.86125C70.9314 5.11895 68.91 2.55948 66.8887 0Z" fill="white"/>
<path d="M67.0723 40.0376C68.9099 37.6609 70.9312 35.1015 72.9526 32.542C74.4227 33.4561 75.8928 34.3702 77.7304 35.4671C75.1577 37.8438 68.9099 40.4032 67.0723 40.0376Z" fill="white"/>
<path d="M51.4531 35.2845C53.107 34.1876 54.5771 33.2735 56.0471 32.3594C58.0685 34.9189 59.9061 37.4783 61.7437 39.855C59.9061 40.4034 53.842 37.844 51.4531 35.2845Z" fill="white"/>
<path d="M65.4189 0.730469C67.9916 2.92431 70.013 5.30096 71.483 8.4089C69.4617 8.77454 67.4403 9.14018 65.4189 9.68864C65.4189 6.5807 65.4189 3.8384 65.4189 0.730469Z" fill="white"/>
<path d="M65.4189 39.4892C65.4189 36.5641 65.4189 33.639 65.4189 30.7139C67.4403 31.0795 69.4617 31.4451 71.483 31.8108C69.8292 34.7359 67.9916 37.2954 65.4189 39.4892Z" fill="white"/>
<path d="M57.7012 31.6272C59.7225 31.2615 61.7439 30.8959 63.7653 30.5303C63.7653 33.6382 63.7653 36.3805 63.7653 39.3056C61.1926 37.2946 59.355 34.7351 57.7012 31.6272Z" fill="white"/>
<path d="M57.7012 8.4089C59.1713 5.30096 61.1926 2.92431 63.7653 0.730469C63.7653 3.65559 63.7653 6.39788 63.7653 9.50582C61.7439 9.14018 59.9063 8.77454 57.7012 8.4089Z" fill="white"/>
</svg>
