<svg width="259" height="85" viewBox="0 0 259 85" fill="none" xmlns="http://www.w3.org/2000/svg">
<path d="M0 39.3482C0.0884403 39.1718 0.176881 38.9954 0.176881 38.819C0.176881 36.7905 0.442202 34.6737 0.884403 32.7334C0.972843 32.4688 0.884403 32.2924 0.972843 31.8514C1.94569 31.7632 2.91853 31.5868 3.97981 31.4986C7.87119 31.3222 11.7626 31.5868 15.6539 32.0278C19.9875 32.557 24.3211 33.0862 28.6547 33.7036C37.2334 35.0265 45.7236 36.7023 54.2139 38.7308C60.6701 40.3184 67.0378 41.9059 73.317 44.1991C75.528 44.9929 77.739 45.8748 79.7732 47.1978C80.1269 47.3742 80.3038 47.6388 80.0385 47.9916C76.4124 45.8748 72.5211 44.5519 68.5412 43.1407C68.3644 43.5817 68.0106 43.4935 67.5684 43.4053C59.7857 41.9941 51.9145 40.4066 44.1317 39.0836C39.3559 38.2898 34.5802 37.5843 29.8044 37.7606C28.4778 37.7606 27.0627 38.0252 25.7361 38.2898C24.5864 38.5544 23.6136 39.1718 23.2598 40.4066C19.8991 40.0538 16.4499 39.6128 13.0007 39.1718C12.9123 39.6128 12.9123 40.0538 12.8238 40.583C11.7626 40.4948 10.7897 40.4066 9.72843 40.4066C6.89834 40.2302 4.15669 40.142 1.3266 40.6712C0.972843 40.7594 0.530642 40.9358 0.176881 41.024C0 40.4948 0 39.8774 0 39.3482Z" fill="white"/>
<path d="M84.6375 24.6191C84.8144 24.6191 84.9912 24.6191 85.1681 24.6191C91.5358 24.6191 97.992 24.6191 104.36 24.6191C104.802 24.6191 105.067 24.7073 105.244 25.1483C108.693 32.1159 112.142 39.0836 115.592 46.0512C115.68 46.2276 115.768 46.404 115.945 46.6686C117.272 39.26 118.599 31.9395 119.925 24.7073C125.674 24.7073 131.422 24.7073 137.171 24.7073C134.518 38.9072 131.953 53.0188 129.3 67.1304C129.123 67.1304 128.946 67.1304 128.769 67.1304C123.463 67.1304 118.068 67.1304 112.762 67.1304C112.319 67.1304 112.142 67.0422 111.966 66.6012C108.516 59.8982 105.067 53.107 101.618 46.404C101.53 46.2276 101.441 46.0512 101.264 45.7866C100.91 47.4623 100.645 49.0499 100.291 50.6375C99.2301 55.9293 98.1688 61.3094 97.196 66.6012C97.1076 67.0422 96.9307 67.0422 96.5769 67.0422C94.3659 67.0422 92.2434 67.0422 90.0323 67.0422C86.2294 67.0422 82.338 67.0422 78.5351 67.0422C78.3582 67.0422 78.0929 67.0422 77.916 67.0422C87.8213 54.1654 90.0323 40.0537 84.6375 24.6191Z" fill="white"/>
<path d="M196.603 67.1298C196.426 65.3659 196.249 63.6019 195.984 61.838C195.807 61.838 195.63 61.838 195.454 61.838C191.297 61.838 187.14 61.838 182.983 61.838C182.541 61.838 182.364 62.0143 182.276 62.2789C181.568 63.7783 180.861 65.2777 180.153 66.777C180.065 67.0416 179.888 67.218 179.534 67.218C173.52 67.218 167.506 67.218 161.492 67.218C161.404 67.218 161.316 67.218 161.139 67.218C161.227 67.0416 161.316 66.8652 161.404 66.777C169.541 52.93 177.677 38.9947 185.814 25.1477C185.99 24.8831 186.167 24.7949 186.521 24.7949C192.8 24.7949 199.08 24.7949 205.27 24.7949C205.713 24.7949 205.801 24.9713 205.889 25.4123C208.012 34.6731 210.135 43.8456 212.257 53.1064C213.318 57.6927 214.38 62.1907 215.441 66.777C215.441 66.9534 215.529 67.1298 215.529 67.3062C209.25 67.1298 202.883 67.1298 196.603 67.1298ZM187.494 51.6952C189.882 51.6952 192.27 51.6952 194.569 51.6952C194.038 47.3735 193.596 43.14 193.066 38.7302C191.208 43.14 189.351 47.3735 187.494 51.6952Z" fill="white"/>
<path d="M146.546 38.378C143.185 38.378 139.912 38.378 136.552 38.378C137.436 33.7917 138.232 29.2054 139.028 24.6191C151.587 24.6191 164.145 24.6191 176.792 24.6191C175.908 29.2054 175.112 33.7917 174.316 38.378C171.043 38.378 167.771 38.378 164.499 38.378C162.73 47.9915 160.961 57.5169 159.192 67.0422C153.179 67.0422 147.253 67.0422 141.239 67.0422C142.919 57.5169 144.688 47.9915 146.546 38.378Z" fill="white"/>
<path d="M22.0215 50.8132C18.8377 50.4604 15.6538 50.1076 12.47 49.843C12.47 50.3722 12.5584 50.8132 12.5584 51.166C8.84391 50.9896 5.3063 50.725 1.68024 51.5188C1.5918 51.3424 1.50336 51.166 1.50336 50.9896C1.1496 49.0493 0.7074 47.1089 0.353638 45.1686C0.176758 44.3748 0.265198 43.4928 0.176758 42.699C0.176758 42.258 0.353638 42.0816 0.7074 41.9934C1.32648 41.9052 1.94556 41.7289 2.65309 41.6407C5.57162 41.3761 8.49015 41.5525 11.3202 41.817C14.4156 42.0816 17.5111 42.4344 20.6065 42.8754C25.736 43.581 30.8655 44.3748 35.9066 45.345C42.9819 46.6679 50.0571 48.1673 57.0439 50.0194C62.1734 51.4306 67.3914 52.7536 72.2556 54.8703C73.6707 55.4877 74.9973 56.2815 76.4123 56.987C76.7661 57.1634 76.8545 57.428 76.6776 57.7808C73.4938 55.5759 69.8677 54.5175 66.2417 53.2827C66.0648 53.1946 65.7995 53.2827 65.6226 53.3709C65.4457 53.3709 65.3573 53.3709 65.1804 53.3709C60.5815 52.489 56.071 51.607 51.4721 50.725C45.2813 49.5784 39.1789 48.5201 32.8997 47.9909C30.158 47.8145 27.5048 47.6381 24.7632 48.2555C24.4094 48.3437 24.1441 48.4319 23.7903 48.5201C22.9059 48.9611 22.11 49.5784 22.0215 50.8132Z" fill="white"/>
<path d="M68.895 33.2626C68.8066 33.439 68.8066 33.5272 68.8066 33.7036C65.888 33.1744 62.9695 32.557 60.051 32.0279C53.4179 30.7049 46.7849 29.4701 40.1519 28.6764C36.968 28.3236 33.7842 27.9708 30.6003 28.2354C29.4506 28.3236 28.3009 28.5882 27.1512 28.9409C26.3552 29.1173 25.7361 29.6465 25.2939 30.4403C25.2055 30.5285 24.9402 30.6167 24.8517 30.6167C21.7563 30.2639 18.6609 29.9111 15.5655 29.5583C15.0348 29.4701 14.858 29.6465 14.7695 30.0875C14.7695 30.3521 14.5926 30.5285 14.5926 30.7931C10.1706 30.6167 5.83705 30.0875 1.41504 30.7931C1.50348 30.3521 1.59192 29.9993 1.68036 29.6465C2.12256 28.5 2.47632 27.3534 2.91852 26.2068C3.36073 25.1484 3.80293 24.0901 4.15669 23.0317C4.33357 22.5907 4.59889 22.4143 5.04109 22.3261C6.27926 22.2379 7.42898 22.0615 8.66714 22.0615C12.5585 22.0615 16.4499 22.4143 20.3413 22.8553C22.0216 23.0317 23.7904 23.2081 25.4708 23.4727C28.0356 23.8255 30.6003 24.1783 33.0767 24.6193C38.2946 25.5012 43.5126 26.3832 48.6422 27.5298C56.8671 29.2937 65.0036 31.4105 72.9632 34.1446C75.4396 35.0266 77.8275 35.9086 80.1269 37.2315C80.5691 37.4961 80.746 37.6725 80.6576 38.2017C76.9431 35.8204 72.8748 34.6738 68.895 33.2626Z" fill="white"/>
<path d="M71.0176 66.2483C70.9292 66.4247 70.8407 66.5129 70.7523 66.6011C70.6639 66.6011 70.5754 66.5129 70.5754 66.5129C67.8338 64.8372 64.7384 63.7788 61.7314 62.7204C61.2892 62.6322 60.847 62.8086 60.4048 62.7204C55.2752 61.7503 50.1457 60.6037 45.0162 59.7217C40.0635 58.8397 35.1109 58.046 30.0698 58.046C28.3894 58.046 26.709 58.1342 25.1171 58.6633C23.8789 59.1043 22.8177 59.7217 22.5523 61.1329C22.4639 61.3975 22.4639 61.7503 22.4639 62.0149C19.8991 61.7503 17.3344 61.4857 14.6811 61.2211C14.858 61.7503 14.9465 62.1913 15.1233 62.6322C12.4701 62.544 9.81693 62.2795 7.16372 63.0732C4.95271 59.8981 3.36078 56.3702 2.03418 52.4895C2.91858 52.4013 3.71455 52.1367 4.59895 52.1367C7.42904 52.1367 10.1707 52.2249 13.0008 52.4013C18.5725 52.7541 24.0558 53.6361 29.5391 54.6063C37.6756 56.0174 45.8121 57.6932 53.8602 59.8099C58.3707 61.0447 62.8811 62.2795 67.1262 64.1316C68.3644 64.6608 69.5141 65.2782 70.6639 65.8956C70.6639 65.9838 70.8407 66.1602 71.0176 66.2483Z" fill="white"/>
<path d="M78.4461 27.5291C75.0853 25.5888 71.4593 24.4422 67.8332 23.2074C67.8332 23.2956 67.8332 23.2956 67.8332 23.3838C67.5679 23.3838 67.391 23.5602 67.1257 23.472C61.6424 22.3255 56.1591 21.1789 50.5874 20.1205C46.5191 19.3267 42.5393 18.6212 38.3826 18.2684C35.9947 18.092 33.6068 18.0038 31.2189 18.7094C30.0692 19.0622 29.0964 19.6795 28.4773 20.7379C28.3888 20.8261 28.1235 20.9143 27.9466 20.9143C26.0009 20.6497 24.1437 20.4733 22.198 20.2087C21.0483 20.0323 19.8101 19.9441 18.6604 19.7677C18.572 19.7677 18.572 19.8559 18.572 19.8559C18.0413 20.9143 18.0413 20.9143 16.8032 20.9143C14.2384 20.8261 11.7621 20.6497 9.19728 20.5615C7.78224 20.5615 6.36719 20.7379 4.95215 20.8261C5.57123 19.8559 6.10187 18.7976 6.80939 17.8274C7.78224 16.4162 8.93196 15.0933 9.99325 13.6821C10.347 13.2411 10.7892 13.1529 11.2314 13.1529C13.7077 13.1529 16.1841 13.0647 18.572 13.2411C25.205 13.6821 31.7496 14.5641 38.2941 15.7106C48.9954 17.5628 59.5198 19.7677 69.8673 23.2074C72.5206 24.0894 74.9969 25.236 77.5616 26.2944C78.1807 26.559 78.4461 26.9117 78.4461 27.5291Z" fill="white"/>
<path d="M72.6096 16.5925C69.7795 14.9167 66.5957 13.9466 63.4118 12.8882C63.5003 13.0646 63.5003 13.1528 63.5003 13.1528C63.5003 13.241 63.5887 13.241 63.6772 13.3292C63.5887 13.3292 63.5003 13.3292 63.4118 13.3292C59.8742 12.5354 56.425 11.7416 52.8874 11.036C49.3498 10.3305 45.8122 9.71308 42.2746 9.27209C40.2405 9.0075 38.2063 9.0075 36.2607 9.53668C34.9341 9.88947 33.8728 10.6833 32.9884 11.7416C32.8115 12.0062 32.5462 12.0944 32.1924 12.0062C29.7161 11.6534 27.3282 11.3888 24.8519 11.036C24.4981 10.9478 24.3212 11.1242 24.2328 11.3888C23.7906 12.1826 23.1715 12.359 22.2871 12.2708C18.8379 11.918 15.4772 11.6534 12.028 11.918C11.9396 11.918 11.9396 11.918 11.7627 11.918C12.5587 11.2124 13.2662 10.5069 13.9737 9.88947C15.3003 8.8311 16.5385 7.77273 17.9535 6.80256C18.5726 6.36157 19.2801 5.92058 19.9876 5.56779C20.5183 5.39139 21.0489 5.3032 21.5796 5.3032C24.675 5.215 27.7704 5.3032 30.8658 5.74418C36.0838 6.53796 41.2133 7.24354 46.3429 8.12552C50.4995 8.9193 54.5678 9.97767 58.7245 10.9478C62.5274 11.918 66.3304 12.9764 69.9564 14.4758C70.5755 14.7403 71.1946 15.0931 71.8137 15.3577C72.2559 15.7105 72.6096 16.0633 72.6096 16.5925C72.6981 16.5925 72.6981 16.5925 72.6096 16.5925Z" fill="white"/>
<path d="M61.4665 74.5394C60.8474 74.8922 60.4936 74.804 60.0514 74.5394C58.1942 73.7456 56.3369 72.9519 54.4797 72.1581C54.3913 72.0699 54.1259 72.0699 54.1259 72.1581C53.7722 72.7755 53.33 72.4227 52.9762 72.3345C47.4929 71.0115 41.9212 69.6885 36.3494 68.8948C34.05 68.542 31.6621 68.4538 29.3626 68.2774C28.4782 68.1892 27.5054 68.3656 26.5326 68.6302C25.0291 68.983 24.5869 69.6003 24.5869 71.0997C22.9065 71.0115 21.3146 70.9233 19.4573 70.8351C19.8111 71.4525 20.1648 71.8935 20.5186 72.3345C19.4573 72.3345 18.396 72.2463 17.4232 72.3345C16.4504 72.5109 15.7428 72.1581 15.0353 71.6289C13.2665 70.1295 11.4977 68.6302 10.0827 66.778C9.46357 65.9842 8.75605 65.2787 8.13696 64.4849C8.04852 64.3967 7.96008 64.2203 7.7832 64.0439C8.57917 63.9557 9.28669 63.7793 9.99421 63.7793C12.6474 63.8675 15.3891 63.9557 18.0423 64.2203C21.7568 64.6613 25.4713 65.1023 29.0973 65.7196C33.6962 66.5134 38.3836 67.3954 42.9824 68.4538C48.112 69.6885 53.33 71.0115 58.2826 72.9519C59.2555 73.481 60.3168 74.0102 61.4665 74.5394Z" fill="white"/>
<path d="M65.7996 8.91979C64.6498 8.21421 63.5001 7.42043 62.2619 6.80305C57.3977 4.06892 52.1797 2.48136 46.608 1.86398C43.9548 1.59939 41.4785 2.04037 39.5328 4.06892C39.2675 4.33351 39.0021 4.33351 38.6484 4.33351C37.1449 4.06892 35.7298 3.80433 34.3148 3.53973C33.8726 3.45154 33.4304 3.45154 33.0766 3.80433C32.2807 4.50991 31.3963 4.59811 30.335 4.50991C27.9471 4.24532 25.5592 4.06892 23.2598 3.89253C30.1581 0.629211 37.4987 -0.605556 45.193 0.276421C52.8873 1.1584 59.7856 3.98072 65.888 8.8316C65.7996 8.8316 65.7996 8.91979 65.7996 8.91979Z" fill="white"/>
<path d="M49.1728 79.5665C48.819 79.5665 48.4653 79.5665 48.1115 79.4783C47.2271 79.2137 46.2543 78.8609 45.3699 78.5963C45.193 78.5081 44.9277 78.4199 44.7508 78.5081C44.3086 78.8609 43.9548 78.6845 43.5126 78.5963C40.6825 77.9789 37.8524 77.3616 35.0224 76.8324C33.342 76.4796 31.5732 76.3914 29.8928 76.215C29.5391 76.215 29.0969 76.3032 28.7431 76.3914C28.2124 76.5678 28.124 76.9206 28.3009 77.3616C28.5662 77.8908 28.92 78.2435 29.5391 78.4199C32.1038 79.3901 34.6686 80.0075 37.3218 80.3603C38.4715 80.5367 39.5328 80.6249 40.6825 80.7131C40.8594 80.7131 40.9479 80.8013 41.1247 80.8013C36.7027 80.8013 32.1923 80.1839 28.8315 79.1255C24.8517 77.8908 21.0488 76.1268 17.5996 73.6573C20.6066 72.2461 45.0161 76.7442 49.1728 79.4783V79.5665Z" fill="white"/>
<path d="M83.3992 72.5101C83.7529 72.5101 84.1067 72.5101 84.4604 72.5101C83.6645 76.5672 82.8685 80.6243 82.0725 84.5932C81.9841 84.5932 81.9841 84.5932 81.9841 84.5932C80.7459 84.6814 80.7459 84.6814 80.3037 83.5348C79.154 80.4479 77.9159 77.3609 76.7661 74.274C76.6777 74.0976 76.5892 73.9212 76.4124 73.7448C75.7933 77.3609 75.1742 80.8889 74.4667 84.505C74.0245 84.505 73.6707 84.505 73.2285 84.505C73.7592 81.5944 74.3782 78.6839 74.9089 75.7734C75.0858 74.8032 75.3511 73.7448 75.528 72.7747C75.6164 72.5101 75.7048 72.4219 75.9702 72.4219C76.943 72.4219 76.943 72.4219 77.2968 73.3039C78.5349 76.3026 79.7731 79.3895 80.9228 82.3882C81.0113 82.5646 81.0997 82.741 81.2766 82.9174C81.9841 79.4777 82.6916 75.9498 83.3992 72.5101Z" fill="white"/>
<path d="M184.221 84.5934C183.779 84.5934 183.425 84.5934 183.071 84.5934C182.894 83.4468 182.629 82.3003 182.452 81.0655C181.037 81.0655 179.622 81.0655 178.207 81.0655C177.588 81.0655 176.88 80.8891 176.438 81.1537C175.996 81.4183 175.731 82.1239 175.465 82.6531C175.2 83.0941 174.935 83.4468 174.758 83.976C174.493 84.6816 174.05 84.7698 173.343 84.5934C173.431 84.417 173.52 84.2406 173.608 84.1524C175.731 80.6245 177.765 77.0966 179.799 73.4805C180.241 72.6867 180.772 72.2457 181.745 72.5985C182.541 76.4792 183.425 80.5363 184.221 84.5934ZM180.949 73.5687C180.86 73.5687 180.86 73.5687 180.772 73.5687C179.534 75.7737 178.207 77.9786 176.969 80.1835C178.826 80.1835 180.506 80.1835 182.275 80.1835C181.833 77.9786 181.391 75.7737 180.949 73.5687Z" fill="white"/>
<path d="M229.503 84.5937C229.149 84.5937 228.884 84.5937 228.53 84.5937C228.618 84.0645 228.707 83.6236 228.795 83.0944C228.353 83.4472 227.911 83.8 227.38 84.1527C226.496 84.6819 225.523 84.9465 224.462 84.6819C223.489 84.4173 222.87 83.6236 222.87 82.5652C222.781 80.8012 223.754 79.3901 225.7 78.9491C226.85 78.6845 227.999 78.6845 229.238 78.5963C229.68 78.5963 229.857 78.5081 229.857 78.0671C229.857 77.5379 229.945 77.0087 229.857 76.4795C229.768 75.774 229.326 75.333 228.618 75.2448C227.469 75.0684 226.496 75.5094 225.788 76.4795C225.611 76.7441 225.435 77.0087 225.258 77.2733C224.992 77.1851 224.727 77.0969 224.462 77.0087C224.727 75.8622 226.142 74.6274 227.469 74.5392C227.911 74.5392 228.442 74.451 228.884 74.5392C230.387 74.8038 231.183 75.8622 230.918 77.6261C230.476 79.9193 229.945 82.2124 229.503 84.5937ZM229.591 79.2137C228.265 79.3901 227.115 79.4783 225.877 79.7429C224.727 80.0075 224.108 80.8894 224.108 82.1242C224.108 83.4472 224.904 84.1527 226.142 83.8C227.292 83.5354 228.088 82.7416 228.972 82.036C229.061 81.9478 229.061 81.8596 229.149 81.7714C229.237 80.9776 229.414 80.1839 229.591 79.2137Z" fill="white"/>
<path d="M128.062 84.5931C127.708 84.5931 127.443 84.5931 127.089 84.5931C127.177 84.0639 127.266 83.6229 127.354 83.0938C127 83.3583 126.647 83.6229 126.381 83.8875C125.585 84.5049 124.701 84.8577 123.64 84.7695C122.313 84.6813 121.429 83.7111 121.429 82.4764C121.429 80.977 122.225 79.7422 123.64 79.2131C124.524 78.8603 125.409 78.7721 126.293 78.6839C126.912 78.5957 127.531 78.6839 128.327 78.6839C128.327 77.9783 128.415 77.2727 128.327 76.5671C128.15 75.5088 127.089 74.9796 125.762 75.4206C124.789 75.6852 124.259 76.4789 123.728 77.3609C123.463 77.2727 123.198 77.1845 122.932 77.0963C123.64 75.156 125.939 74.0976 127.885 74.715C128.769 75.0678 129.388 75.6852 129.388 76.6553C129.388 77.6255 129.211 78.5957 129.035 79.4776C128.946 80.3596 128.681 81.2416 128.592 82.1236C128.415 82.9174 128.239 83.7111 128.062 84.5931ZM128.062 79.2131C126.824 79.3895 125.674 79.3895 124.524 79.654C123.286 79.9186 122.578 80.8006 122.578 82.1236C122.578 83.4465 123.374 84.0639 124.613 83.7993C125.762 83.5347 126.647 82.741 127.531 82.0354C127.62 81.9472 127.62 81.859 127.708 81.7708C127.796 80.977 127.973 80.1832 128.062 79.2131Z" fill="white"/>
<path d="M91.0931 84.5929C90.7393 84.5929 90.474 84.5929 90.1202 84.5929C90.2087 84.1519 90.2971 83.6227 90.3856 83.0935C89.9434 83.4463 89.678 83.7109 89.3243 83.8873C88.5283 84.4165 87.6439 84.7693 86.6711 84.7693C85.5213 84.6811 84.7254 83.7991 84.6369 82.7408C84.4601 80.7122 85.6098 79.301 87.7323 78.8601C88.4399 78.6837 89.1474 78.6837 89.8549 78.5955C90.2971 78.5955 90.8278 78.5955 91.4468 78.5955C91.4468 77.8899 91.5353 77.2725 91.4468 76.5669C91.3584 75.4203 90.2087 74.8912 88.8821 75.3321C88.0861 75.5967 87.5555 76.0377 86.8479 77.2725C86.6711 77.1843 86.4057 77.0961 86.1404 77.0079C86.8479 74.9794 89.2358 73.921 91.1815 74.7148C92.1544 75.1557 92.685 76.1259 92.5081 77.4489C92.3312 78.8601 91.9775 80.2712 91.8006 81.6824C91.4468 82.6526 91.27 83.6227 91.0931 84.5929ZM91.0931 79.2128C89.7665 79.3892 88.5283 79.4774 87.3786 79.8302C85.8751 80.183 85.4329 81.5942 85.6982 82.8289C85.8751 83.5345 86.3173 83.8873 87.0248 83.8873C88.5283 83.8873 89.5896 82.9171 90.6509 81.947C90.6509 81.947 90.6509 81.8588 90.7393 81.8588C90.8278 81.065 90.9162 80.183 91.0931 79.2128Z" fill="white"/>
<path d="M204.916 84.7696C202.882 84.7696 201.555 83.5348 201.467 81.3299C201.379 79.4777 201.821 77.7138 202.97 76.2144C204.032 74.8033 205.447 74.1859 207.216 74.4505C208.808 74.6269 209.869 75.8616 209.869 77.6256C209.957 79.6541 209.427 81.5063 208.1 83.182C207.393 84.2404 206.243 84.7696 204.916 84.7696ZM208.896 78.0666C208.896 77.802 208.896 77.5374 208.896 77.2728C208.719 75.7734 207.835 75.0678 206.331 75.156C205.358 75.2442 204.562 75.6852 204.032 76.479C202.882 78.1548 202.528 80.0951 202.794 82.1237C202.97 83.2702 203.678 83.7994 204.828 83.7994C206.066 83.7994 206.95 83.182 207.658 82.2119C208.542 81.0653 208.808 79.5659 208.896 78.0666Z" fill="white"/>
<path d="M241.442 80.9774C241.531 79.0371 241.885 77.2731 243.211 75.7737C244.272 74.539 245.599 74.1862 247.191 74.4508C248.694 74.7154 249.667 75.8619 249.756 77.5377C249.844 79.5662 249.314 81.5066 248.075 83.0941C247.014 84.4171 245.688 84.8581 244.007 84.6817C242.504 84.4171 241.619 83.2705 241.442 81.5948C241.442 81.4184 241.442 81.1538 241.442 80.9774ZM248.694 78.0669C248.694 77.8023 248.694 77.5377 248.694 77.2731C248.518 75.9501 247.81 75.2446 246.483 75.2446C245.334 75.2446 244.449 75.6855 243.83 76.6557C242.681 78.3315 242.327 80.1836 242.592 82.2122C242.769 83.4469 243.565 83.9761 244.715 83.9761C245.953 83.9761 246.749 83.3587 247.456 82.3886C248.341 81.0656 248.694 79.6544 248.694 78.0669Z" fill="white"/>
<path d="M145.927 80.9774C146.015 79.0371 146.457 77.2731 147.784 75.862C148.845 74.6272 150.172 74.1862 151.764 74.4508C153.356 74.7154 154.417 75.9502 154.417 77.6259C154.417 79.6545 153.886 81.5066 152.648 83.0942C151.675 84.3289 150.26 84.8581 148.668 84.6817C147.253 84.5053 146.192 83.3588 146.015 81.7712C145.927 81.5066 145.927 81.242 145.927 80.9774ZM153.356 78.0669C153.356 77.8905 153.356 77.5377 153.267 77.2731C153.09 75.862 152.029 75.0682 150.614 75.1564C149.73 75.2446 149.022 75.6856 148.492 76.3029C147.165 77.9787 146.723 79.9191 146.988 82.0358C147.165 83.0942 147.961 83.7116 149.111 83.7998C150.349 83.8879 151.322 83.1824 152.029 82.2122C152.914 81.0656 153.267 79.6545 153.356 78.0669Z" fill="white"/>
<path d="M111.257 78.0666C111.169 79.8306 110.727 81.5945 109.666 83.0057C108.604 84.3287 107.278 84.8579 105.597 84.6815C104.359 84.5051 103.386 83.7113 103.209 82.4765C102.679 79.8306 103.209 77.4492 105.155 75.5089C106.305 74.3623 107.72 74.1859 109.223 74.5387C110.462 74.8915 111.169 75.9499 111.346 77.2729C111.257 77.6256 111.257 77.802 111.257 78.0666ZM104.005 81.1536C104.005 81.4181 104.094 81.7709 104.094 82.2119C104.359 83.3585 104.978 83.8877 106.128 83.8877C107.189 83.8877 108.074 83.4467 108.693 82.6529C110.019 80.9772 110.462 79.0368 110.108 76.9201C109.931 75.8617 109.223 75.3325 108.251 75.2443C106.924 75.0679 105.951 75.6853 105.332 76.7437C104.359 77.9784 104.094 79.4778 104.005 81.1536Z" fill="white"/>
<path d="M162.907 74.5391C163.261 74.5391 163.526 74.5391 163.88 74.5391C163.261 77.8906 162.553 81.2421 161.934 84.5936C161.58 84.5936 161.227 84.5936 160.873 84.5936C160.961 84.0644 161.05 83.6234 161.138 83.0942C160.784 83.3588 160.608 83.5352 160.342 83.7116C159.546 84.329 158.573 84.77 157.512 84.77C156.274 84.6818 155.39 83.7998 155.566 82.5651C155.832 80.8011 156.186 79.0371 156.539 77.2732C156.716 76.3912 156.893 75.5092 156.982 74.6273C157.335 74.6273 157.601 74.6273 158.043 74.6273C157.866 75.5092 157.689 76.4794 157.512 77.3614C157.247 78.9489 156.893 80.5365 156.628 82.1241C156.362 83.5352 157.158 84.2408 158.573 83.888C159.723 83.5352 160.608 82.8296 161.404 81.9477C161.669 81.6831 161.669 81.1539 161.757 80.7129C162.111 78.7726 162.465 76.8322 162.819 74.8919C162.819 74.7155 162.819 74.6273 162.907 74.5391Z" fill="white"/>
<path d="M119.04 84.5929C118.687 84.5929 118.421 84.5929 118.068 84.5929C118.068 84.4165 118.156 84.1519 118.156 83.9755C118.598 81.6824 119.129 79.3893 119.571 77.1843C119.836 75.8614 119.129 75.0676 117.802 75.3322C116.564 75.5086 115.591 76.2141 114.795 77.0961C114.53 77.3607 114.53 77.8899 114.441 78.2427C114.265 79.3011 114.088 80.3594 113.911 81.4178C113.734 82.4762 113.557 83.4464 113.292 84.5929C112.938 84.5929 112.673 84.5929 112.23 84.5929C112.85 81.2414 113.469 77.9781 114.176 74.6266C114.53 74.6266 114.795 74.6266 115.237 74.6266C115.149 75.0676 115.061 75.5086 114.972 76.126C115.237 75.9496 115.414 75.7732 115.591 75.685C116.476 74.9794 117.537 74.4502 118.687 74.4502C119.836 74.5384 120.632 75.244 120.544 76.3905C120.455 77.6253 120.19 78.8601 120.013 80.0066C119.659 81.5942 119.306 83.0936 119.04 84.5929Z" fill="white"/>
<path d="M256.477 84.6814C256.919 82.6529 257.361 80.6243 257.715 78.5958C257.803 77.8902 257.892 77.2728 257.892 76.5672C257.892 75.8617 257.45 75.4207 256.742 75.3325C255.858 75.2443 255.062 75.6853 254.354 76.1263C253.47 76.6554 252.939 77.361 252.762 78.5076C252.497 80.4479 252.055 82.3001 251.612 84.2404C251.612 84.3286 251.524 84.505 251.524 84.5932C251.259 84.5932 250.993 84.5932 250.64 84.5932C251.259 81.2417 251.966 77.8902 252.585 74.5387C252.939 74.5387 253.204 74.5387 253.647 74.5387C253.558 75.0679 253.381 75.5971 253.204 76.2145C253.47 76.0381 253.558 75.8617 253.735 75.7735C254.619 74.9797 255.592 74.3623 256.83 74.3623C258.334 74.3623 259.218 75.2443 258.953 76.7436C258.511 79.2132 258.069 81.7709 257.538 84.2404C257.538 84.4168 257.273 84.505 257.096 84.5932C256.919 84.6814 256.742 84.6814 256.477 84.6814Z" fill="white"/>
<path d="M192.977 82.3003C193.242 82.2121 193.507 82.1239 193.773 82.0357C193.861 82.2121 193.861 82.3003 193.949 82.4767C194.303 83.4469 195.188 83.9761 196.514 83.9761C197.575 83.9761 198.371 83.3587 198.637 82.3885C198.902 81.5066 198.637 80.8892 197.841 80.4482C197.222 80.0954 196.514 79.8308 195.895 79.5662C194.215 78.8606 193.773 77.0967 194.922 75.6855C195.895 74.5389 197.841 74.1862 199.167 74.8035C199.963 75.1563 200.317 75.8619 200.494 76.7439C200.229 76.8321 199.963 76.9203 199.61 77.0085C199.521 76.8321 199.433 76.6557 199.433 76.5675C198.991 75.5091 198.195 75.0681 196.956 75.3327C195.984 75.5091 195.364 76.3911 195.364 77.4495C195.364 78.0668 195.63 78.4196 196.16 78.6842C196.78 78.9488 197.31 79.1252 197.929 79.3898C199.963 80.1836 200.406 82.3003 198.902 83.8879C197.752 85.0345 195.63 85.3873 194.303 84.5053C193.596 83.8879 193.153 83.1823 192.977 82.3003Z" fill="white"/>
<path d="M192.623 76.6554C192.358 76.7436 192.093 76.8318 191.827 76.92C191.739 76.6554 191.65 76.479 191.562 76.3026C191.12 75.3324 190.235 74.9797 189.086 75.2443C188.113 75.5088 187.494 76.3026 187.494 77.2728C187.494 77.8902 187.759 78.3312 188.29 78.5076C188.82 78.7722 189.351 78.9485 189.97 79.1249C190.943 79.4777 191.739 80.0069 191.916 81.0653C192.093 82.3001 191.65 83.2702 190.678 83.9758C189.439 84.8578 188.024 84.946 186.609 84.3286C185.725 83.9758 185.283 83.182 185.194 82.2119C185.46 82.1237 185.725 82.0355 185.99 81.9473C186.167 82.9174 186.698 83.623 187.759 83.7994C188.732 83.9758 189.705 83.8876 190.412 83.0938C191.297 82.1237 191.031 80.8007 189.882 80.2715C189.263 80.0069 188.732 79.7423 188.113 79.4777C186.344 78.7722 185.902 77.0082 187.14 75.5088C188.113 74.4505 190.059 74.0095 191.297 74.7151C192.093 75.0679 192.535 75.7734 192.623 76.6554Z" fill="white"/>
<path d="M141.593 84.5938C141.239 84.5938 140.974 84.5938 140.532 84.5938C141.239 80.8895 141.858 77.1852 142.566 73.3927C141.416 73.3927 140.178 73.3927 139.028 73.3927C139.028 72.5107 139.028 72.5107 139.913 72.5107C142.212 72.5107 144.423 72.5107 146.723 72.5107C146.9 72.5107 147.165 72.5107 147.43 72.5107C147.342 72.8635 147.342 73.1281 147.342 73.3927C146.28 73.3927 145.219 73.3927 144.158 73.3927C143.804 73.3927 143.627 73.4809 143.539 73.9219C142.92 77.3616 142.301 80.8013 141.682 84.241C141.682 84.3292 141.593 84.4174 141.593 84.5938Z" fill="white"/>
<path d="M217.21 81.9471C217.475 82.0353 217.74 82.1235 218.006 82.2117C217.298 84.2402 214.822 85.2986 212.876 84.5048C212.08 84.152 211.638 83.6229 211.373 82.8291C210.488 80.5359 211.638 76.567 213.672 75.1559C214.91 74.2739 216.502 74.1857 217.564 74.8913C218.271 75.3323 218.713 76.0379 218.89 76.9198C218.625 77.008 218.271 77.0962 218.006 77.1844L217.917 77.0962C217.74 74.9795 215.264 74.8913 214.114 75.8615C213.849 76.0379 213.584 76.3025 213.407 76.567C212.257 78.2428 211.903 80.095 212.257 82.0353C212.522 83.4465 213.584 84.0638 214.999 83.7111C216.06 83.5347 216.768 83.0055 217.21 81.9471Z" fill="white"/>
<path d="M220.482 29.911C221.013 28.4116 221.455 27.0005 221.985 25.5011C222.339 24.5309 222.339 24.5309 223.489 24.6191C223.489 26.6477 223.489 28.7644 223.489 30.793C223.224 30.793 223.047 30.793 222.781 30.793C222.781 29.2054 222.781 27.6179 222.781 26.1185H222.693C222.428 26.9123 222.162 27.6179 221.897 28.4116C221.632 29.1172 221.366 29.8228 221.189 30.5284C221.101 30.8812 220.836 30.8812 220.57 30.8812C220.217 30.8812 220.128 30.793 220.04 30.5284C219.597 29.2054 219.155 27.8825 218.713 26.5595C218.625 26.3831 218.625 26.2949 218.448 26.1185C218.448 27.7061 218.448 29.2936 218.448 30.8812C218.182 30.8812 218.006 30.8812 217.74 30.8812C217.74 28.8526 217.74 26.7359 217.74 24.7073L217.829 24.6191C218.89 24.5309 218.89 24.5309 219.155 25.5011C219.509 27.0005 219.951 28.4116 220.482 29.911Z" fill="white"/>
<path d="M234.013 76.2147C233.571 76.2147 233.04 76.2147 232.51 76.2147C232.598 75.8619 232.598 75.5973 232.687 75.3327C233.04 75.3327 233.394 75.3327 233.748 75.3327C234.013 75.3327 234.19 75.2445 234.279 74.8917C234.367 74.4507 234.455 73.9215 234.544 73.4806C234.544 72.9514 234.898 72.5986 235.428 72.5104C235.605 72.5104 235.694 72.4222 235.871 72.334C235.694 73.3042 235.517 74.2743 235.34 75.2445C236.136 75.2445 236.843 75.2445 237.728 75.2445C237.639 75.5973 237.639 75.8619 237.551 76.2147C236.843 76.2147 236.224 76.2147 235.605 76.2147C235.34 76.2147 235.163 76.3029 235.163 76.5675C234.809 78.596 234.367 80.6246 233.925 82.6531C233.836 83.3587 234.013 83.6233 234.721 83.6233C235.251 83.6233 235.694 83.5351 236.224 83.4469C236.224 84.3289 236.224 84.3289 235.428 84.4171C234.898 84.5053 234.279 84.4171 233.66 84.3289C233.04 84.1525 232.775 83.5351 232.864 82.8295C233.129 80.7128 233.571 78.5078 234.013 76.2147Z" fill="white"/>
<path d="M99.0535 75.2442C98.9651 76.3026 99.0535 76.1262 98.1691 76.2144C97.6385 76.2144 97.1078 76.2144 96.5772 76.2144C96.3119 77.5373 96.0466 78.8603 95.7812 80.1833C95.6044 81.0653 95.4275 81.859 95.2506 82.741C95.1621 83.3584 95.339 83.623 95.9581 83.7112C96.2234 83.7112 96.4888 83.7112 96.7541 83.623C97.0194 83.623 97.2847 83.5348 97.55 83.4466C97.6385 84.1522 97.55 84.3286 96.8425 84.505C96.3119 84.5932 95.7812 84.5932 95.2506 84.505C94.4546 84.3286 94.1009 83.7112 94.2777 82.9174C94.6315 80.8889 95.0737 78.8603 95.4275 76.8318C95.4275 76.6554 95.5159 76.479 95.5159 76.2144C95.0737 76.2144 94.5431 76.2144 94.1009 76.2144C94.0124 75.2442 94.0124 75.2442 94.8968 75.3324C95.4275 75.3324 95.7812 75.2442 95.7812 74.6268C95.7812 74.274 95.9581 74.0094 95.9581 73.6566C96.0466 72.9511 96.4003 72.5101 97.1963 72.4219C97.0194 73.392 96.8425 74.274 96.6656 75.2442C97.55 75.2442 98.346 75.2442 99.0535 75.2442Z" fill="white"/>
<path d="M134.164 71.3637C133.368 75.7735 132.483 80.1834 131.687 84.5933C131.333 84.5933 130.98 84.5933 130.626 84.5933C131.068 82.3884 131.422 80.1834 131.864 77.9785C132.218 76.0381 132.572 74.0978 133.014 72.0692C133.102 71.1873 133.191 71.1873 134.164 71.3637Z" fill="white"/>
<path d="M171.043 74.4502C171.043 74.803 170.955 74.9794 170.955 75.0676C170.955 75.5086 170.778 75.685 170.336 75.685C169.009 75.685 168.037 76.4787 167.241 77.4489C166.975 77.7135 166.975 78.2427 166.887 78.6837C166.533 80.7122 166.091 82.6526 165.737 84.6811C165.383 84.6811 165.118 84.6811 164.676 84.6811C165.295 81.3296 165.914 77.9781 166.621 74.6266C166.975 74.6266 167.329 74.6266 167.683 74.6266C167.506 75.1558 167.417 75.7732 167.241 76.3905C167.86 75.9496 168.302 75.4204 168.921 75.1558C169.54 74.803 170.248 74.6266 171.043 74.4502Z" fill="white"/>
<path d="M220.481 84.5936C220.127 84.5936 219.774 84.5936 219.42 84.5936C220.039 81.2421 220.658 77.8906 221.366 74.5391C221.719 74.5391 222.073 74.5391 222.427 74.5391C221.808 77.8906 221.1 81.2421 220.481 84.5936Z" fill="white"/>
<path d="M100.026 84.5936C99.6724 84.5936 99.3186 84.5936 98.9648 84.5936C99.5839 81.2421 100.203 77.8906 100.911 74.5391C101.264 74.5391 101.618 74.5391 101.972 74.5391C101.264 77.9788 100.645 81.2421 100.026 84.5936Z" fill="white"/>
<path d="M237.462 84.5933C238.081 81.2418 238.7 77.8903 239.408 74.627C239.761 74.627 240.115 74.627 240.469 74.627C240.027 76.8319 239.673 78.9486 239.231 81.0654C239.054 81.9474 238.877 82.9175 238.7 83.7995C238.435 84.7697 238.435 84.7697 237.462 84.5933Z" fill="white"/>
<path d="M213.761 25.4126C213.053 25.4126 212.434 25.4126 211.727 25.4126C211.727 25.148 211.727 24.9716 211.727 24.707C213.407 24.707 214.999 24.707 216.679 24.707C216.679 24.9716 216.679 25.148 216.679 25.4126C216.06 25.4126 215.353 25.4126 214.645 25.4126C214.645 27.2648 214.645 29.0287 214.645 30.8809C214.291 30.8809 214.026 30.8809 213.761 30.8809C213.761 29.0287 213.761 27.2648 213.761 25.4126Z" fill="white"/>
<path d="M221.72 72.5978C221.72 72.4214 221.72 72.3332 221.72 72.245C221.897 71.0984 221.897 71.0984 223.135 71.2748C223.135 71.4512 223.046 71.7158 223.046 71.8922C222.958 72.0686 222.958 72.3332 222.869 72.5096C222.427 72.5978 222.073 72.5978 221.72 72.5978Z" fill="white"/>
<path d="M102.68 71.2754C102.414 72.8629 102.591 72.5984 101.265 72.5984C101.265 72.422 101.353 72.1574 101.353 71.981C101.442 71.8046 101.442 71.54 101.53 71.2754C101.884 71.2754 102.237 71.2754 102.68 71.2754Z" fill="white"/>
<path d="M239.673 72.5989C240.027 71.0996 239.673 71.1878 241.088 71.3642C241.088 71.4524 241.088 71.4524 241.088 71.5406C240.999 71.8934 240.911 72.2462 240.823 72.6871C240.469 72.5989 240.115 72.5989 239.673 72.5989Z" fill="white"/>
<path d="M66.0646 9.27271C65.9761 9.18451 65.8877 9.09632 65.8877 9.00812C65.8877 9.00812 65.9761 9.00812 65.9761 8.91992C66.0646 9.00812 66.153 9.09632 66.153 9.18451C66.153 9.18451 66.0646 9.18451 66.0646 9.27271Z" fill="white"/>
<path d="M72.6982 16.5928C72.6982 16.5928 72.6982 16.681 72.7867 16.681C72.6982 16.681 72.6982 16.681 72.6982 16.5928Z" fill="white"/>
</svg>
