<svg width="23" height="23" viewBox="0 0 23 23" fill="none" xmlns="http://www.w3.org/2000/svg">
<mask id="path-1-inside-1" fill="white">
<path d="M10.3897 15.8778C10.1409 15.6908 9.95431 15.5039 9.7055 15.2546C10.2031 14.756 10.7007 14.2574 11.1984 13.8212C14.8683 16.2517 19.3469 15.0053 21.5862 11.9515C23.7632 8.96002 23.39 4.65976 20.7153 2.10454C17.9784 -0.513004 13.7487 -0.699972 10.7629 1.60596C7.83943 3.97422 6.9064 8.33679 9.20788 11.7645C8.71027 12.2008 8.27485 12.6994 7.77723 13.1356C7.59062 12.9487 7.40402 12.7617 7.15521 12.5747C7.09301 12.637 7.0308 12.6994 7.0308 12.6994C4.91592 14.8183 2.73884 16.9373 0.623959 19.0563C0.499554 19.1809 0.375149 19.3055 0.312946 19.4302C-0.0602684 19.9911 -0.122469 20.6143 0.250746 21.2375C0.437351 21.5492 0.748363 21.8608 1.05938 22.1724C1.24598 22.3594 1.49479 22.6086 1.7436 22.7333C2.42783 23.1695 3.17426 23.0449 3.73408 22.5463C5.97336 20.365 8.21265 18.1214 10.3897 15.9401C10.3897 15.9401 10.3897 15.9401 10.3897 15.8778ZM15.4281 0.35951C19.4091 0.35951 22.5814 3.47564 22.6436 7.40195C22.7058 11.4529 19.5335 14.6937 15.4281 14.756C11.5094 14.756 8.39925 11.6399 8.21265 7.83821C8.08824 3.84957 11.2606 0.35951 15.4281 0.35951ZM9.89211 15.8778C9.82991 15.9401 9.82991 16.0025 9.76771 16.0025C7.65283 18.0591 5.60015 20.1157 3.48527 22.2347C2.92545 22.7956 2.11682 22.7956 1.55699 22.2347C1.30818 21.9854 1.05937 21.7361 0.810564 21.4868C0.561756 21.2375 0.375149 20.9259 0.375149 20.552C0.312946 20.0534 0.561756 19.7418 0.872768 19.4302C2.92545 17.3736 4.97812 15.3169 7.0308 13.3226C7.093 13.2603 7.09301 13.2603 7.15521 13.1979C8.08824 14.0705 9.02128 14.943 9.89211 15.8778ZM9.39449 12.1385C9.89211 12.637 10.3897 13.1356 10.8873 13.6342C10.4519 14.0705 9.95431 14.5067 9.5811 14.8807C9.02128 14.3821 8.52366 13.8835 8.02604 13.4472C8.52366 13.011 8.95908 12.5747 9.39449 12.1385Z"/>
</mask>
<path d="M10.3897 15.8778C10.1409 15.6908 9.95431 15.5039 9.7055 15.2546C10.2031 14.756 10.7007 14.2574 11.1984 13.8212C14.8683 16.2517 19.3469 15.0053 21.5862 11.9515C23.7632 8.96002 23.39 4.65976 20.7153 2.10454C17.9784 -0.513004 13.7487 -0.699972 10.7629 1.60596C7.83943 3.97422 6.9064 8.33679 9.20788 11.7645C8.71027 12.2008 8.27485 12.6994 7.77723 13.1356C7.59062 12.9487 7.40402 12.7617 7.15521 12.5747C7.09301 12.637 7.0308 12.6994 7.0308 12.6994C4.91592 14.8183 2.73884 16.9373 0.623959 19.0563C0.499554 19.1809 0.375149 19.3055 0.312946 19.4302C-0.0602684 19.9911 -0.122469 20.6143 0.250746 21.2375C0.437351 21.5492 0.748363 21.8608 1.05938 22.1724C1.24598 22.3594 1.49479 22.6086 1.7436 22.7333C2.42783 23.1695 3.17426 23.0449 3.73408 22.5463C5.97336 20.365 8.21265 18.1214 10.3897 15.9401C10.3897 15.9401 10.3897 15.9401 10.3897 15.8778ZM15.4281 0.35951C19.4091 0.35951 22.5814 3.47564 22.6436 7.40195C22.7058 11.4529 19.5335 14.6937 15.4281 14.756C11.5094 14.756 8.39925 11.6399 8.21265 7.83821C8.08824 3.84957 11.2606 0.35951 15.4281 0.35951ZM9.89211 15.8778C9.82991 15.9401 9.82991 16.0025 9.76771 16.0025C7.65283 18.0591 5.60015 20.1157 3.48527 22.2347C2.92545 22.7956 2.11682 22.7956 1.55699 22.2347C1.30818 21.9854 1.05937 21.7361 0.810564 21.4868C0.561756 21.2375 0.375149 20.9259 0.375149 20.552C0.312946 20.0534 0.561756 19.7418 0.872768 19.4302C2.92545 17.3736 4.97812 15.3169 7.0308 13.3226C7.093 13.2603 7.09301 13.2603 7.15521 13.1979C8.08824 14.0705 9.02128 14.943 9.89211 15.8778ZM9.39449 12.1385C9.89211 12.637 10.3897 13.1356 10.8873 13.6342C10.4519 14.0705 9.95431 14.5067 9.5811 14.8807C9.02128 14.3821 8.52366 13.8835 8.02604 13.4472C8.52366 13.011 8.95908 12.5747 9.39449 12.1385Z" fill="#D28F18"/>
<path d="M10.3897 15.8778L19.4008 3.88615L25.3897 8.38649V15.8778H10.3897ZM9.7055 15.2546L-0.911324 25.851L-11.4873 15.2546L-0.911324 4.65822L9.7055 15.2546ZM11.1984 13.8212L1.31 2.54197L9.92689 -5.01237L19.481 1.31523L11.1984 13.8212ZM21.5862 11.9515L33.7144 20.7779L33.6985 20.7998L33.6826 20.8215L21.5862 11.9515ZM20.7153 2.10454L10.3537 12.9506L10.3477 12.9449L20.7153 2.10454ZM10.7629 1.60596L1.32111 -10.0496L1.45642 -10.1592L1.59424 -10.2656L10.7629 1.60596ZM9.20788 11.7645L21.6612 3.403L29.0119 14.3508L19.0962 23.0437L9.20788 11.7645ZM7.77723 13.1356L17.6656 24.4148L7.09297 33.6837L-2.8396 23.732L7.77723 13.1356ZM7.15521 12.5747L-3.46162 1.97836L5.74613 -7.24718L16.1663 0.583062L7.15521 12.5747ZM7.0308 12.6994L-3.58603 2.103L-3.58593 2.1029L7.0308 12.6994ZM0.623959 19.0563L-9.99287 8.4599L0.623959 19.0563ZM0.312946 19.4302L13.7345 26.128L13.3179 26.9628L12.8011 27.7396L0.312946 19.4302ZM1.7436 22.7333L8.46216 9.32206L9.15469 9.66899L9.80779 10.0854L1.7436 22.7333ZM3.73408 22.5463L14.2006 33.2912L13.9605 33.525L13.7103 33.7479L3.73408 22.5463ZM10.3897 15.9401L-0.227098 5.34377L4.16805 0.940135H10.3897V15.9401ZM22.6436 7.40195L37.6417 7.16435L37.6418 7.17166L22.6436 7.40195ZM15.4281 14.756L15.6558 29.7543L15.542 29.756H15.4281V14.756ZM8.21265 7.83821L-6.76931 8.57361L-6.77588 8.43977L-6.78006 8.30583L8.21265 7.83821ZM9.89211 15.8778L20.8678 5.6536L30.7265 16.2369L20.5089 26.4742L9.89211 15.8778ZM9.76771 16.0025L-0.689798 5.24883L3.67682 1.00246H9.76771V16.0025ZM0.375149 20.552L15.2598 18.695L15.3751 19.6199V20.552H0.375149ZM7.0308 13.3226L17.6476 23.919L17.5661 24.0006L17.4834 24.081L7.0308 13.3226ZM7.15521 13.1979L-3.46162 2.60158L6.79541 -7.67526L17.4005 2.24197L7.15521 13.1979ZM9.39449 12.1385L-1.22234 1.5421L9.39449 -9.09523L20.0113 1.5421L9.39449 12.1385ZM10.8873 13.6342L21.5042 3.03784L32.0801 13.6342L21.5042 24.2306L10.8873 13.6342ZM9.5811 14.8807L20.1979 25.477L10.1873 35.507L-0.395096 26.0822L9.5811 14.8807ZM8.02604 13.4472L-1.86232 24.7264L-14.728 13.4472L-1.86232 2.16803L8.02604 13.4472ZM1.37862 27.8695C0.148117 26.9448 -0.756458 26.0061 -0.911324 25.851L20.3223 4.65822C20.3556 4.69152 20.3745 4.71051 20.391 4.72695C20.4063 4.74218 20.4099 4.74574 20.4067 4.74256C20.4017 4.73761 20.3481 4.68489 20.265 4.60749C20.0754 4.4311 19.7801 4.17112 19.4008 3.88615L1.37862 27.8695ZM-0.911324 4.65822C-0.489092 4.23517 0.368526 3.36735 1.31 2.54197L21.0867 25.1004C21.0939 25.094 21.0416 25.1399 20.8992 25.278C20.7504 25.4225 20.5861 25.5866 20.3223 25.851L-0.911324 4.65822ZM19.481 1.31523C15.7946 -1.12623 11.4858 0.359377 9.48976 3.08148L33.6826 20.8215C27.2079 29.6512 13.942 33.6297 2.91576 26.3271L19.481 1.31523ZM9.45793 3.12505C7.24315 6.16833 7.56049 10.2821 10.3537 12.9506L31.0769 -8.74154C39.2196 -0.962622 40.2833 11.7517 33.7144 20.7779L9.45793 3.12505ZM10.3477 12.9449C13.0564 15.5354 17.1391 15.6343 19.9316 13.4776L1.59424 -10.2656C10.3583 -17.0343 22.9005 -16.5614 31.0829 -8.73581L10.3477 12.9449ZM20.2048 13.2615C22.8808 11.0937 23.9921 6.87454 21.6612 3.403L-3.24542 20.1261C-10.1793 9.79904 -7.20194 -3.1453 1.32111 -10.0496L20.2048 13.2615ZM19.0962 23.0437C19.1583 22.9893 19.2058 22.9459 19.2362 22.9176C19.2516 22.9033 19.2634 22.8922 19.2711 22.8848C19.2788 22.8775 19.283 22.8734 19.2832 22.8733C19.2833 22.8731 19.2801 22.8762 19.2728 22.8834C19.2655 22.8906 19.255 22.9009 19.2403 22.9155C19.2076 22.948 19.1714 22.9843 19.1094 23.0464C19.0075 23.1485 18.8028 23.3541 18.5795 23.5705C18.346 23.7967 18.0347 24.0912 17.6656 24.4148L-2.11113 1.85642C-2.17323 1.91086 -2.22065 1.95425 -2.25109 1.98255C-2.26648 1.99685 -2.27825 2.00797 -2.28596 2.01531C-2.29366 2.02263 -2.29788 2.02671 -2.29805 2.02687C-2.29819 2.02701 -2.29499 2.02391 -2.28771 2.01675C-2.28037 2.00954 -2.26991 1.9992 -2.25522 1.98461C-2.22252 1.95212 -2.18627 1.91583 -2.12428 1.85372C-2.02236 1.7516 -1.81768 1.54603 -1.59438 1.32964C-1.36093 1.10341 -1.04961 0.808943 -0.680475 0.485327L19.0962 23.0437ZM-2.8396 23.732C-3.05912 23.512 -2.56304 24.035 -1.85591 24.5664L16.1663 0.583062C17.3711 1.48837 18.2404 2.38527 18.3941 2.53926L-2.8396 23.732ZM17.772 23.1711C17.7409 23.2023 17.7098 23.2335 17.6864 23.2568C17.6748 23.2685 17.665 23.2783 17.6582 23.2851C17.6548 23.2885 17.6522 23.2912 17.6503 23.293C17.6494 23.2939 17.6487 23.2946 17.6482 23.2951C17.648 23.2953 17.6478 23.2955 17.6477 23.2956C17.6477 23.2957 17.6476 23.2958 17.6476 23.2958C17.6476 23.2958 17.6475 23.2958 17.6475 23.2958C17.6475 23.2958 17.6475 23.2958 17.6475 23.2958C17.6475 23.2958 17.6475 23.2958 17.6475 23.2958C17.6475 23.2958 17.6475 23.2958 7.0308 12.6994C-3.58593 2.1029 -3.58593 2.1029 -3.58593 2.1029C-3.58592 2.1029 -3.58592 2.1029 -3.58592 2.1029C-3.58592 2.10289 -3.58592 2.10289 -3.58591 2.10289C-3.58591 2.10288 -3.5859 2.10287 -3.58588 2.10285C-3.58585 2.10282 -3.58581 2.10278 -3.58575 2.10272C-3.58563 2.1026 -3.58545 2.10242 -3.58521 2.10219C-3.58475 2.10172 -3.58405 2.10102 -3.58314 2.10011C-3.58132 2.09828 -3.57865 2.09561 -3.57525 2.0922C-3.56845 2.08539 -3.55874 2.07566 -3.54708 2.06398C-3.52377 2.04062 -3.49269 2.00949 -3.46162 1.97836L17.772 23.1711ZM17.6476 23.2957C16.545 24.4005 15.4329 25.4985 14.3666 26.5514C13.2869 27.6175 12.253 28.6384 11.2408 29.6526L-9.99287 8.4599C-8.89024 7.35514 -7.77811 6.2571 -6.71182 5.20424C-5.63213 4.13813 -4.59828 3.11721 -3.58603 2.103L17.6476 23.2957ZM11.2408 29.6526C11.1033 29.7904 11.4095 29.4921 11.7432 29.11C12.0528 28.7555 12.944 27.7121 13.7345 26.128L-13.1086 12.7323C-12.2559 11.0237 -11.2714 9.85555 -10.853 9.37646C-10.6019 9.08895 -10.3853 8.86107 -10.252 8.72321C-10.1251 8.59188 -10.009 8.47603 -9.99287 8.4599L11.2408 29.6526ZM12.8011 27.7396C13.8239 26.2025 14.836 23.9357 14.9823 21.0772C15.133 18.1329 14.3127 15.5233 13.1197 13.5311L-12.6182 28.944C-16.2901 22.8125 -15.388 15.9493 -12.1752 11.1208L12.8011 27.7396ZM13.1197 13.5311C12.7965 12.9914 12.4942 12.5747 12.2769 12.2938C12.0575 12.0102 11.8748 11.8007 11.7674 11.6812C11.5967 11.4911 11.4638 11.3632 11.6762 11.576L-9.55745 32.7687C-9.65609 32.6699 -10.1 32.2304 -10.5506 31.7287C-10.9935 31.2357 -11.8241 30.2701 -12.6182 28.944L13.1197 13.5311ZM11.6762 11.576C11.8181 11.7182 11.5624 11.4537 11.213 11.1503C11.0149 10.9783 10.7011 10.7172 10.2877 10.4213C9.88378 10.1323 9.26811 9.72581 8.46216 9.32206L-4.97496 36.1445C-6.71696 35.2718 -7.93055 34.259 -8.45664 33.8021C-9.03932 33.2962 -9.51279 32.8135 -9.55745 32.7687L11.6762 11.576ZM9.80779 10.0854C7.39221 8.54526 4.32546 7.71812 1.08862 8.08666C-2.03344 8.44212 -4.52062 9.81156 -6.24212 11.3447L13.7103 33.7479C8.77648 38.142 0.713249 39.8659 -6.32059 35.3812L9.80779 10.0854ZM-6.73247 11.8015C-4.58154 9.70627 -2.41688 7.53778 -0.227098 5.34377L21.0066 26.5365C18.8422 28.7051 16.5283 31.0238 14.2006 33.2912L-6.73247 11.8015ZM10.3897 15.9401C-4.61027 15.9401 -4.61027 15.9401 -4.61027 15.9401V15.9401C-4.61027 15.9401 -4.61027 15.9401 -4.61027 15.9401C-4.61027 15.9401 -4.61027 15.9401 -4.61027 15.9401V15.9401C-4.61027 15.9401 -4.61027 15.9401 -4.61027 15.9401C-4.61027 15.9401 -4.61027 15.9401 -4.61027 15.9401C-4.61027 15.9401 -4.61027 15.9401 -4.61027 15.9401V15.9401V15.9401V15.9401V15.9401V15.9401C-4.61027 15.9401 -4.61027 15.9401 -4.61027 15.9401C-4.61027 15.9401 -4.61027 15.9401 -4.61027 15.9401V15.9401C-4.61027 15.9401 -4.61027 15.9401 -4.61027 15.9401C-4.61027 15.9401 -4.61027 15.9401 -4.61027 15.9401V15.9401C-4.61027 15.9401 -4.61027 15.9401 -4.61027 15.9401C-4.61027 15.9401 -4.61027 15.9401 -4.61027 15.9401C-4.61027 15.9401 -4.61027 15.9401 -4.61027 15.9401C-4.61027 15.9401 -4.61027 15.9401 -4.61027 15.9401C-4.61027 15.9401 -4.61027 15.9401 -4.61027 15.9401C-4.61027 15.9401 -4.61027 15.9401 -4.61027 15.9401C-4.61027 15.9401 -4.61027 15.9401 -4.61027 15.9401C-4.61027 15.9401 -4.61027 15.9401 -4.61027 15.9401C-4.61027 15.9401 -4.61027 15.9401 -4.61027 15.9401C-4.61027 15.9401 -4.61027 15.9401 -4.61027 15.9401C-4.61027 15.9401 -4.61027 15.9401 -4.61027 15.9401C-4.61027 15.9401 -4.61027 15.9401 -4.61027 15.9401C-4.61027 15.9401 -4.61027 15.9401 -4.61027 15.9401C-4.61027 15.9401 -4.61027 15.9401 -4.61027 15.9401C-4.61027 15.9401 -4.61027 15.9401 -4.61027 15.9401C-4.61027 15.9401 -4.61027 15.9401 -4.61027 15.9401C-4.61027 15.9401 -4.61027 15.9401 -4.61027 15.9401C-4.61027 15.9401 -4.61027 15.9401 -4.61027 15.9401C-4.61027 15.9401 -4.61027 15.9401 -4.61027 15.9401C-4.61027 15.9401 -4.61027 15.9401 -4.61027 15.9401C-4.61027 15.9401 -4.61027 15.9401 -4.61027 15.9401C-4.61027 15.9401 -4.61027 15.9401 -4.61027 15.94C-4.61027 15.94 -4.61027 15.94 -4.61027 15.94C-4.61027 15.94 -4.61027 15.94 -4.61027 15.94C-4.61027 15.94 -4.61027 15.94 -4.61027 15.94C-4.61027 15.94 -4.61027 15.94 -4.61027 15.94C-4.61027 15.94 -4.61027 15.94 -4.61027 15.94C-4.61027 15.94 -4.61027 15.94 -4.61027 15.94C-4.61027 15.94 -4.61027 15.94 -4.61027 15.94C-4.61027 15.94 -4.61027 15.94 -4.61027 15.94C-4.61027 15.94 -4.61027 15.94 -4.61027 15.94C-4.61027 15.94 -4.61027 15.94 -4.61027 15.94C-4.61027 15.94 -4.61027 15.94 -4.61027 15.94C-4.61027 15.94 -4.61027 15.94 -4.61027 15.94C-4.61027 15.94 -4.61027 15.94 -4.61027 15.94C-4.61027 15.94 -4.61027 15.94 -4.61027 15.94C-4.61027 15.94 -4.61027 15.94 -4.61027 15.94C-4.61027 15.94 -4.61027 15.94 -4.61027 15.94C-4.61027 15.94 -4.61027 15.9399 -4.61027 15.9399C-4.61027 15.9399 -4.61027 15.9399 -4.61027 15.9399C-4.61027 15.9399 -4.61027 15.9399 -4.61027 15.9399C-4.61027 15.9399 -4.61027 15.9399 -4.61027 15.9399C-4.61027 15.9399 -4.61027 15.9399 -4.61027 15.9399C-4.61027 15.9399 -4.61027 15.9399 -4.61027 15.9399C-4.61027 15.9399 -4.61027 15.9399 -4.61027 15.9399C-4.61027 15.9399 -4.61027 15.9399 -4.61027 15.9399C-4.61027 15.9399 -4.61027 15.9399 -4.61027 15.9399C-4.61027 15.9399 -4.61027 15.9399 -4.61027 15.9399C-4.61027 15.9399 -4.61027 15.9399 -4.61027 15.9399C-4.61027 15.9399 -4.61027 15.9399 -4.61027 15.9398C-4.61027 15.9398 -4.61027 15.9398 -4.61027 15.9398C-4.61027 15.9398 -4.61027 15.9398 -4.61027 15.9398C-4.61027 15.9398 -4.61027 15.9398 -4.61027 15.9398C-4.61027 15.9398 -4.61027 15.9398 -4.61027 15.9398C-4.61027 15.9398 -4.61027 15.9398 -4.61027 15.9398C-4.61027 15.9398 -4.61027 15.9398 -4.61027 15.9398C-4.61027 15.9398 -4.61027 15.9398 -4.61027 15.9398C-4.61027 15.9398 -4.61027 15.9398 -4.61027 15.9398C-4.61027 15.9398 -4.61027 15.9398 -4.61027 15.9397C-4.61027 15.9397 -4.61027 15.9397 -4.61027 15.9397C-4.61027 15.9397 -4.61027 15.9397 -4.61027 15.9397C-4.61027 15.9397 -4.61027 15.9397 -4.61027 15.9397C-4.61027 15.9397 -4.61027 15.9397 -4.61027 15.9397C-4.61027 15.9397 -4.61027 15.9397 -4.61027 15.9397C-4.61027 15.9397 -4.61027 15.9397 -4.61027 15.9397C-4.61027 15.9397 -4.61027 15.9397 -4.61027 15.9397C-4.61027 15.9397 -4.61027 15.9396 -4.61027 15.9396C-4.61027 15.9396 -4.61027 15.9396 -4.61027 15.9396C-4.61027 15.9396 -4.61027 15.9396 -4.61027 15.9396C-4.61027 15.9396 -4.61027 15.9396 -4.61027 15.9396C-4.61027 15.9396 -4.61027 15.9396 -4.61027 15.9396C-4.61027 15.9396 -4.61027 15.9396 -4.61027 15.9396C-4.61027 15.9396 -4.61027 15.9396 -4.61027 15.9395C-4.61027 15.9395 -4.61027 15.9395 -4.61027 15.9395C-4.61027 15.9395 -4.61027 15.9395 -4.61027 15.9395C-4.61027 15.9395 -4.61027 15.9395 -4.61027 15.9395C-4.61027 15.9395 -4.61027 15.9395 -4.61027 15.9395C-4.61027 15.9395 -4.61027 15.9395 -4.61027 15.9395C-4.61027 15.9395 -4.61027 15.9395 -4.61027 15.9394C-4.61027 15.9394 -4.61027 15.9394 -4.61027 15.9394C-4.61027 15.9394 -4.61027 15.9394 -4.61027 15.9394C-4.61027 15.9394 -4.61027 15.9394 -4.61027 15.9394C-4.61027 15.9394 -4.61027 15.9394 -4.61027 15.9394C-4.61027 15.9394 -4.61027 15.9394 -4.61027 15.9394C-4.61027 15.9393 -4.61027 15.9393 -4.61027 15.9393C-4.61027 15.9393 -4.61027 15.9393 -4.61027 15.9393C-4.61027 15.9393 -4.61027 15.9393 -4.61027 15.9393C-4.61027 15.9393 -4.61027 15.9393 -4.61027 15.9393C-4.61027 15.9393 -4.61027 15.9393 -4.61027 15.9392C-4.61027 15.9392 -4.61027 15.9392 -4.61027 15.9392C-4.61027 15.9392 -4.61027 15.9392 -4.61027 15.9392C-4.61027 15.9392 -4.61027 15.9392 -4.61027 15.9392C-4.61027 15.9392 -4.61027 15.9392 -4.61027 15.9392C-4.61027 15.9392 -4.61027 15.9391 -4.61027 15.9391C-4.61027 15.9391 -4.61027 15.9391 -4.61027 15.9391C-4.61027 15.9391 -4.61027 15.9391 -4.61027 15.9391C-4.61027 15.9391 -4.61027 15.9391 -4.61027 15.9391C-4.61027 15.9391 -4.61027 15.9391 -4.61027 15.939C-4.61027 15.939 -4.61027 15.939 -4.61027 15.939C-4.61027 15.939 -4.61027 15.939 -4.61027 15.939C-4.61027 15.939 -4.61027 15.939 -4.61027 15.939C-4.61027 15.939 -4.61027 15.9389 -4.61027 15.9389C-4.61027 15.9389 -4.61027 15.9389 -4.61027 15.9389C-4.61027 15.9389 -4.61027 15.9389 -4.61027 15.9389C-4.61027 15.9389 -4.61027 15.9389 -4.61027 15.9389C-4.61027 15.9389 -4.61027 15.9388 -4.61027 15.9388C-4.61027 15.9388 -4.61027 15.9388 -4.61027 15.9388C-4.61027 15.9388 -4.61027 15.9388 -4.61027 15.9388C-4.61027 15.9388 -4.61027 15.9388 -4.61027 15.9387C-4.61027 15.9387 -4.61027 15.9387 -4.61027 15.9387C-4.61027 15.9387 -4.61027 15.9387 -4.61027 15.9387C-4.61027 15.9387 -4.61027 15.9387 -4.61027 15.9387C-4.61027 15.9386 -4.61027 15.9386 -4.61027 15.9386C-4.61027 15.9386 -4.61027 15.9386 -4.61027 15.9386C-4.61027 15.9386 -4.61027 15.9386 -4.61027 15.9386C-4.61027 15.9386 -4.61027 15.9385 -4.61027 15.9385C-4.61027 15.9385 -4.61027 15.9385 -4.61027 15.9385C-4.61027 15.9385 -4.61027 15.9385 -4.61027 15.9385C-4.61027 15.9385 -4.61027 15.9384 -4.61027 15.9384C-4.61027 15.9384 -4.61027 15.9384 -4.61027 15.9384C-4.61027 15.9384 -4.61027 15.9384 -4.61027 15.9384C-4.61027 15.9384 -4.61027 15.9383 -4.61027 15.9383C-4.61027 15.9383 -4.61027 15.9383 -4.61027 15.9383C-4.61027 15.9383 -4.61027 15.9383 -4.61027 15.9383C-4.61027 15.9383 -4.61027 15.9382 -4.61027 15.9382C-4.61027 15.9382 -4.61027 15.9382 -4.61027 15.9382C-4.61027 15.9382 -4.61027 15.9382 -4.61027 15.9382C-4.61027 15.9381 -4.61027 15.9381 -4.61027 15.9381C-4.61027 15.9381 -4.61027 15.9381 -4.61027 15.9381C-4.61027 15.9381 -4.61027 15.9381 -4.61027 15.938C-4.61027 15.938 -4.61027 15.938 -4.61027 15.938C-4.61027 15.938 -4.61027 15.938 -4.61027 15.938C-4.61027 15.938 -4.61027 15.9379 -4.61027 15.9379C-4.61027 15.9379 -4.61027 15.9379 -4.61027 15.9379C-4.61027 15.9379 -4.61027 15.9379 -4.61027 15.9379C-4.61027 15.9378 -4.61027 15.9378 -4.61027 15.9378C-4.61027 15.9378 -4.61027 15.9378 -4.61027 15.9378C-4.61027 15.9378 -4.61027 15.9377 -4.61027 15.9377C-4.61027 15.9377 -4.61027 15.9377 -4.61027 15.9377C-4.61027 15.9377 -4.61027 15.9377 -4.61027 15.9376C-4.61027 15.9376 -4.61027 15.9376 -4.61027 15.9376C-4.61027 15.9376 -4.61027 15.9376 -4.61027 15.9376C-4.61027 15.9375 -4.61027 15.9375 -4.61027 15.9375C-4.61027 15.9375 -4.61027 15.9375 -4.61027 15.9375C-4.61027 15.9375 -4.61027 15.9374 -4.61027 15.9374C-4.61027 15.9374 -4.61027 15.9374 -4.61027 15.9374C-4.61027 15.9374 -4.61027 15.9374 -4.61027 15.9373C-4.61027 15.9373 -4.61027 15.9373 -4.61027 15.9373C-4.61027 15.9373 -4.61027 15.9373 -4.61027 15.9372C-4.61027 15.9372 -4.61027 15.9372 -4.61027 15.9372C-4.61027 15.9372 -4.61027 15.9372 -4.61027 15.9371C-4.61027 15.9371 -4.61027 15.9371 -4.61027 15.9371C-4.61027 15.9371 -4.61027 15.9371 -4.61027 15.937C-4.61027 15.937 -4.61027 15.937 -4.61027 15.937C-4.61027 15.937 -4.61027 15.937 -4.61027 15.9369C-4.61027 15.9369 -4.61027 15.9369 -4.61027 15.9369C-4.61027 15.9369 -4.61027 15.9369 -4.61027 15.9368C-4.61027 15.9368 -4.61027 15.9368 -4.61027 15.9368C-4.61027 15.9368 -4.61027 15.9368 -4.61027 15.9367C-4.61027 15.9367 -4.61027 15.9367 -4.61027 15.9367C-4.61027 15.9367 -4.61027 15.9367 -4.61027 15.9366C-4.61027 15.9366 -4.61027 15.9366 -4.61027 15.9366C-4.61027 15.9366 -4.61027 15.9365 -4.61027 15.9365C-4.61027 15.9365 -4.61027 15.9365 -4.61027 15.9365C-4.61027 15.9365 -4.61027 15.9364 -4.61027 15.9364C-4.61027 15.9364 -4.61027 15.9364 -4.61027 15.9364C-4.61027 15.9363 -4.61027 15.9363 -4.61027 15.9363C-4.61027 15.9363 -4.61027 15.9363 -4.61027 15.9362C-4.61027 15.9362 -4.61027 15.9362 -4.61027 15.9362C-4.61027 15.9362 -4.61027 15.9362 -4.61027 15.9361C-4.61027 15.9361 -4.61027 15.9361 -4.61027 15.9361C-4.61027 15.9361 -4.61027 15.936 -4.61027 15.936C-4.61027 15.936 -4.61027 15.936 -4.61027 15.936C-4.61027 15.9359 -4.61027 15.9359 -4.61027 15.9359C-4.61027 15.9359 -4.61027 15.9359 -4.61027 15.9358C-4.61027 15.9358 -4.61027 15.9358 -4.61027 15.9358C-4.61027 15.9358 -4.61027 15.9357 -4.61027 15.9357C-4.61027 15.9357 -4.61027 15.9357 -4.61027 15.9356C-4.61027 15.9356 -4.61027 15.9356 -4.61027 15.9356C-4.61027 15.9356 -4.61027 15.9355 -4.61027 15.9355C-4.61027 15.9355 -4.61027 15.9355 -4.61027 15.9355C-4.61027 15.9354 -4.61027 15.9354 -4.61027 15.9354C-4.61027 15.9354 -4.61027 15.9353 -4.61027 15.9353C-4.61027 15.9353 -4.61027 15.9353 -4.61027 15.9353C-4.61027 15.9352 -4.61027 15.9352 -4.61027 15.9352C-4.61027 15.9352 -4.61027 15.9351 -4.61027 15.9351C-4.61027 15.9351 -4.61027 15.9351 -4.61027 15.9351C-4.61027 15.935 -4.61027 15.935 -4.61027 15.935C-4.61027 15.935 -4.61027 15.9349 -4.61027 15.9349C-4.61027 15.9349 -4.61027 15.9349 -4.61027 15.9348C-4.61027 15.9348 -4.61027 15.9348 -4.61027 15.9348C-4.61027 15.9348 -4.61027 15.9347 -4.61027 15.9347C-4.61027 15.9347 -4.61027 15.9347 -4.61027 15.9346C-4.61027 15.9346 -4.61027 15.9346 -4.61027 15.9346C-4.61027 15.9345 -4.61027 15.9345 -4.61027 15.9345C-4.61027 15.9345 -4.61027 15.9344 -4.61027 15.9344C-4.61027 15.9344 -4.61027 15.9344 -4.61027 15.9343C-4.61027 15.9343 -4.61027 15.9343 -4.61027 15.9343C-4.61027 15.9342 -4.61027 15.9342 -4.61027 15.9342C-4.61027 15.9342 -4.61027 15.9341 -4.61027 15.9341C-4.61027 15.9341 -4.61027 15.9341 -4.61027 15.934C-4.61027 15.934 -4.61027 15.934 -4.61027 15.934C-4.61027 15.9339 -4.61027 15.9339 -4.61027 15.9339C-4.61027 15.9338 -4.61027 15.9338 -4.61027 15.9338C-4.61027 15.9338 -4.61027 15.9337 -4.61027 15.9337C-4.61027 15.9337 -4.61027 15.9337 -4.61027 15.9336C-4.61027 15.9336 -4.61027 15.9336 -4.61027 15.9336C-4.61027 15.9335 -4.61027 15.9335 -4.61027 15.9335C-4.61027 15.9334 -4.61027 15.9334 -4.61027 15.9334C-4.61027 15.9334 -4.61027 15.9333 -4.61027 15.9333C-4.61027 15.9333 -4.61027 15.9333 -4.61027 15.9332C-4.61027 15.9332 -4.61027 15.9332 -4.61027 15.9331C-4.61027 15.9331 -4.61027 15.9331 -4.61027 15.9331C-4.61027 15.933 -4.61027 15.933 -4.61027 15.933C-4.61027 15.9329 -4.61027 15.9329 -4.61027 15.9329C-4.61027 15.9328 -4.61027 15.9328 -4.61027 15.9328C-4.61027 15.9328 -4.61027 15.9327 -4.61027 15.9327C-4.61027 15.9327 -4.61027 15.9326 -4.61027 15.9326C-4.61027 15.9326 -4.61027 15.9326 -4.61027 15.9325C-4.61027 15.9325 -4.61027 15.9325 -4.61027 15.9324C-4.61027 15.9324 -4.61027 15.9324 -4.61027 15.9323C-4.61027 15.9323 -4.61027 15.9323 -4.61027 15.9323C-4.61027 15.9322 -4.61027 15.9322 -4.61027 15.9322C-4.61027 15.9321 -4.61027 15.9321 -4.61027 15.9321C-4.61027 15.932 -4.61027 15.932 -4.61027 15.932C-4.61027 15.9319 -4.61027 15.9319 -4.61027 15.9319C-4.61027 15.9318 -4.61027 15.9318 -4.61027 15.9318C-4.61027 15.9318 -4.61027 15.9317 -4.61027 15.9317C-4.61027 15.9317 -4.61027 15.9316 -4.61027 15.9316C-4.61027 15.9316 -4.61027 15.9315 -4.61027 15.9315C-4.61027 15.9315 -4.61027 15.9314 -4.61027 15.9314C-4.61027 15.9314 -4.61027 15.9313 -4.61027 15.9313C-4.61027 15.9313 -4.61027 15.9312 -4.61027 15.9312C-4.61027 15.9312 -4.61027 15.9311 -4.61027 15.9311C-4.61027 15.9311 -4.61027 15.931 -4.61027 15.931C-4.61027 15.931 -4.61027 15.9309 -4.61027 15.9309C-4.61027 15.9309 -4.61027 15.9308 -4.61027 15.9308C-4.61027 15.9308 -4.61027 15.9307 -4.61027 15.9307C-4.61027 15.9307 -4.61027 15.9306 -4.61027 15.9306C-4.61027 15.9305 -4.61027 15.9305 -4.61027 15.9305C-4.61027 15.9304 -4.61027 15.9304 -4.61027 15.9304C-4.61027 15.9303 -4.61027 15.9303 -4.61027 15.9303C-4.61027 15.9302 -4.61027 15.9302 -4.61027 15.9302C-4.61027 15.9301 -4.61027 15.9301 -4.61027 15.93C-4.61027 15.93 -4.61027 15.93 -4.61027 15.9299C-4.61027 15.9299 -4.61027 15.9299 -4.61027 15.9298C-4.61027 15.9298 -4.61027 15.9298 -4.61027 15.9297C-4.61027 15.9297 -4.61027 15.9296 -4.61027 15.9296C-4.61027 15.9296 -4.61027 15.9295 -4.61027 15.9295C-4.61027 15.9295 -4.61027 15.9294 -4.61027 15.9294C-4.61027 15.9293 -4.61027 15.9293 -4.61027 15.9293C-4.61027 15.9292 -4.61027 15.9292 -4.61027 15.9292C-4.61027 15.9291 -4.61027 15.9291 -4.61027 15.929C-4.61027 15.929 -4.61027 15.929 -4.61027 15.9289C-4.61027 15.9289 -4.61027 15.9288 -4.61027 15.9288C-4.61027 15.9288 -4.61027 15.9287 -4.61027 15.9287C-4.61027 15.9287 -4.61027 15.9286 -4.61027 15.9286C-4.61027 15.9285 -4.61027 15.9285 -4.61027 15.9285C-4.61027 15.9284 -4.61027 15.9284 -4.61027 15.9283C-4.61027 15.9283 -4.61027 15.9283 -4.61027 15.9282C-4.61027 15.9282 -4.61027 15.9281 -4.61027 15.9281C-4.61027 15.9281 -4.61027 15.928 -4.61027 15.928C-4.61027 15.9279 -4.61027 15.9279 -4.61027 15.9278C-4.61027 15.9278 -4.61027 15.9278 -4.61027 15.9277C-4.61027 15.9277 -4.61027 15.9276 -4.61027 15.9276C-4.61027 15.9276 -4.61027 15.9275 -4.61027 15.9275C-4.61027 15.9274 -4.61027 15.9274 -4.61027 15.9273C-4.61027 15.9273 -4.61027 15.9273 -4.61027 15.9272C-4.61027 15.9272 -4.61027 15.9271 -4.61027 15.9271C-4.61027 15.927 -4.61027 15.927 -4.61027 15.927C-4.61027 15.9269 -4.61027 15.9269 -4.61027 15.9268C-4.61027 15.9268 -4.61027 15.9267 -4.61027 15.9267C-4.61027 15.9267 -4.61027 15.9266 -4.61027 15.9266C-4.61027 15.9265 -4.61027 15.9265 -4.61027 15.9264C-4.61027 15.9264 -4.61027 15.9263 -4.61027 15.9263C-4.61027 15.9263 -4.61027 15.9262 -4.61027 15.9262C-4.61027 15.9261 -4.61027 15.9261 -4.61027 15.926C-4.61027 15.926 -4.61027 15.9259 -4.61027 15.9259C-4.61027 15.9258 -4.61027 15.9258 -4.61027 15.9258C-4.61027 15.9257 -4.61027 15.9257 -4.61027 15.9256C-4.61027 15.9256 -4.61027 15.9255 -4.61027 15.9255C-4.61027 15.9254 -4.61027 15.9254 -4.61027 15.9253C-4.61027 15.9253 -4.61027 15.9252 -4.61027 15.9252C-4.61027 15.9252 -4.61027 15.9251 -4.61027 15.9251C-4.61027 15.925 -4.61027 15.925 -4.61027 15.9249C-4.61027 15.9249 -4.61027 15.9248 -4.61027 15.9248C-4.61027 15.9247 -4.61027 15.9247 -4.61027 15.9246C-4.61027 15.9246 -4.61027 15.9245 -4.61027 15.9245C-4.61027 15.9244 -4.61027 15.9244 -4.61027 15.9243C-4.61027 15.9243 -4.61027 15.9242 -4.61027 15.9242C-4.61027 15.9241 -4.61027 15.9241 -4.61027 15.924C-4.61027 15.924 -4.61027 15.9239 -4.61027 15.9239C-4.61027 15.9238 -4.61027 15.9238 -4.61027 15.9237C-4.61027 15.9237 -4.61027 15.9236 -4.61027 15.9236C-4.61027 15.9235 -4.61027 15.9235 -4.61027 15.9234C-4.61027 15.9234 -4.61027 15.9233 -4.61027 15.9233C-4.61027 15.9232 -4.61027 15.9232 -4.61027 15.9231C-4.61027 15.9231 -4.61027 15.923 -4.61027 15.923C-4.61027 15.9229 -4.61027 15.9229 -4.61027 15.9228C-4.61027 15.9228 -4.61027 15.9227 -4.61027 15.9227C-4.61027 15.9226 -4.61027 15.9226 -4.61027 15.9225C-4.61027 15.9225 -4.61027 15.9224 -4.61027 15.9224C-4.61027 15.9223 -4.61027 15.9223 -4.61027 15.9222C-4.61027 15.9222 -4.61027 15.9221 -4.61027 15.922C-4.61027 15.922 -4.61027 15.9219 -4.61027 15.9219C-4.61027 15.9218 -4.61027 15.9218 -4.61027 15.9217C-4.61027 15.9217 -4.61027 15.9216 -4.61027 15.9216C-4.61027 15.9215 -4.61027 15.9215 -4.61027 15.9214C-4.61027 15.9213 -4.61027 15.9213 -4.61027 15.9212C-4.61027 15.9212 -4.61027 15.9211 -4.61027 15.9211C-4.61027 15.921 -4.61027 15.921 -4.61027 15.9209C-4.61027 15.9208 -4.61027 15.9208 -4.61027 15.9207C-4.61027 15.9207 -4.61027 15.9206 -4.61027 15.9206C-4.61027 15.9205 -4.61027 15.9205 -4.61027 15.9204C-4.61027 15.9203 -4.61027 15.9203 -4.61027 15.9202C-4.61027 15.9202 -4.61027 15.9201 -4.61027 15.9201C-4.61027 15.92 -4.61027 15.9199 -4.61027 15.9199C-4.61027 15.9198 -4.61027 15.9198 -4.61027 15.9197C-4.61027 15.9197 -4.61027 15.9196 -4.61027 15.9195C-4.61027 15.9195 -4.61027 15.9194 -4.61027 15.9194C-4.61027 15.9193 -4.61027 15.9192 -4.61027 15.9192C-4.61027 15.9191 -4.61027 15.9191 -4.61027 15.919C-4.61027 15.9189 -4.61027 15.9189 -4.61027 15.9188C-4.61027 15.9188 -4.61027 15.9187 -4.61027 15.9187C-4.61027 15.9186 -4.61027 15.9185 -4.61027 15.9185C-4.61027 15.9184 -4.61027 15.9183 -4.61027 15.9183C-4.61027 15.9182 -4.61027 15.9182 -4.61027 15.9181C-4.61027 15.918 -4.61027 15.918 -4.61027 15.9179C-4.61027 15.9179 -4.61027 15.9178 -4.61027 15.9177C-4.61027 15.9177 -4.61027 15.9176 -4.61027 15.9176C-4.61027 15.9175 -4.61027 15.9174 -4.61027 15.9174C-4.61027 15.9173 -4.61027 15.9172 -4.61027 15.9172C-4.61027 15.9171 -4.61027 15.9171 -4.61027 15.917C-4.61027 15.9169 -4.61027 15.9169 -4.61027 15.9168C-4.61027 15.9167 -4.61027 15.9167 -4.61027 15.9166C-4.61027 15.9166 -4.61027 15.9165 -4.61027 15.9164C-4.61027 15.9164 -4.61027 15.9163 -4.61027 15.9162C-4.61027 15.9162 -4.61027 15.9161 -4.61027 15.916C-4.61027 15.916 -4.61027 15.9159 -4.61027 15.9158C-4.61027 15.9158 -4.61027 15.9157 -4.61027 15.9156C-4.61027 15.9156 -4.61027 15.9155 -4.61027 15.9155C-4.61027 15.9154 -4.61027 15.9153 -4.61027 15.9153C-4.61027 15.9152 -4.61027 15.9151 -4.61027 15.9151C-4.61027 15.915 -4.61027 15.9149 -4.61027 15.9149C-4.61027 15.9148 -4.61027 15.9147 -4.61027 15.9147C-4.61027 15.9146 -4.61027 15.9145 -4.61027 15.9145C-4.61027 15.9144 -4.61027 15.9143 -4.61027 15.9143C-4.61027 15.9142 -4.61027 15.9141 -4.61027 15.914C-4.61027 15.914 -4.61027 15.9139 -4.61027 15.9138C-4.61027 15.9138 -4.61027 15.9137 -4.61027 15.9136C-4.61027 15.9136 -4.61027 15.9135 -4.61027 15.9134C-4.61027 15.9134 -4.61027 15.9133 -4.61027 15.9132C-4.61027 15.9132 -4.61027 15.9131 -4.61027 15.913C-4.61027 15.9129 -4.61027 15.9129 -4.61027 15.9128C-4.61027 15.9127 -4.61027 15.9127 -4.61027 15.9126C-4.61027 15.9125 -4.61027 15.9124 -4.61027 15.9124C-4.61027 15.9123 -4.61027 15.9122 -4.61027 15.9122C-4.61027 15.9121 -4.61027 15.912 -4.61027 15.912C-4.61027 15.9119 -4.61027 15.9118 -4.61027 15.9117C-4.61027 15.9117 -4.61027 15.9116 -4.61027 15.9115C-4.61027 15.9114 -4.61027 15.9114 -4.61027 15.9113C-4.61027 15.9112 -4.61027 15.9112 -4.61027 15.9111C-4.61027 15.911 -4.61027 15.9109 -4.61027 15.9109C-4.61027 15.9108 -4.61027 15.9107 -4.61027 15.9106C-4.61027 15.9106 -4.61027 15.9105 -4.61027 15.9104C-4.61027 15.9103 -4.61027 15.9103 -4.61027 15.9102C-4.61027 15.9101 -4.61027 15.91 -4.61027 15.91C-4.61027 15.9099 -4.61027 15.9098 -4.61027 15.9097C-4.61027 15.9097 -4.61027 15.9096 -4.61027 15.9095C-4.61027 15.9094 -4.61027 15.9094 -4.61027 15.9093C-4.61027 15.9092 -4.61027 15.9091 -4.61027 15.9091C-4.61027 15.909 -4.61027 15.9089 -4.61027 15.9088C-4.61027 15.9088 -4.61027 15.9087 -4.61027 15.9086C-4.61027 15.9085 -4.61027 15.9084 -4.61027 15.9084C-4.61027 15.9083 -4.61027 15.9082 -4.61027 15.9081C-4.61027 15.9081 -4.61027 15.908 -4.61027 15.9079C-4.61027 15.9078 -4.61027 15.9077 -4.61027 15.9077C-4.61027 15.9076 -4.61027 15.9075 -4.61027 15.9074C-4.61027 15.9073 -4.61027 15.9073 -4.61027 15.9072C-4.61027 15.9071 -4.61027 15.907 -4.61027 15.9069C-4.61027 15.9069 -4.61027 15.9068 -4.61027 15.9067C-4.61027 15.9066 -4.61027 15.9065 -4.61027 15.9065C-4.61027 15.9064 -4.61027 15.9063 -4.61027 15.9062C-4.61027 15.9061 -4.61027 15.9061 -4.61027 15.906C-4.61027 15.9059 -4.61027 15.9058 -4.61027 15.9057C-4.61027 15.9057 -4.61027 15.9056 -4.61027 15.9055C-4.61027 15.9054 -4.61027 15.9053 -4.61027 15.9052C-4.61027 15.9052 -4.61027 15.9051 -4.61027 15.905C-4.61027 15.9049 -4.61027 15.9048 -4.61027 15.9047C-4.61027 15.9047 -4.61027 15.9046 -4.61027 15.9045C-4.61027 15.9044 -4.61027 15.9043 -4.61027 15.9042C-4.61027 15.9042 -4.61027 15.9041 -4.61027 15.904C-4.61027 15.9039 -4.61027 15.9038 -4.61027 15.9037C-4.61027 15.9036 -4.61027 15.9036 -4.61027 15.9035C-4.61027 15.9034 -4.61027 15.9033 -4.61027 15.9032C-4.61027 15.9031 -4.61027 15.903 -4.61027 15.903C-4.61027 15.9029 -4.61027 15.9028 -4.61027 15.9027C-4.61027 15.9026 -4.61027 15.9025 -4.61027 15.9024C-4.61027 15.9024 -4.61027 15.9023 -4.61027 15.9022C-4.61027 15.9021 -4.61027 15.902 -4.61027 15.9019C-4.61027 15.9018 -4.61027 15.9017 -4.61027 15.9016C-4.61027 15.9016 -4.61027 15.9015 -4.61027 15.9014C-4.61027 15.9013 -4.61027 15.9012 -4.61027 15.9011C-4.61027 15.901 -4.61027 15.9009 -4.61027 15.9008C-4.61027 15.9008 -4.61027 15.9007 -4.61027 15.9006C-4.61027 15.9005 -4.61027 15.9004 -4.61027 15.9003C-4.61027 15.9002 -4.61027 15.9001 -4.61027 15.9C-4.61027 15.8999 -4.61027 15.8999 -4.61027 15.8998C-4.61027 15.8997 -4.61027 15.8996 -4.61027 15.8995C-4.61027 15.8994 -4.61027 15.8993 -4.61027 15.8992C-4.61027 15.8991 -4.61027 15.899 -4.61027 15.8989C-4.61027 15.8988 -4.61027 15.8988 -4.61027 15.8987C-4.61027 15.8986 -4.61027 15.8985 -4.61027 15.8984C-4.61027 15.8983 -4.61027 15.8982 -4.61027 15.8981C-4.61027 15.898 -4.61027 15.8979 -4.61027 15.8978C-4.61027 15.8977 -4.61027 15.8976 -4.61027 15.8975C-4.61027 15.8974 -4.61027 15.8973 -4.61027 15.8973C-4.61027 15.8972 -4.61027 15.8971 -4.61027 15.897C-4.61027 15.8969 -4.61027 15.8968 -4.61027 15.8967C-4.61027 15.8966 -4.61027 15.8965 -4.61027 15.8964C-4.61027 15.8963 -4.61027 15.8962 -4.61027 15.8961C-4.61027 15.896 -4.61027 15.8959 -4.61027 15.8958C-4.61027 15.8957 -4.61027 15.8956 -4.61027 15.8955C-4.61027 15.8954 -4.61027 15.8953 -4.61027 15.8952C-4.61027 15.8951 -4.61027 15.895 -4.61027 15.8949C-4.61027 15.8948 -4.61027 15.8947 -4.61027 15.8946C-4.61027 15.8945 -4.61027 15.8944 -4.61027 15.8943C-4.61027 15.8942 -4.61027 15.8941 -4.61027 15.894C-4.61027 15.8939 -4.61027 15.8938 -4.61027 15.8937C-4.61027 15.8936 -4.61027 15.8935 -4.61027 15.8934C-4.61027 15.8933 -4.61027 15.8932 -4.61027 15.8931C-4.61027 15.893 -4.61027 15.8929 -4.61027 15.8928C-4.61027 15.8927 -4.61027 15.8926 -4.61027 15.8925C-4.61027 15.8924 -4.61027 15.8923 -4.61027 15.8922C-4.61027 15.8921 -4.61027 15.892 -4.61027 15.8919C-4.61027 15.8918 -4.61027 15.8917 -4.61027 15.8916C-4.61027 15.8915 -4.61027 15.8914 -4.61027 15.8913C-4.61027 15.8912 -4.61027 15.8911 -4.61027 15.891C-4.61027 15.8909 -4.61027 15.8908 -4.61027 15.8907C-4.61027 15.8906 -4.61027 15.8905 -4.61027 15.8904C-4.61027 15.8903 -4.61027 15.8902 -4.61027 15.8901C-4.61027 15.8899 -4.61027 15.8898 -4.61027 15.8897C-4.61027 15.8896 -4.61027 15.8895 -4.61027 15.8894C-4.61027 15.8893 -4.61027 15.8892 -4.61027 15.8891C-4.61027 15.889 -4.61027 15.8889 -4.61027 15.8888C-4.61027 15.8887 -4.61027 15.8886 -4.61027 15.8885C-4.61027 15.8884 -4.61027 15.8882 -4.61027 15.8881C-4.61027 15.888 -4.61027 15.8879 -4.61027 15.8878C-4.61027 15.8877 -4.61027 15.8876 -4.61027 15.8875C-4.61027 15.8874 -4.61027 15.8873 -4.61027 15.8872C-4.61027 15.8871 -4.61027 15.8869 -4.61027 15.8868C-4.61027 15.8867 -4.61027 15.8866 -4.61027 15.8865C-4.61027 15.8864 -4.61027 15.8863 -4.61027 15.8862C-4.61027 15.8861 -4.61027 15.886 -4.61027 15.8858C-4.61027 15.8857 -4.61027 15.8856 -4.61027 15.8855C-4.61027 15.8854 -4.61027 15.8853 -4.61027 15.8852C-4.61027 15.8851 -4.61027 15.8849 -4.61027 15.8848C-4.61027 15.8847 -4.61027 15.8846 -4.61027 15.8845C-4.61027 15.8844 -4.61027 15.8843 -4.61027 15.8842C-4.61027 15.884 -4.61027 15.8839 -4.61027 15.8838C-4.61027 15.8837 -4.61027 15.8836 -4.61027 15.8835C-4.61027 15.8834 -4.61027 15.8832 -4.61027 15.8831C-4.61027 15.883 -4.61027 15.8829 -4.61027 15.8828C-4.61027 15.8827 -4.61027 15.8826 -4.61027 15.8824C-4.61027 15.8823 -4.61027 15.8822 -4.61027 15.8821C-4.61027 15.882 -4.61027 15.8819 -4.61027 15.8817C-4.61027 15.8816 -4.61027 15.8815 -4.61027 15.8814C-4.61027 15.8813 -4.61027 15.8812 -4.61027 15.881C-4.61027 15.8809 -4.61027 15.8808 -4.61027 15.8807C-4.61027 15.8806 -4.61027 15.8805 -4.61027 15.8803C-4.61027 15.8802 -4.61027 15.8801 -4.61027 15.88C-4.61027 15.8799 -4.61027 15.8797 -4.61027 15.8796C-4.61027 15.8795 -4.61027 15.8794 -4.61027 15.8793C-4.61027 15.8791 -4.61027 15.879 -4.61027 15.8789C-4.61027 15.8788 -4.61027 15.8787 -4.61027 15.8785C-4.61027 15.8784 -4.61027 15.8783 -4.61027 15.8782C-4.61027 15.8781 -4.61027 15.8779 -4.61027 15.8778H25.3897C25.3897 15.8779 25.3897 15.8781 25.3897 15.8782C25.3897 15.8783 25.3897 15.8784 25.3897 15.8785C25.3897 15.8787 25.3897 15.8788 25.3897 15.8789C25.3897 15.879 25.3897 15.8791 25.3897 15.8793C25.3897 15.8794 25.3897 15.8795 25.3897 15.8796C25.3897 15.8797 25.3897 15.8799 25.3897 15.88C25.3897 15.8801 25.3897 15.8802 25.3897 15.8803C25.3897 15.8805 25.3897 15.8806 25.3897 15.8807C25.3897 15.8808 25.3897 15.8809 25.3897 15.881C25.3897 15.8812 25.3897 15.8813 25.3897 15.8814C25.3897 15.8815 25.3897 15.8816 25.3897 15.8817C25.3897 15.8819 25.3897 15.882 25.3897 15.8821C25.3897 15.8822 25.3897 15.8823 25.3897 15.8824C25.3897 15.8826 25.3897 15.8827 25.3897 15.8828C25.3897 15.8829 25.3897 15.883 25.3897 15.8831C25.3897 15.8832 25.3897 15.8834 25.3897 15.8835C25.3897 15.8836 25.3897 15.8837 25.3897 15.8838C25.3897 15.8839 25.3897 15.884 25.3897 15.8842C25.3897 15.8843 25.3897 15.8844 25.3897 15.8845C25.3897 15.8846 25.3897 15.8847 25.3897 15.8848C25.3897 15.8849 25.3897 15.8851 25.3897 15.8852C25.3897 15.8853 25.3897 15.8854 25.3897 15.8855C25.3897 15.8856 25.3897 15.8857 25.3897 15.8858C25.3897 15.886 25.3897 15.8861 25.3897 15.8862C25.3897 15.8863 25.3897 15.8864 25.3897 15.8865C25.3897 15.8866 25.3897 15.8867 25.3897 15.8868C25.3897 15.8869 25.3897 15.8871 25.3897 15.8872C25.3897 15.8873 25.3897 15.8874 25.3897 15.8875C25.3897 15.8876 25.3897 15.8877 25.3897 15.8878C25.3897 15.8879 25.3897 15.888 25.3897 15.8881C25.3897 15.8882 25.3897 15.8884 25.3897 15.8885C25.3897 15.8886 25.3897 15.8887 25.3897 15.8888C25.3897 15.8889 25.3897 15.889 25.3897 15.8891C25.3897 15.8892 25.3897 15.8893 25.3897 15.8894C25.3897 15.8895 25.3897 15.8896 25.3897 15.8897C25.3897 15.8898 25.3897 15.8899 25.3897 15.8901C25.3897 15.8902 25.3897 15.8903 25.3897 15.8904C25.3897 15.8905 25.3897 15.8906 25.3897 15.8907C25.3897 15.8908 25.3897 15.8909 25.3897 15.891C25.3897 15.8911 25.3897 15.8912 25.3897 15.8913C25.3897 15.8914 25.3897 15.8915 25.3897 15.8916C25.3897 15.8917 25.3897 15.8918 25.3897 15.8919C25.3897 15.892 25.3897 15.8921 25.3897 15.8922C25.3897 15.8923 25.3897 15.8924 25.3897 15.8925C25.3897 15.8926 25.3897 15.8927 25.3897 15.8928C25.3897 15.8929 25.3897 15.893 25.3897 15.8931C25.3897 15.8932 25.3897 15.8933 25.3897 15.8934C25.3897 15.8935 25.3897 15.8936 25.3897 15.8937C25.3897 15.8938 25.3897 15.8939 25.3897 15.894C25.3897 15.8941 25.3897 15.8942 25.3897 15.8943C25.3897 15.8944 25.3897 15.8945 25.3897 15.8946C25.3897 15.8947 25.3897 15.8948 25.3897 15.8949C25.3897 15.895 25.3897 15.8951 25.3897 15.8952C25.3897 15.8953 25.3897 15.8954 25.3897 15.8955C25.3897 15.8956 25.3897 15.8957 25.3897 15.8958C25.3897 15.8959 25.3897 15.896 25.3897 15.8961C25.3897 15.8962 25.3897 15.8963 25.3897 15.8964C25.3897 15.8965 25.3897 15.8966 25.3897 15.8967C25.3897 15.8968 25.3897 15.8969 25.3897 15.897C25.3897 15.8971 25.3897 15.8972 25.3897 15.8973C25.3897 15.8973 25.3897 15.8974 25.3897 15.8975C25.3897 15.8976 25.3897 15.8977 25.3897 15.8978C25.3897 15.8979 25.3897 15.898 25.3897 15.8981C25.3897 15.8982 25.3897 15.8983 25.3897 15.8984C25.3897 15.8985 25.3897 15.8986 25.3897 15.8987C25.3897 15.8988 25.3897 15.8988 25.3897 15.8989C25.3897 15.899 25.3897 15.8991 25.3897 15.8992C25.3897 15.8993 25.3897 15.8994 25.3897 15.8995C25.3897 15.8996 25.3897 15.8997 25.3897 15.8998C25.3897 15.8999 25.3897 15.8999 25.3897 15.9C25.3897 15.9001 25.3897 15.9002 25.3897 15.9003C25.3897 15.9004 25.3897 15.9005 25.3897 15.9006C25.3897 15.9007 25.3897 15.9008 25.3897 15.9008C25.3897 15.9009 25.3897 15.901 25.3897 15.9011C25.3897 15.9012 25.3897 15.9013 25.3897 15.9014C25.3897 15.9015 25.3897 15.9016 25.3897 15.9016C25.3897 15.9017 25.3897 15.9018 25.3897 15.9019C25.3897 15.902 25.3897 15.9021 25.3897 15.9022C25.3897 15.9023 25.3897 15.9024 25.3897 15.9024C25.3897 15.9025 25.3897 15.9026 25.3897 15.9027C25.3897 15.9028 25.3897 15.9029 25.3897 15.903C25.3897 15.903 25.3897 15.9031 25.3897 15.9032C25.3897 15.9033 25.3897 15.9034 25.3897 15.9035C25.3897 15.9036 25.3897 15.9036 25.3897 15.9037C25.3897 15.9038 25.3897 15.9039 25.3897 15.904C25.3897 15.9041 25.3897 15.9042 25.3897 15.9042C25.3897 15.9043 25.3897 15.9044 25.3897 15.9045C25.3897 15.9046 25.3897 15.9047 25.3897 15.9047C25.3897 15.9048 25.3897 15.9049 25.3897 15.905C25.3897 15.9051 25.3897 15.9052 25.3897 15.9052C25.3897 15.9053 25.3897 15.9054 25.3897 15.9055C25.3897 15.9056 25.3897 15.9057 25.3897 15.9057C25.3897 15.9058 25.3897 15.9059 25.3897 15.906C25.3897 15.9061 25.3897 15.9061 25.3897 15.9062C25.3897 15.9063 25.3897 15.9064 25.3897 15.9065C25.3897 15.9065 25.3897 15.9066 25.3897 15.9067C25.3897 15.9068 25.3897 15.9069 25.3897 15.9069C25.3897 15.907 25.3897 15.9071 25.3897 15.9072C25.3897 15.9073 25.3897 15.9073 25.3897 15.9074C25.3897 15.9075 25.3897 15.9076 25.3897 15.9077C25.3897 15.9077 25.3897 15.9078 25.3897 15.9079C25.3897 15.908 25.3897 15.9081 25.3897 15.9081C25.3897 15.9082 25.3897 15.9083 25.3897 15.9084C25.3897 15.9084 25.3897 15.9085 25.3897 15.9086C25.3897 15.9087 25.3897 15.9088 25.3897 15.9088C25.3897 15.9089 25.3897 15.909 25.3897 15.9091C25.3897 15.9091 25.3897 15.9092 25.3897 15.9093C25.3897 15.9094 25.3897 15.9094 25.3897 15.9095C25.3897 15.9096 25.3897 15.9097 25.3897 15.9097C25.3897 15.9098 25.3897 15.9099 25.3897 15.91C25.3897 15.91 25.3897 15.9101 25.3897 15.9102C25.3897 15.9103 25.3897 15.9103 25.3897 15.9104C25.3897 15.9105 25.3897 15.9106 25.3897 15.9106C25.3897 15.9107 25.3897 15.9108 25.3897 15.9109C25.3897 15.9109 25.3897 15.911 25.3897 15.9111C25.3897 15.9112 25.3897 15.9112 25.3897 15.9113C25.3897 15.9114 25.3897 15.9114 25.3897 15.9115C25.3897 15.9116 25.3897 15.9117 25.3897 15.9117C25.3897 15.9118 25.3897 15.9119 25.3897 15.912C25.3897 15.912 25.3897 15.9121 25.3897 15.9122C25.3897 15.9122 25.3897 15.9123 25.3897 15.9124C25.3897 15.9124 25.3897 15.9125 25.3897 15.9126C25.3897 15.9127 25.3897 15.9127 25.3897 15.9128C25.3897 15.9129 25.3897 15.9129 25.3897 15.913C25.3897 15.9131 25.3897 15.9132 25.3897 15.9132C25.3897 15.9133 25.3897 15.9134 25.3897 15.9134C25.3897 15.9135 25.3897 15.9136 25.3897 15.9136C25.3897 15.9137 25.3897 15.9138 25.3897 15.9138C25.3897 15.9139 25.3897 15.914 25.3897 15.914C25.3897 15.9141 25.3897 15.9142 25.3897 15.9143C25.3897 15.9143 25.3897 15.9144 25.3897 15.9145C25.3897 15.9145 25.3897 15.9146 25.3897 15.9147C25.3897 15.9147 25.3897 15.9148 25.3897 15.9149C25.3897 15.9149 25.3897 15.915 25.3897 15.9151C25.3897 15.9151 25.3897 15.9152 25.3897 15.9153C25.3897 15.9153 25.3897 15.9154 25.3897 15.9155C25.3897 15.9155 25.3897 15.9156 25.3897 15.9156C25.3897 15.9157 25.3897 15.9158 25.3897 15.9158C25.3897 15.9159 25.3897 15.916 25.3897 15.916C25.3897 15.9161 25.3897 15.9162 25.3897 15.9162C25.3897 15.9163 25.3897 15.9164 25.3897 15.9164C25.3897 15.9165 25.3897 15.9166 25.3897 15.9166C25.3897 15.9167 25.3897 15.9167 25.3897 15.9168C25.3897 15.9169 25.3897 15.9169 25.3897 15.917C25.3897 15.9171 25.3897 15.9171 25.3897 15.9172C25.3897 15.9172 25.3897 15.9173 25.3897 15.9174C25.3897 15.9174 25.3897 15.9175 25.3897 15.9176C25.3897 15.9176 25.3897 15.9177 25.3897 15.9177C25.3897 15.9178 25.3897 15.9179 25.3897 15.9179C25.3897 15.918 25.3897 15.918 25.3897 15.9181C25.3897 15.9182 25.3897 15.9182 25.3897 15.9183C25.3897 15.9183 25.3897 15.9184 25.3897 15.9185C25.3897 15.9185 25.3897 15.9186 25.3897 15.9187C25.3897 15.9187 25.3897 15.9188 25.3897 15.9188C25.3897 15.9189 25.3897 15.9189 25.3897 15.919C25.3897 15.9191 25.3897 15.9191 25.3897 15.9192C25.3897 15.9192 25.3897 15.9193 25.3897 15.9194C25.3897 15.9194 25.3897 15.9195 25.3897 15.9195C25.3897 15.9196 25.3897 15.9197 25.3897 15.9197C25.3897 15.9198 25.3897 15.9198 25.3897 15.9199C25.3897 15.9199 25.3897 15.92 25.3897 15.9201C25.3897 15.9201 25.3897 15.9202 25.3897 15.9202C25.3897 15.9203 25.3897 15.9203 25.3897 15.9204C25.3897 15.9205 25.3897 15.9205 25.3897 15.9206C25.3897 15.9206 25.3897 15.9207 25.3897 15.9207C25.3897 15.9208 25.3897 15.9208 25.3897 15.9209C25.3897 15.921 25.3897 15.921 25.3897 15.9211C25.3897 15.9211 25.3897 15.9212 25.3897 15.9212C25.3897 15.9213 25.3897 15.9213 25.3897 15.9214C25.3897 15.9215 25.3897 15.9215 25.3897 15.9216C25.3897 15.9216 25.3897 15.9217 25.3897 15.9217C25.3897 15.9218 25.3897 15.9218 25.3897 15.9219C25.3897 15.9219 25.3897 15.922 25.3897 15.922C25.3897 15.9221 25.3897 15.9222 25.3897 15.9222C25.3897 15.9223 25.3897 15.9223 25.3897 15.9224C25.3897 15.9224 25.3897 15.9225 25.3897 15.9225C25.3897 15.9226 25.3897 15.9226 25.3897 15.9227C25.3897 15.9227 25.3897 15.9228 25.3897 15.9228C25.3897 15.9229 25.3897 15.9229 25.3897 15.923C25.3897 15.923 25.3897 15.9231 25.3897 15.9231C25.3897 15.9232 25.3897 15.9232 25.3897 15.9233C25.3897 15.9233 25.3897 15.9234 25.3897 15.9234C25.3897 15.9235 25.3897 15.9235 25.3897 15.9236C25.3897 15.9236 25.3897 15.9237 25.3897 15.9237C25.3897 15.9238 25.3897 15.9238 25.3897 15.9239C25.3897 15.9239 25.3897 15.924 25.3897 15.924C25.3897 15.9241 25.3897 15.9241 25.3897 15.9242C25.3897 15.9242 25.3897 15.9243 25.3897 15.9243C25.3897 15.9244 25.3897 15.9244 25.3897 15.9245C25.3897 15.9245 25.3897 15.9246 25.3897 15.9246C25.3897 15.9247 25.3897 15.9247 25.3897 15.9248C25.3897 15.9248 25.3897 15.9249 25.3897 15.9249C25.3897 15.925 25.3897 15.925 25.3897 15.9251C25.3897 15.9251 25.3897 15.9252 25.3897 15.9252C25.3897 15.9252 25.3897 15.9253 25.3897 15.9253C25.3897 15.9254 25.3897 15.9254 25.3897 15.9255C25.3897 15.9255 25.3897 15.9256 25.3897 15.9256C25.3897 15.9257 25.3897 15.9257 25.3897 15.9258C25.3897 15.9258 25.3897 15.9258 25.3897 15.9259C25.3897 15.9259 25.3897 15.926 25.3897 15.926C25.3897 15.9261 25.3897 15.9261 25.3897 15.9262C25.3897 15.9262 25.3897 15.9263 25.3897 15.9263C25.3897 15.9263 25.3897 15.9264 25.3897 15.9264C25.3897 15.9265 25.3897 15.9265 25.3897 15.9266C25.3897 15.9266 25.3897 15.9267 25.3897 15.9267C25.3897 15.9267 25.3897 15.9268 25.3897 15.9268C25.3897 15.9269 25.3897 15.9269 25.3897 15.927C25.3897 15.927 25.3897 15.927 25.3897 15.9271C25.3897 15.9271 25.3897 15.9272 25.3897 15.9272C25.3897 15.9273 25.3897 15.9273 25.3897 15.9273C25.3897 15.9274 25.3897 15.9274 25.3897 15.9275C25.3897 15.9275 25.3897 15.9276 25.3897 15.9276C25.3897 15.9276 25.3897 15.9277 25.3897 15.9277C25.3897 15.9278 25.3897 15.9278 25.3897 15.9278C25.3897 15.9279 25.3897 15.9279 25.3897 15.928C25.3897 15.928 25.3897 15.9281 25.3897 15.9281C25.3897 15.9281 25.3897 15.9282 25.3897 15.9282C25.3897 15.9283 25.3897 15.9283 25.3897 15.9283C25.3897 15.9284 25.3897 15.9284 25.3897 15.9285C25.3897 15.9285 25.3897 15.9285 25.3897 15.9286C25.3897 15.9286 25.3897 15.9287 25.3897 15.9287C25.3897 15.9287 25.3897 15.9288 25.3897 15.9288C25.3897 15.9288 25.3897 15.9289 25.3897 15.9289C25.3897 15.929 25.3897 15.929 25.3897 15.929C25.3897 15.9291 25.3897 15.9291 25.3897 15.9292C25.3897 15.9292 25.3897 15.9292 25.3897 15.9293C25.3897 15.9293 25.3897 15.9293 25.3897 15.9294C25.3897 15.9294 25.3897 15.9295 25.3897 15.9295C25.3897 15.9295 25.3897 15.9296 25.3897 15.9296C25.3897 15.9296 25.3897 15.9297 25.3897 15.9297C25.3897 15.9298 25.3897 15.9298 25.3897 15.9298C25.3897 15.9299 25.3897 15.9299 25.3897 15.9299C25.3897 15.93 25.3897 15.93 25.3897 15.93C25.3897 15.9301 25.3897 15.9301 25.3897 15.9302C25.3897 15.9302 25.3897 15.9302 25.3897 15.9303C25.3897 15.9303 25.3897 15.9303 25.3897 15.9304C25.3897 15.9304 25.3897 15.9304 25.3897 15.9305C25.3897 15.9305 25.3897 15.9305 25.3897 15.9306C25.3897 15.9306 25.3897 15.9307 25.3897 15.9307C25.3897 15.9307 25.3897 15.9308 25.3897 15.9308C25.3897 15.9308 25.3897 15.9309 25.3897 15.9309C25.3897 15.9309 25.3897 15.931 25.3897 15.931C25.3897 15.931 25.3897 15.9311 25.3897 15.9311C25.3897 15.9311 25.3897 15.9312 25.3897 15.9312C25.3897 15.9312 25.3897 15.9313 25.3897 15.9313C25.3897 15.9313 25.3897 15.9314 25.3897 15.9314C25.3897 15.9314 25.3897 15.9315 25.3897 15.9315C25.3897 15.9315 25.3897 15.9316 25.3897 15.9316C25.3897 15.9316 25.3897 15.9317 25.3897 15.9317C25.3897 15.9317 25.3897 15.9318 25.3897 15.9318C25.3897 15.9318 25.3897 15.9318 25.3897 15.9319C25.3897 15.9319 25.3897 15.9319 25.3897 15.932C25.3897 15.932 25.3897 15.932 25.3897 15.9321C25.3897 15.9321 25.3897 15.9321 25.3897 15.9322C25.3897 15.9322 25.3897 15.9322 25.3897 15.9323C25.3897 15.9323 25.3897 15.9323 25.3897 15.9323C25.3897 15.9324 25.3897 15.9324 25.3897 15.9324C25.3897 15.9325 25.3897 15.9325 25.3897 15.9325C25.3897 15.9326 25.3897 15.9326 25.3897 15.9326C25.3897 15.9326 25.3897 15.9327 25.3897 15.9327C25.3897 15.9327 25.3897 15.9328 25.3897 15.9328C25.3897 15.9328 25.3897 15.9328 25.3897 15.9329C25.3897 15.9329 25.3897 15.9329 25.3897 15.933C25.3897 15.933 25.3897 15.933 25.3897 15.9331C25.3897 15.9331 25.3897 15.9331 25.3897 15.9331C25.3897 15.9332 25.3897 15.9332 25.3897 15.9332C25.3897 15.9333 25.3897 15.9333 25.3897 15.9333C25.3897 15.9333 25.3897 15.9334 25.3897 15.9334C25.3897 15.9334 25.3897 15.9334 25.3897 15.9335C25.3897 15.9335 25.3897 15.9335 25.3897 15.9336C25.3897 15.9336 25.3897 15.9336 25.3897 15.9336C25.3897 15.9337 25.3897 15.9337 25.3897 15.9337C25.3897 15.9337 25.3897 15.9338 25.3897 15.9338C25.3897 15.9338 25.3897 15.9338 25.3897 15.9339C25.3897 15.9339 25.3897 15.9339 25.3897 15.934C25.3897 15.934 25.3897 15.934 25.3897 15.934C25.3897 15.9341 25.3897 15.9341 25.3897 15.9341C25.3897 15.9341 25.3897 15.9342 25.3897 15.9342C25.3897 15.9342 25.3897 15.9342 25.3897 15.9343C25.3897 15.9343 25.3897 15.9343 25.3897 15.9343C25.3897 15.9344 25.3897 15.9344 25.3897 15.9344C25.3897 15.9344 25.3897 15.9345 25.3897 15.9345C25.3897 15.9345 25.3897 15.9345 25.3897 15.9346C25.3897 15.9346 25.3897 15.9346 25.3897 15.9346C25.3897 15.9347 25.3897 15.9347 25.3897 15.9347C25.3897 15.9347 25.3897 15.9348 25.3897 15.9348C25.3897 15.9348 25.3897 15.9348 25.3897 15.9348C25.3897 15.9349 25.3897 15.9349 25.3897 15.9349C25.3897 15.9349 25.3897 15.935 25.3897 15.935C25.3897 15.935 25.3897 15.935 25.3897 15.9351C25.3897 15.9351 25.3897 15.9351 25.3897 15.9351C25.3897 15.9351 25.3897 15.9352 25.3897 15.9352C25.3897 15.9352 25.3897 15.9352 25.3897 15.9353C25.3897 15.9353 25.3897 15.9353 25.3897 15.9353C25.3897 15.9353 25.3897 15.9354 25.3897 15.9354C25.3897 15.9354 25.3897 15.9354 25.3897 15.9355C25.3897 15.9355 25.3897 15.9355 25.3897 15.9355C25.3897 15.9355 25.3897 15.9356 25.3897 15.9356C25.3897 15.9356 25.3897 15.9356 25.3897 15.9356C25.3897 15.9357 25.3897 15.9357 25.3897 15.9357C25.3897 15.9357 25.3897 15.9358 25.3897 15.9358C25.3897 15.9358 25.3897 15.9358 25.3897 15.9358C25.3897 15.9359 25.3897 15.9359 25.3897 15.9359C25.3897 15.9359 25.3897 15.9359 25.3897 15.936C25.3897 15.936 25.3897 15.936 25.3897 15.936C25.3897 15.936 25.3897 15.9361 25.3897 15.9361C25.3897 15.9361 25.3897 15.9361 25.3897 15.9361C25.3897 15.9362 25.3897 15.9362 25.3897 15.9362C25.3897 15.9362 25.3897 15.9362 25.3897 15.9362C25.3897 15.9363 25.3897 15.9363 25.3897 15.9363C25.3897 15.9363 25.3897 15.9363 25.3897 15.9364C25.3897 15.9364 25.3897 15.9364 25.3897 15.9364C25.3897 15.9364 25.3897 15.9365 25.3897 15.9365C25.3897 15.9365 25.3897 15.9365 25.3897 15.9365C25.3897 15.9365 25.3897 15.9366 25.3897 15.9366C25.3897 15.9366 25.3897 15.9366 25.3897 15.9366C25.3897 15.9367 25.3897 15.9367 25.3897 15.9367C25.3897 15.9367 25.3897 15.9367 25.3897 15.9367C25.3897 15.9368 25.3897 15.9368 25.3897 15.9368C25.3897 15.9368 25.3897 15.9368 25.3897 15.9368C25.3897 15.9369 25.3897 15.9369 25.3897 15.9369C25.3897 15.9369 25.3897 15.9369 25.3897 15.9369C25.3897 15.937 25.3897 15.937 25.3897 15.937C25.3897 15.937 25.3897 15.937 25.3897 15.937C25.3897 15.9371 25.3897 15.9371 25.3897 15.9371C25.3897 15.9371 25.3897 15.9371 25.3897 15.9371C25.3897 15.9372 25.3897 15.9372 25.3897 15.9372C25.3897 15.9372 25.3897 15.9372 25.3897 15.9372C25.3897 15.9373 25.3897 15.9373 25.3897 15.9373C25.3897 15.9373 25.3897 15.9373 25.3897 15.9373C25.3897 15.9374 25.3897 15.9374 25.3897 15.9374C25.3897 15.9374 25.3897 15.9374 25.3897 15.9374C25.3897 15.9374 25.3897 15.9375 25.3897 15.9375C25.3897 15.9375 25.3897 15.9375 25.3897 15.9375C25.3897 15.9375 25.3897 15.9375 25.3897 15.9376C25.3897 15.9376 25.3897 15.9376 25.3897 15.9376C25.3897 15.9376 25.3897 15.9376 25.3897 15.9376C25.3897 15.9377 25.3897 15.9377 25.3897 15.9377C25.3897 15.9377 25.3897 15.9377 25.3897 15.9377C25.3897 15.9377 25.3897 15.9378 25.3897 15.9378C25.3897 15.9378 25.3897 15.9378 25.3897 15.9378C25.3897 15.9378 25.3897 15.9378 25.3897 15.9379C25.3897 15.9379 25.3897 15.9379 25.3897 15.9379C25.3897 15.9379 25.3897 15.9379 25.3897 15.9379C25.3897 15.9379 25.3897 15.938 25.3897 15.938C25.3897 15.938 25.3897 15.938 25.3897 15.938C25.3897 15.938 25.3897 15.938 25.3897 15.938C25.3897 15.9381 25.3897 15.9381 25.3897 15.9381C25.3897 15.9381 25.3897 15.9381 25.3897 15.9381C25.3897 15.9381 25.3897 15.9381 25.3897 15.9382C25.3897 15.9382 25.3897 15.9382 25.3897 15.9382C25.3897 15.9382 25.3897 15.9382 25.3897 15.9382C25.3897 15.9382 25.3897 15.9383 25.3897 15.9383C25.3897 15.9383 25.3897 15.9383 25.3897 15.9383C25.3897 15.9383 25.3897 15.9383 25.3897 15.9383C25.3897 15.9383 25.3897 15.9384 25.3897 15.9384C25.3897 15.9384 25.3897 15.9384 25.3897 15.9384C25.3897 15.9384 25.3897 15.9384 25.3897 15.9384C25.3897 15.9384 25.3897 15.9385 25.3897 15.9385C25.3897 15.9385 25.3897 15.9385 25.3897 15.9385C25.3897 15.9385 25.3897 15.9385 25.3897 15.9385C25.3897 15.9385 25.3897 15.9386 25.3897 15.9386C25.3897 15.9386 25.3897 15.9386 25.3897 15.9386C25.3897 15.9386 25.3897 15.9386 25.3897 15.9386C25.3897 15.9386 25.3897 15.9386 25.3897 15.9387C25.3897 15.9387 25.3897 15.9387 25.3897 15.9387C25.3897 15.9387 25.3897 15.9387 25.3897 15.9387C25.3897 15.9387 25.3897 15.9387 25.3897 15.9387C25.3897 15.9388 25.3897 15.9388 25.3897 15.9388C25.3897 15.9388 25.3897 15.9388 25.3897 15.9388C25.3897 15.9388 25.3897 15.9388 25.3897 15.9388C25.3897 15.9388 25.3897 15.9389 25.3897 15.9389C25.3897 15.9389 25.3897 15.9389 25.3897 15.9389C25.3897 15.9389 25.3897 15.9389 25.3897 15.9389C25.3897 15.9389 25.3897 15.9389 25.3897 15.9389C25.3897 15.9389 25.3897 15.939 25.3897 15.939C25.3897 15.939 25.3897 15.939 25.3897 15.939C25.3897 15.939 25.3897 15.939 25.3897 15.939C25.3897 15.939 25.3897 15.939 25.3897 15.939C25.3897 15.9391 25.3897 15.9391 25.3897 15.9391C25.3897 15.9391 25.3897 15.9391 25.3897 15.9391C25.3897 15.9391 25.3897 15.9391 25.3897 15.9391C25.3897 15.9391 25.3897 15.9391 25.3897 15.9391C25.3897 15.9391 25.3897 15.9392 25.3897 15.9392C25.3897 15.9392 25.3897 15.9392 25.3897 15.9392C25.3897 15.9392 25.3897 15.9392 25.3897 15.9392C25.3897 15.9392 25.3897 15.9392 25.3897 15.9392C25.3897 15.9392 25.3897 15.9392 25.3897 15.9392C25.3897 15.9393 25.3897 15.9393 25.3897 15.9393C25.3897 15.9393 25.3897 15.9393 25.3897 15.9393C25.3897 15.9393 25.3897 15.9393 25.3897 15.9393C25.3897 15.9393 25.3897 15.9393 25.3897 15.9393C25.3897 15.9393 25.3897 15.9393 25.3897 15.9394C25.3897 15.9394 25.3897 15.9394 25.3897 15.9394C25.3897 15.9394 25.3897 15.9394 25.3897 15.9394C25.3897 15.9394 25.3897 15.9394 25.3897 15.9394C25.3897 15.9394 25.3897 15.9394 25.3897 15.9394C25.3897 15.9394 25.3897 15.9394 25.3897 15.9394C25.3897 15.9395 25.3897 15.9395 25.3897 15.9395C25.3897 15.9395 25.3897 15.9395 25.3897 15.9395C25.3897 15.9395 25.3897 15.9395 25.3897 15.9395C25.3897 15.9395 25.3897 15.9395 25.3897 15.9395C25.3897 15.9395 25.3897 15.9395 25.3897 15.9395C25.3897 15.9395 25.3897 15.9395 25.3897 15.9395C25.3897 15.9396 25.3897 15.9396 25.3897 15.9396C25.3897 15.9396 25.3897 15.9396 25.3897 15.9396C25.3897 15.9396 25.3897 15.9396 25.3897 15.9396C25.3897 15.9396 25.3897 15.9396 25.3897 15.9396C25.3897 15.9396 25.3897 15.9396 25.3897 15.9396C25.3897 15.9396 25.3897 15.9396 25.3897 15.9396C25.3897 15.9396 25.3897 15.9397 25.3897 15.9397C25.3897 15.9397 25.3897 15.9397 25.3897 15.9397C25.3897 15.9397 25.3897 15.9397 25.3897 15.9397C25.3897 15.9397 25.3897 15.9397 25.3897 15.9397C25.3897 15.9397 25.3897 15.9397 25.3897 15.9397C25.3897 15.9397 25.3897 15.9397 25.3897 15.9397C25.3897 15.9397 25.3897 15.9397 25.3897 15.9397C25.3897 15.9397 25.3897 15.9397 25.3897 15.9397C25.3897 15.9398 25.3897 15.9398 25.3897 15.9398C25.3897 15.9398 25.3897 15.9398 25.3897 15.9398C25.3897 15.9398 25.3897 15.9398 25.3897 15.9398C25.3897 15.9398 25.3897 15.9398 25.3897 15.9398C25.3897 15.9398 25.3897 15.9398 25.3897 15.9398C25.3897 15.9398 25.3897 15.9398 25.3897 15.9398C25.3897 15.9398 25.3897 15.9398 25.3897 15.9398C25.3897 15.9398 25.3897 15.9398 25.3897 15.9398C25.3897 15.9398 25.3897 15.9398 25.3897 15.9398C25.3897 15.9399 25.3897 15.9399 25.3897 15.9399C25.3897 15.9399 25.3897 15.9399 25.3897 15.9399C25.3897 15.9399 25.3897 15.9399 25.3897 15.9399C25.3897 15.9399 25.3897 15.9399 25.3897 15.9399C25.3897 15.9399 25.3897 15.9399 25.3897 15.9399C25.3897 15.9399 25.3897 15.9399 25.3897 15.9399C25.3897 15.9399 25.3897 15.9399 25.3897 15.9399C25.3897 15.9399 25.3897 15.9399 25.3897 15.9399C25.3897 15.9399 25.3897 15.9399 25.3897 15.9399C25.3897 15.9399 25.3897 15.9399 25.3897 15.9399C25.3897 15.9399 25.3897 15.9399 25.3897 15.9399C25.3897 15.9399 25.3897 15.94 25.3897 15.94C25.3897 15.94 25.3897 15.94 25.3897 15.94C25.3897 15.94 25.3897 15.94 25.3897 15.94C25.3897 15.94 25.3897 15.94 25.3897 15.94C25.3897 15.94 25.3897 15.94 25.3897 15.94C25.3897 15.94 25.3897 15.94 25.3897 15.94C25.3897 15.94 25.3897 15.94 25.3897 15.94C25.3897 15.94 25.3897 15.94 25.3897 15.94C25.3897 15.94 25.3897 15.94 25.3897 15.94C25.3897 15.94 25.3897 15.94 25.3897 15.94C25.3897 15.94 25.3897 15.94 25.3897 15.94C25.3897 15.94 25.3897 15.94 25.3897 15.94C25.3897 15.94 25.3897 15.94 25.3897 15.94C25.3897 15.94 25.3897 15.94 25.3897 15.94C25.3897 15.94 25.3897 15.94 25.3897 15.94C25.3897 15.94 25.3897 15.94 25.3897 15.94C25.3897 15.94 25.3897 15.94 25.3897 15.94C25.3897 15.9401 25.3897 15.9401 25.3897 15.9401C25.3897 15.9401 25.3897 15.9401 25.3897 15.9401C25.3897 15.9401 25.3897 15.9401 25.3897 15.9401C25.3897 15.9401 25.3897 15.9401 25.3897 15.9401C25.3897 15.9401 25.3897 15.9401 25.3897 15.9401C25.3897 15.9401 25.3897 15.9401 25.3897 15.9401C25.3897 15.9401 25.3897 15.9401 25.3897 15.9401C25.3897 15.9401 25.3897 15.9401 25.3897 15.9401C25.3897 15.9401 25.3897 15.9401 25.3897 15.9401C25.3897 15.9401 25.3897 15.9401 25.3897 15.9401C25.3897 15.9401 25.3897 15.9401 25.3897 15.9401C25.3897 15.9401 25.3897 15.9401 25.3897 15.9401C25.3897 15.9401 25.3897 15.9401 25.3897 15.9401C25.3897 15.9401 25.3897 15.9401 25.3897 15.9401C25.3897 15.9401 25.3897 15.9401 25.3897 15.9401C25.3897 15.9401 25.3897 15.9401 25.3897 15.9401C25.3897 15.9401 25.3897 15.9401 25.3897 15.9401C25.3897 15.9401 25.3897 15.9401 25.3897 15.9401C25.3897 15.9401 25.3897 15.9401 25.3897 15.9401C25.3897 15.9401 25.3897 15.9401 25.3897 15.9401C25.3897 15.9401 25.3897 15.9401 25.3897 15.9401C25.3897 15.9401 25.3897 15.9401 25.3897 15.9401V15.9401C25.3897 15.9401 25.3897 15.9401 25.3897 15.9401C25.3897 15.9401 25.3897 15.9401 25.3897 15.9401V15.9401C25.3897 15.9401 25.3897 15.9401 25.3897 15.9401C25.3897 15.9401 25.3897 15.9401 25.3897 15.9401V15.9401V15.9401V15.9401V15.9401V15.9401C25.3897 15.9401 25.3897 15.9401 25.3897 15.9401C25.3897 15.9401 25.3897 15.9401 25.3897 15.9401C25.3897 15.9401 25.3897 15.9401 25.3897 15.9401V15.9401C25.3897 15.9401 25.3897 15.9401 25.3897 15.9401C25.3897 15.9401 25.3897 15.9401 25.3897 15.9401V15.9401C25.3897 15.9401 25.3897 15.9401 10.3897 15.9401ZM15.4281 -14.6405C27.5098 -14.6405 37.4483 -5.04321 37.6417 7.16435L7.64548 7.63956C7.71447 11.9945 11.3084 15.3595 15.4281 15.3595V-14.6405ZM37.6418 7.17166C37.8336 19.6593 27.8924 29.5685 15.6558 29.7543L15.2004 -0.242264C11.1746 -0.181149 7.57802 3.24657 7.64537 7.63225L37.6418 7.17166ZM15.4281 29.756C3.23086 29.756 -6.20445 20.0813 -6.76931 8.57361L23.1946 7.10281C23.003 3.19848 19.7879 -0.243993 15.4281 -0.243993V29.756ZM-6.78006 8.30583C-7.15798 -3.81098 2.46141 -14.6405 15.4281 -14.6405V15.3595C20.0597 15.3595 23.3345 11.5101 23.2054 7.37059L-6.78006 8.30583ZM20.5089 26.4742C21.398 25.5834 21.9967 24.7539 22.3434 24.2329C22.4254 24.1096 22.491 24.0069 22.535 23.9372C22.557 23.9023 22.5749 23.8736 22.5869 23.8543C22.5982 23.836 22.6069 23.8219 22.6076 23.8209C22.6502 23.7518 22.4958 24.0058 22.3181 24.2728C22.0176 24.7244 20.7613 26.6287 18.4178 28.2724C15.6524 30.2119 12.5691 31.0025 9.76771 31.0025V1.00246C6.99737 1.00246 3.93748 1.7852 1.19149 3.71113C-1.13259 5.34114 -2.37335 7.22593 -2.65831 7.65421C-2.82821 7.90956 -2.97482 8.15083 -2.92395 8.0684C-2.9212 8.06393 -2.79587 7.859 -2.63301 7.61425C-2.26695 7.06408 -1.64487 6.20338 -0.724718 5.28145L20.5089 26.4742ZM20.2252 26.7561C18.2039 28.7218 16.2299 30.6992 14.1021 32.8311L-7.13156 11.6383C-5.02956 9.53229 -2.8982 7.39642 -0.689798 5.24883L20.2252 26.7561ZM14.1021 32.8311C7.68208 39.2635 -2.63982 39.2635 -9.05983 32.8311L12.1738 11.6383C9.8325 9.2925 6.42694 7.65539 2.52113 7.65539C-1.38468 7.65539 -4.79024 9.2925 -7.13156 11.6383L14.1021 32.8311ZM-9.05983 32.8311C-9.06722 32.8237 -9.14575 32.745 -9.15314 32.7376C-9.23669 32.6539 -9.16289 32.7278 -9.24644 32.6441C-9.54608 32.3439 -9.13341 32.7574 -9.43305 32.4571C-9.69518 32.1945 -9.54413 32.3458 -9.80626 32.0832L11.4274 10.8905C11.5481 11.0114 11.6799 11.1434 11.8006 11.2644C12.0654 11.5297 11.7224 11.1861 11.9872 11.4514C12.6265 12.0919 11.5345 10.9978 12.1738 11.6383L-9.05983 32.8311ZM-9.80626 32.0832C-11.6902 30.1957 -14.6249 26.2967 -14.6249 20.552H15.3751C15.3751 15.5552 12.8137 12.2794 11.4274 10.8905L-9.80626 32.0832ZM-14.5095 22.409C-15.4922 14.5317 -10.6106 9.70202 -9.74406 8.83383L11.4896 30.0266C11.5197 29.9964 12.7668 28.8105 13.7882 26.849C15.038 24.4491 15.6221 21.5992 15.2598 18.695L-14.5095 22.409ZM-9.74406 8.83383C-7.7059 6.79173 -5.5713 4.65258 -3.42176 2.56416L17.4834 24.081C15.5276 25.9812 13.5568 27.9554 11.4896 30.0266L-9.74406 8.83383ZM-3.58603 2.72622C-3.55488 2.69502 -3.53929 2.6794 -3.52372 2.6638C-3.50819 2.64824 -3.49268 2.6327 -3.46162 2.60158L17.772 23.7943C17.7409 23.8255 17.7253 23.8411 17.7097 23.8567C17.6942 23.8723 17.6787 23.8878 17.6476 23.919L-3.58603 2.72622ZM17.4005 2.24197C18.2704 3.05544 19.5856 4.27721 20.8678 5.6536L-1.08356 26.102C-1.54308 25.6087 -2.09394 25.0855 -3.09012 24.1539L17.4005 2.24197ZM20.0113 1.5421C20.3532 1.88463 20.0427 1.5735 20.3845 1.91603C20.4293 1.96091 20.5264 2.05812 20.5711 2.103C20.6751 2.20713 20.5605 2.09235 20.6644 2.19648C20.8191 2.3514 20.5565 2.08831 20.7111 2.24323C20.9933 2.52596 20.4756 2.00723 20.7577 2.28997C20.8524 2.38479 20.7564 2.28863 20.8511 2.38345C21.008 2.54074 20.7874 2.31965 20.9444 2.47693C21.2148 2.74792 20.8605 2.39292 21.131 2.6639C21.3294 2.86272 21.0258 2.55856 21.2243 2.75739C21.495 3.02865 21.0468 2.57961 21.3176 2.85087C21.3252 2.85852 21.3566 2.88997 21.3642 2.89761C21.3918 2.92529 21.3833 2.91668 21.4109 2.94435C21.4763 3.00987 21.3921 2.92558 21.4575 2.9911C21.5624 3.09615 21.3993 2.93278 21.5042 3.03784L0.270521 24.2306C0.200188 24.1601 0.154245 24.1141 0.0839138 24.0436C-0.239983 23.7191 0.361156 24.3214 0.037262 23.9969C-0.414509 23.5442 0.442379 24.4028 -0.00938988 23.9501C-0.15749 23.8017 0.0920582 24.0518 -0.0560417 23.9034C-0.288155 23.6708 0.164408 24.1242 -0.0677052 23.8917C-0.0920143 23.8673 -0.0492268 23.9102 -0.0735359 23.8858C-0.0806808 23.8787 -0.0722237 23.8872 -0.0793686 23.88C-0.120222 23.8391 -0.0618382 23.8976 -0.102694 23.8566C-0.202217 23.7569 -0.189777 23.7694 -0.289301 23.6697C-0.525555 23.433 -0.146349 23.8129 -0.382605 23.5762C-0.400841 23.5579 -0.457672 23.501 -0.475908 23.4827C-0.502882 23.4557 -0.542236 23.4162 -0.569212 23.3892C-1.12316 22.8342 -0.108566 23.8507 -0.662516 23.2957C-1.09676 22.8606 -0.414881 23.5438 -0.849121 23.1088C-1.09167 22.8657 -0.699879 23.2583 -0.942425 23.0153C-1.53706 22.4195 -0.441093 23.5176 -1.03573 22.9218C-1.29603 22.661 -0.962036 22.9956 -1.22234 22.7348L20.0113 1.5421ZM21.5042 24.2306C21.0691 24.6664 20.6457 25.06 20.4427 25.2494C20.3145 25.369 20.2506 25.4286 20.1942 25.482C20.1412 25.5322 20.1524 25.5227 20.1979 25.477L-1.03573 4.28429C-0.80356 4.05167 -0.590219 3.84739 -0.431364 3.69699C-0.275864 3.54977 -0.118164 3.40292 -0.020937 3.31223C0.0934391 3.20553 0.160984 3.14228 0.217655 3.08842C0.271631 3.03711 0.283817 3.02451 0.270521 3.03784L21.5042 24.2306ZM-0.395096 26.0822C-0.856735 25.6711 -1.27456 25.276 -1.50041 25.0634C-1.63238 24.9392 -1.71224 24.8643 -1.78102 24.8007C-1.84581 24.7408 -1.86764 24.7218 -1.86232 24.7264L17.9144 2.16803C18.394 2.58847 18.8315 3.00185 19.0609 3.21774C19.3482 3.48817 19.4591 3.59162 19.5573 3.67907L-0.395096 26.0822ZM-1.86232 2.16803C-1.84611 2.15383 -1.79807 2.11089 -1.69572 2.01188C-1.58014 1.90006 -1.45429 1.7745 -1.22234 1.5421L20.0113 22.7348C19.6159 23.131 18.8433 23.9121 17.9144 24.7264L-1.86232 2.16803Z" fill="black" mask="url(#path-1-inside-1)"/>
<path d="M15.4285 0.359375C11.2609 0.359375 8.08859 3.84943 8.2752 7.83807C8.46181 11.6397 11.5719 14.7559 15.4907 14.7559C19.5338 14.7559 22.7684 11.4528 22.7061 7.40182C22.5817 3.4755 19.4094 0.359375 15.4285 0.359375ZM9.89246 7.52646C9.89246 4.41034 12.3806 1.91744 15.4907 1.91744C18.5386 1.91744 21.0267 4.41034 21.0889 7.40182C21.0889 10.4556 18.663 13.0732 15.4907 13.0732C12.2562 13.1355 9.89246 10.5179 9.89246 7.52646Z" fill="white"/>
<path d="M9.8916 15.8778C8.95857 14.9429 8.08773 14.0081 7.1547 13.0732C7.0925 13.1356 7.03029 13.1356 7.03029 13.1979C4.97761 15.2545 2.92494 17.3112 0.872259 19.3055C0.561247 19.6171 0.312436 19.991 0.374639 20.4273C0.374639 20.8012 0.561246 21.1128 0.810056 21.3621C1.05886 21.6114 1.30767 21.8607 1.55648 22.11C2.17851 22.6709 2.92494 22.6709 3.48476 22.11C5.59964 20.0534 7.65232 17.9967 9.7672 15.8778C9.8294 16.0024 9.8294 15.9401 9.8916 15.8778ZM8.52315 15.8778C8.33654 15.7531 8.21214 15.6285 8.08773 15.4415C8.02553 15.3792 8.02553 15.3169 8.02553 15.2545C8.08773 15.3169 8.21214 15.3169 8.21214 15.3792C8.33654 15.5038 8.46095 15.6285 8.58535 15.7531C8.70976 15.8778 8.70976 16.0024 8.58535 16.127C6.84369 17.8721 5.10202 19.6794 3.36035 21.4245C3.29815 21.4868 3.29815 21.4868 3.23595 21.4868C3.23595 21.4868 3.17375 21.4868 3.11154 21.4868C3.11154 21.4245 3.04934 21.4245 3.11154 21.3621C3.11154 21.2998 3.17375 21.2998 3.17375 21.2375C4.35559 19.991 5.53744 18.8069 6.71928 17.5605C7.3413 17.0619 7.90113 16.4387 8.52315 15.8778Z" fill="white"/>
<path d="M9.39484 12.1387C8.95942 12.5749 8.524 13.0112 8.02639 13.4474C8.524 13.946 9.08383 14.3823 9.58145 14.8809C9.95466 14.5069 10.4523 14.0707 10.8877 13.6344C10.3901 13.1358 9.89246 12.6373 9.39484 12.1387Z" fill="white"/>
<path d="M9.89214 7.52699C9.89214 10.4562 12.2558 13.0737 15.4282 13.0737C18.6005 13.0737 21.0264 10.4562 21.0264 7.40235C21.0264 4.41087 18.4761 1.91797 15.4282 1.91797C12.3802 1.98029 9.89214 4.47319 9.89214 7.52699ZM15.4282 2.16726C18.4139 2.16726 20.8398 4.53551 20.8398 7.52699C20.8398 10.5185 18.4761 12.949 15.4904 12.949C12.5046 12.949 10.0788 10.5808 10.0788 7.58932C10.0165 4.59784 12.4424 2.16726 15.4282 2.16726Z" fill="#D28F18"/>
</svg>
