<svg width="48" height="23" viewBox="0 0 48 23" fill="none" xmlns="http://www.w3.org/2000/svg">
<path d="M33.0144 0C34.8708 2.13322 36.0191 4.94519 36.0191 8.02867C36.0191 14.7386 30.6411 20.188 24.0191 20.188C17.3971 20.188 12.0191 14.7386 12.0191 8.02867C12 4.94519 13.1292 2.13322 15.0048 0C8.63158 1.9199 3.311 5.81788 0 10.8406C4.78469 18.113 13.7416 23 24 23C34.2584 23 43.2153 18.113 48 10.8406C44.689 5.81788 39.3684 1.9199 33.0144 0Z" fill="#096D67"/>
<path d="M24.0006 1.6875C20.5556 1.6875 17.7422 4.53826 17.7422 8.02898C17.7422 11.5197 20.5556 14.3705 24.0006 14.3705C27.4647 14.3705 30.2589 11.5197 30.2589 8.02898C30.2589 4.53826 27.4647 1.6875 24.0006 1.6875ZM23.4073 7.4472C22.5652 8.30048 21.3211 8.41684 20.613 7.7187C19.9049 7.00116 20.0197 5.74062 20.8809 4.88733C21.723 4.03404 22.9671 3.91769 23.6752 4.63522C24.3833 5.31398 24.2685 6.59391 23.4073 7.4472Z" fill="#096D67"/>
</svg>
